<mxfile host="app.diagrams.net" modified="2023-04-27T12:30:18.965Z" agent="Mozilla/5.0 (Windows NT 10.0; Win64; x64) AppleWebKit/537.36 (KHTML, like Gecko) Chrome/112.0.0.0 Safari/537.36" etag="1K2iniKAoXnZURKeY-kj" version="21.2.3" type="github" pages="2">
  <diagram id="LFyg-a8Ok2QkcN0amf7p" name="Page-1">
    <mxGraphModel dx="3585" dy="2015" grid="1" gridSize="10" guides="1" tooltips="1" connect="1" arrows="1" fold="1" page="1" pageScale="1" pageWidth="3300" pageHeight="4681" math="0" shadow="0">
      <root>
        <mxCell id="0" />
        <mxCell id="1" parent="0" />
        <mxCell id="2uXBeAlWbGUg867ojXTd-1" value="&lt;span style=&quot;font-weight: 700&quot;&gt;Github Actions&lt;/span&gt;" style="shape=parallelogram;perimeter=parallelogramPerimeter;whiteSpace=wrap;html=1;fixedSize=1;shadow=0;strokeColor=#6c8ebf;fillColor=#dae8fc;align=right;opacity=40;spacingTop=0;spacingRight=25;verticalAlign=bottom;" parent="1" vertex="1">
          <mxGeometry x="916" y="410" width="464" height="110" as="geometry" />
        </mxCell>
        <mxCell id="2uXBeAlWbGUg867ojXTd-2" value="&lt;span style=&quot;font-weight: 700&quot;&gt;Git | Github&lt;/span&gt;" style="shape=parallelogram;perimeter=parallelogramPerimeter;whiteSpace=wrap;html=1;fixedSize=1;shadow=0;strokeColor=#d6b656;fillColor=#fff2cc;align=right;opacity=40;spacingTop=0;spacingRight=25;verticalAlign=bottom;" parent="1" vertex="1">
          <mxGeometry x="760" y="410" width="160" height="110" as="geometry" />
        </mxCell>
        <mxCell id="2uXBeAlWbGUg867ojXTd-3" value="&lt;span style=&quot;font-weight: 700&quot;&gt;Azure Blob Storage&lt;/span&gt;" style="shape=parallelogram;perimeter=parallelogramPerimeter;whiteSpace=wrap;html=1;fixedSize=1;shadow=0;strokeColor=#6c8ebf;fillColor=#dae8fc;align=right;opacity=40;spacingTop=0;spacingRight=25;verticalAlign=bottom;" parent="1" vertex="1">
          <mxGeometry x="1250" y="601" width="360" height="250" as="geometry" />
        </mxCell>
        <mxCell id="2uXBeAlWbGUg867ojXTd-4" value="&lt;span style=&quot;font-weight: 700&quot;&gt;Webpack 5 Module Federation&lt;/span&gt;" style="shape=parallelogram;perimeter=parallelogramPerimeter;whiteSpace=wrap;html=1;fixedSize=1;shadow=0;strokeColor=#d6b656;fillColor=#fff2cc;align=right;opacity=40;spacingTop=0;spacingRight=25;verticalAlign=bottom;" parent="1" vertex="1">
          <mxGeometry x="420" y="621" width="770" height="230" as="geometry" />
        </mxCell>
        <mxCell id="2uXBeAlWbGUg867ojXTd-5" value="&lt;span style=&quot;font-size: 11px&quot;&gt;Client Server&lt;/span&gt;" style="endArrow=classic;html=1;labelBackgroundColor=none;strokeColor=#000000;fillColor=#ffffff;fontSize=20;spacingTop=10;" parent="1" edge="1">
          <mxGeometry width="50" height="50" relative="1" as="geometry">
            <mxPoint x="1130" y="804.5799999999999" as="sourcePoint" />
            <mxPoint x="770" y="804.5799999999999" as="targetPoint" />
          </mxGeometry>
        </mxCell>
        <mxCell id="2uXBeAlWbGUg867ojXTd-6" style="edgeStyle=orthogonalEdgeStyle;curved=1;rounded=0;orthogonalLoop=1;jettySize=auto;html=1;entryX=0.433;entryY=0.952;entryDx=0;entryDy=0;entryPerimeter=0;startArrow=none;startFill=0;endArrow=block;endFill=1;fontColor=#050505;exitX=0.5;exitY=1;exitDx=0;exitDy=0;" parent="1" source="2uXBeAlWbGUg867ojXTd-48" target="2uXBeAlWbGUg867ojXTd-10" edge="1">
          <mxGeometry relative="1" as="geometry">
            <mxPoint x="570" y="1430" as="sourcePoint" />
            <Array as="points">
              <mxPoint x="520" y="1350" />
              <mxPoint x="263" y="1350" />
            </Array>
          </mxGeometry>
        </mxCell>
        <mxCell id="2uXBeAlWbGUg867ojXTd-7" style="edgeStyle=orthogonalEdgeStyle;rounded=0;orthogonalLoop=1;jettySize=auto;html=1;entryX=0.5;entryY=0;entryDx=0;entryDy=0;startArrow=none;startFill=0;endArrow=block;endFill=1;fontColor=#050505;curved=1;" parent="1" source="2uXBeAlWbGUg867ojXTd-8" target="2uXBeAlWbGUg867ojXTd-48" edge="1">
          <mxGeometry relative="1" as="geometry" />
        </mxCell>
        <mxCell id="2uXBeAlWbGUg867ojXTd-8" value="" style="rounded=0;whiteSpace=wrap;html=1;" parent="1" vertex="1">
          <mxGeometry x="415.5" y="910" width="210" height="260" as="geometry" />
        </mxCell>
        <mxCell id="2uXBeAlWbGUg867ojXTd-9" style="edgeStyle=orthogonalEdgeStyle;curved=1;rounded=0;orthogonalLoop=1;jettySize=auto;html=1;entryX=0.5;entryY=0;entryDx=0;entryDy=0;startArrow=none;startFill=0;endArrow=block;endFill=1;exitX=0.376;exitY=-0.007;exitDx=0;exitDy=0;exitPerimeter=0;" parent="1" source="2uXBeAlWbGUg867ojXTd-10" target="2uXBeAlWbGUg867ojXTd-13" edge="1">
          <mxGeometry relative="1" as="geometry">
            <Array as="points">
              <mxPoint x="261" y="260" />
              <mxPoint x="520" y="260" />
            </Array>
          </mxGeometry>
        </mxCell>
        <mxCell id="2uXBeAlWbGUg867ojXTd-10" value="" style="html=1;verticalLabelPosition=bottom;align=center;labelBackgroundColor=#ffffff;verticalAlign=top;strokeWidth=2;shadow=0;dashed=0;shape=mxgraph.ios7.icons.smartphone;" parent="1" vertex="1">
          <mxGeometry x="250" y="677.5" width="30" height="52.5" as="geometry" />
        </mxCell>
        <mxCell id="2uXBeAlWbGUg867ojXTd-11" style="edgeStyle=orthogonalEdgeStyle;curved=1;rounded=0;orthogonalLoop=1;jettySize=auto;html=1;startArrow=block;startFill=1;endArrow=block;endFill=1;exitX=1;exitY=0.5;exitDx=0;exitDy=0;entryX=0.03;entryY=0.432;entryDx=0;entryDy=0;entryPerimeter=0;" parent="1" source="2uXBeAlWbGUg867ojXTd-12" target="2uXBeAlWbGUg867ojXTd-3" edge="1">
          <mxGeometry relative="1" as="geometry">
            <mxPoint x="930" y="670" as="sourcePoint" />
            <mxPoint x="1266" y="710" as="targetPoint" />
          </mxGeometry>
        </mxCell>
        <mxCell id="2uXBeAlWbGUg867ojXTd-12" value="http://host:4001/carrinho/entrypoint.js" style="rounded=0;whiteSpace=wrap;html=1;" parent="1" vertex="1">
          <mxGeometry x="840" y="640" width="220" height="60" as="geometry" />
        </mxCell>
        <mxCell id="2uXBeAlWbGUg867ojXTd-13" value="Open APP/&lt;br&gt;Route redirect" style="rounded=0;whiteSpace=wrap;html=1;" parent="1" vertex="1">
          <mxGeometry x="460" y="320" width="120" height="60" as="geometry" />
        </mxCell>
        <mxCell id="2uXBeAlWbGUg867ojXTd-14" style="edgeStyle=orthogonalEdgeStyle;rounded=0;orthogonalLoop=1;jettySize=auto;html=1;startArrow=block;startFill=1;curved=1;" parent="1" source="2uXBeAlWbGUg867ojXTd-19" target="2uXBeAlWbGUg867ojXTd-12" edge="1">
          <mxGeometry relative="1" as="geometry" />
        </mxCell>
        <mxCell id="2uXBeAlWbGUg867ojXTd-15" value="/carrinho" style="edgeLabel;html=1;align=center;verticalAlign=middle;resizable=0;points=[];" parent="2uXBeAlWbGUg867ojXTd-14" vertex="1" connectable="0">
          <mxGeometry x="0.6828" relative="1" as="geometry">
            <mxPoint x="-14.14" y="-10" as="offset" />
          </mxGeometry>
        </mxCell>
        <mxCell id="2uXBeAlWbGUg867ojXTd-16" value="/checkout" style="edgeLabel;html=1;align=center;verticalAlign=middle;resizable=0;points=[];" parent="2uXBeAlWbGUg867ojXTd-14" vertex="1" connectable="0">
          <mxGeometry x="0.6828" relative="1" as="geometry">
            <mxPoint x="-14.14" y="73" as="offset" />
          </mxGeometry>
        </mxCell>
        <mxCell id="2uXBeAlWbGUg867ojXTd-17" style="edgeStyle=orthogonalEdgeStyle;rounded=0;orthogonalLoop=1;jettySize=auto;html=1;entryX=0;entryY=0.5;entryDx=0;entryDy=0;curved=1;startArrow=block;startFill=1;" parent="1" source="2uXBeAlWbGUg867ojXTd-19" target="2uXBeAlWbGUg867ojXTd-21" edge="1">
          <mxGeometry relative="1" as="geometry" />
        </mxCell>
        <mxCell id="2uXBeAlWbGUg867ojXTd-18" style="edgeStyle=orthogonalEdgeStyle;curved=1;rounded=0;orthogonalLoop=1;jettySize=auto;html=1;startArrow=none;startFill=0;endArrow=block;endFill=1;exitX=0.5;exitY=1;exitDx=0;exitDy=0;entryX=0.5;entryY=0;entryDx=0;entryDy=0;" parent="1" source="2uXBeAlWbGUg867ojXTd-19" target="2uXBeAlWbGUg867ojXTd-8" edge="1">
          <mxGeometry relative="1" as="geometry">
            <mxPoint x="520" y="970" as="targetPoint" />
            <Array as="points" />
          </mxGeometry>
        </mxCell>
        <mxCell id="2uXBeAlWbGUg867ojXTd-19" value="Load remote content" style="rounded=0;whiteSpace=wrap;html=1;" parent="1" vertex="1">
          <mxGeometry x="460" y="670" width="120" height="60" as="geometry" />
        </mxCell>
        <mxCell id="2uXBeAlWbGUg867ojXTd-20" style="edgeStyle=orthogonalEdgeStyle;curved=1;rounded=0;orthogonalLoop=1;jettySize=auto;html=1;entryX=0.031;entryY=0.43;entryDx=0;entryDy=0;startArrow=block;startFill=1;endArrow=block;endFill=1;exitX=1;exitY=0.5;exitDx=0;exitDy=0;entryPerimeter=0;" parent="1" source="2uXBeAlWbGUg867ojXTd-21" target="2uXBeAlWbGUg867ojXTd-3" edge="1">
          <mxGeometry relative="1" as="geometry">
            <mxPoint x="930" y="766" as="sourcePoint" />
            <mxPoint x="1266" y="710" as="targetPoint" />
          </mxGeometry>
        </mxCell>
        <mxCell id="2uXBeAlWbGUg867ojXTd-21" value="http://host:4002t/checkout/entrypoint.js" style="rounded=0;whiteSpace=wrap;html=1;" parent="1" vertex="1">
          <mxGeometry x="840" y="725" width="220" height="60" as="geometry" />
        </mxCell>
        <mxCell id="2uXBeAlWbGUg867ojXTd-22" style="edgeStyle=orthogonalEdgeStyle;curved=1;rounded=0;orthogonalLoop=1;jettySize=auto;html=1;entryX=0;entryY=0.5;entryDx=0;entryDy=0;startArrow=none;startFill=0;endArrow=block;endFill=1;" parent="1" source="2uXBeAlWbGUg867ojXTd-23" target="2uXBeAlWbGUg867ojXTd-32" edge="1">
          <mxGeometry relative="1" as="geometry" />
        </mxCell>
        <mxCell id="2uXBeAlWbGUg867ojXTd-23" value="" style="html=1;whiteSpace=wrap;shape=isoCube2;backgroundOutline=1;isoAngle=15;shadow=0;fillColor=#080808;align=right;strokeColor=#F7F7F7;" parent="1" vertex="1">
          <mxGeometry x="1134" y="440" width="40" height="40" as="geometry" />
        </mxCell>
        <mxCell id="2uXBeAlWbGUg867ojXTd-24" style="edgeStyle=orthogonalEdgeStyle;curved=1;rounded=0;orthogonalLoop=1;jettySize=auto;html=1;entryX=0;entryY=0.5;entryDx=0;entryDy=0;entryPerimeter=0;startArrow=none;startFill=0;endArrow=block;endFill=1;" parent="1" source="2uXBeAlWbGUg867ojXTd-25" target="2uXBeAlWbGUg867ojXTd-23" edge="1">
          <mxGeometry relative="1" as="geometry" />
        </mxCell>
        <mxCell id="2uXBeAlWbGUg867ojXTd-25" value="&lt;span&gt;CI&lt;/span&gt;" style="shape=step;perimeter=stepPerimeter;whiteSpace=wrap;html=1;fixedSize=1;shadow=0;align=center;" parent="1" vertex="1">
          <mxGeometry x="944" y="420" width="120" height="80" as="geometry" />
        </mxCell>
        <mxCell id="2uXBeAlWbGUg867ojXTd-26" value="Dev" style="shape=step;perimeter=stepPerimeter;whiteSpace=wrap;html=1;fixedSize=1;shadow=0;align=center;" parent="1" vertex="1">
          <mxGeometry x="785" y="420" width="120" height="80" as="geometry" />
        </mxCell>
        <mxCell id="2uXBeAlWbGUg867ojXTd-27" style="edgeStyle=orthogonalEdgeStyle;rounded=0;orthogonalLoop=1;jettySize=auto;html=1;" parent="1" source="2uXBeAlWbGUg867ojXTd-28" target="2uXBeAlWbGUg867ojXTd-19" edge="1">
          <mxGeometry relative="1" as="geometry" />
        </mxCell>
        <mxCell id="2uXBeAlWbGUg867ojXTd-28" value="Webview module" style="rounded=0;whiteSpace=wrap;html=1;" parent="1" vertex="1">
          <mxGeometry x="460" y="450" width="120" height="60" as="geometry" />
        </mxCell>
        <mxCell id="2uXBeAlWbGUg867ojXTd-29" style="edgeStyle=orthogonalEdgeStyle;rounded=0;orthogonalLoop=1;jettySize=auto;html=1;startArrow=none;startFill=0;endArrow=block;endFill=1;exitX=0.5;exitY=1;exitDx=0;exitDy=0;curved=1;entryX=0.5;entryY=0;entryDx=0;entryDy=0;" parent="1" source="2uXBeAlWbGUg867ojXTd-13" target="2uXBeAlWbGUg867ojXTd-28" edge="1">
          <mxGeometry relative="1" as="geometry">
            <mxPoint x="530" y="520" as="sourcePoint" />
            <mxPoint x="520" y="450" as="targetPoint" />
          </mxGeometry>
        </mxCell>
        <mxCell id="2uXBeAlWbGUg867ojXTd-30" style="edgeStyle=orthogonalEdgeStyle;rounded=0;orthogonalLoop=1;jettySize=auto;html=1;startArrow=none;startFill=0;endArrow=block;endFill=1;curved=1;entryX=0.497;entryY=-0.006;entryDx=0;entryDy=0;exitX=1;exitY=0.5;exitDx=0;exitDy=0;entryPerimeter=0;" parent="1" source="2uXBeAlWbGUg867ojXTd-32" target="2uXBeAlWbGUg867ojXTd-3" edge="1">
          <mxGeometry relative="1" as="geometry">
            <mxPoint x="1430" y="680" as="targetPoint" />
          </mxGeometry>
        </mxCell>
        <mxCell id="2uXBeAlWbGUg867ojXTd-31" style="edgeStyle=orthogonalEdgeStyle;curved=1;rounded=0;orthogonalLoop=1;jettySize=auto;html=1;entryX=0;entryY=0.5;entryDx=0;entryDy=0;startArrow=none;startFill=0;endArrow=block;endFill=1;fontSize=43;fontColor=#050505;dashed=1;" parent="1" source="2uXBeAlWbGUg867ojXTd-32" target="2uXBeAlWbGUg867ojXTd-57" edge="1">
          <mxGeometry relative="1" as="geometry" />
        </mxCell>
        <mxCell id="2uXBeAlWbGUg867ojXTd-32" value="&lt;span&gt;CD&lt;/span&gt;" style="shape=step;perimeter=stepPerimeter;whiteSpace=wrap;html=1;fixedSize=1;shadow=0;align=center;" parent="1" vertex="1">
          <mxGeometry x="1234" y="420" width="120" height="80" as="geometry" />
        </mxCell>
        <mxCell id="2uXBeAlWbGUg867ojXTd-33" value="Carrinho&lt;br&gt;Application" style="rounded=0;whiteSpace=wrap;html=1;" parent="1" vertex="1">
          <mxGeometry x="1323" y="650" width="80" height="60" as="geometry" />
        </mxCell>
        <mxCell id="2uXBeAlWbGUg867ojXTd-34" value="Checkout&lt;br&gt;Application" style="rounded=0;whiteSpace=wrap;html=1;" parent="1" vertex="1">
          <mxGeometry x="1470" y="665" width="80" height="60" as="geometry" />
        </mxCell>
        <mxCell id="2uXBeAlWbGUg867ojXTd-35" style="edgeStyle=orthogonalEdgeStyle;curved=1;rounded=0;orthogonalLoop=1;jettySize=auto;html=1;entryX=0;entryY=0.5;entryDx=0;entryDy=0;startArrow=block;startFill=1;endArrow=block;endFill=1;fontColor=#050505;" parent="1" source="2uXBeAlWbGUg867ojXTd-36" target="2uXBeAlWbGUg867ojXTd-38" edge="1">
          <mxGeometry relative="1" as="geometry" />
        </mxCell>
        <mxCell id="2uXBeAlWbGUg867ojXTd-36" value="Token&lt;br&gt;Login&lt;br&gt;Session" style="rounded=0;whiteSpace=wrap;html=1;" parent="1" vertex="1">
          <mxGeometry x="460.5" y="930" width="120" height="60" as="geometry" />
        </mxCell>
        <mxCell id="2uXBeAlWbGUg867ojXTd-37" style="edgeStyle=orthogonalEdgeStyle;curved=1;rounded=0;orthogonalLoop=1;jettySize=auto;html=1;startArrow=block;startFill=1;endArrow=block;endFill=1;fontColor=#050505;entryX=0;entryY=0.5;entryDx=0;entryDy=0;" parent="1" source="2uXBeAlWbGUg867ojXTd-38" target="2uXBeAlWbGUg867ojXTd-39" edge="1">
          <mxGeometry relative="1" as="geometry" />
        </mxCell>
        <mxCell id="2uXBeAlWbGUg867ojXTd-38" value="Native bridge communication" style="rounded=0;whiteSpace=wrap;html=1;" parent="1" vertex="1">
          <mxGeometry x="770.5" y="1010" width="120" height="60" as="geometry" />
        </mxCell>
        <mxCell id="2uXBeAlWbGUg867ojXTd-39" value="Native" style="rounded=0;whiteSpace=wrap;html=1;" parent="1" vertex="1">
          <mxGeometry x="970.5" y="1010" width="120" height="60" as="geometry" />
        </mxCell>
        <mxCell id="2uXBeAlWbGUg867ojXTd-40" style="edgeStyle=orthogonalEdgeStyle;curved=1;rounded=0;orthogonalLoop=1;jettySize=auto;html=1;entryX=0;entryY=0.5;entryDx=0;entryDy=0;startArrow=block;startFill=1;endArrow=block;endFill=1;fontColor=#050505;" parent="1" source="2uXBeAlWbGUg867ojXTd-41" target="2uXBeAlWbGUg867ojXTd-38" edge="1">
          <mxGeometry relative="1" as="geometry" />
        </mxCell>
        <mxCell id="2uXBeAlWbGUg867ojXTd-41" value="Hardware resources" style="rounded=0;whiteSpace=wrap;html=1;" parent="1" vertex="1">
          <mxGeometry x="460.5" y="1010" width="120" height="60" as="geometry" />
        </mxCell>
        <mxCell id="2uXBeAlWbGUg867ojXTd-42" style="edgeStyle=orthogonalEdgeStyle;curved=1;rounded=0;orthogonalLoop=1;jettySize=auto;html=1;entryX=0;entryY=0.5;entryDx=0;entryDy=0;startArrow=block;startFill=1;endArrow=block;endFill=1;fontColor=#050505;" parent="1" source="2uXBeAlWbGUg867ojXTd-43" target="2uXBeAlWbGUg867ojXTd-38" edge="1">
          <mxGeometry relative="1" as="geometry" />
        </mxCell>
        <mxCell id="2uXBeAlWbGUg867ojXTd-43" value="Native redirect" style="rounded=0;whiteSpace=wrap;html=1;" parent="1" vertex="1">
          <mxGeometry x="460.5" y="1090" width="120" height="60" as="geometry" />
        </mxCell>
        <mxCell id="2uXBeAlWbGUg867ojXTd-44" value="User" style="shape=umlActor;verticalLabelPosition=bottom;verticalAlign=top;html=1;outlineConnect=0;shadow=0;fillColor=#080808;fontColor=#050505;align=right;" parent="1" vertex="1">
          <mxGeometry x="190" y="670" width="30" height="60" as="geometry" />
        </mxCell>
        <mxCell id="2uXBeAlWbGUg867ojXTd-45" value="Dev" style="shape=umlActor;verticalLabelPosition=bottom;verticalAlign=top;html=1;outlineConnect=0;shadow=0;fillColor=#080808;fontColor=#050505;align=right;" parent="1" vertex="1">
          <mxGeometry x="706" y="430" width="30" height="60" as="geometry" />
        </mxCell>
        <mxCell id="2uXBeAlWbGUg867ojXTd-46" value="" style="shape=image;verticalLabelPosition=bottom;labelBackgroundColor=#ffffff;verticalAlign=top;aspect=fixed;imageAspect=0;image=data:image/svg+xml,PHN2ZyB4bWxucz0iaHR0cDovL3d3dy53My5vcmcvMjAwMC9zdmciIHhtbG5zOnhsaW5rPSJodHRwOi8vd3d3LnczLm9yZy8xOTk5L3hsaW5rIiBlbmFibGUtYmFja2dyb3VuZD0ibmV3IDAgMCAzMiAzMiIgaGVpZ2h0PSIzMS45Nzg2Mzc2OTUzMTI1IiBpZD0iTGF5ZXJfMSIgdmVyc2lvbj0iMS4wIiB2aWV3Qm94PSIzIC0wLjAwMDYzNzUyMzgyOTkzNjk4MTIgMjYgMzEuOTc4NjM3Njk1MzEyNSIgd2lkdGg9IjI2IiB4bWw6c3BhY2U9InByZXNlcnZlIj48Zz48cGF0aCBkPSJNNSw4Ljk3OGMtMS4xMDQsMC0yLDAuODk2LTIsMnY4YzAsMS4xMDQsMC44OTYsMiwyLDJzMi0wLjg5NiwyLTJ2LThDNyw5Ljg3Myw2LjEwNCw4Ljk3OCw1LDguOTc4eiIgZmlsbD0iIzg1QzgwOCIvPjxwYXRoIGQ9Ik0yNyw4Ljk3OGMtMS4xMDQsMC0yLDAuODk2LTIsMnY4YzAsMS4xMDQsMC44OTYsMiwyLDJzMi0wLjg5NiwyLTJ2LThDMjksOS44NzMsMjguMTA0LDguOTc4LDI3LDguOTc4eiIgZmlsbD0iIzg1QzgwOCIvPjxwYXRoIGQ9Ik04LDI0Ljk3OGgydjVjMCwxLjEwNCwwLjg5NiwyLDIsMnMyLTAuODk2LDItMnYtNWg0djVjMCwxLjEwNCwwLjg5NiwyLDIsMnMyLTAuODk2LDItMnYtNWgydi0xNUg4VjI0Ljk3OHogICAiIGZpbGw9IiM4NUM4MDgiLz48cGF0aCBkPSJNMjAuNzIzLDIuNTNsMS4wMjctMS43NzljMC4xMzktMC4yNCwwLjA1Ny0wLjU0NS0wLjE4NC0wLjY4NGMtMC4yMzgtMC4xMzktMC41NDUtMC4wNTctMC42ODMsMC4xODQgICBsLTEuMDAxLDEuNzM0QzE4LjczMiwxLjM0NSwxNy40MSwwLjk3OCwxNiwwLjk3OGMtMS40MDksMC0yLjczMSwwLjM2Ny0zLjg4MiwxLjAwOEwxMS4xMTYsMC4yNSAgIGMtMC4xMzktMC4yMzktMC40NDMtMC4zMjEtMC42ODQtMC4xODNjLTAuMjM4LDAuMTM4LTAuMzIsMC40NDMtMC4xODMsMC42ODNsMS4wMjgsMS43OEM5LjI5NCwzLjk4Niw4LDYuMzI4LDgsOC45NzhoMTYgICBDMjQsNi4zMjgsMjIuNzA2LDMuOTg2LDIwLjcyMywyLjUzeiBNMTMsNS45NzhjLTAuNTUzLDAtMS0wLjQ0Ny0xLTFzMC40NDctMSwxLTFzMSwwLjQ0NywxLDFTMTMuNTUzLDUuOTc4LDEzLDUuOTc4eiBNMTksNS45NzggICBjLTAuNTUzLDAtMS0wLjQ0Ny0xLTFzMC40NDctMSwxLTFzMSwwLjQ0NywxLDFTMTkuNTUzLDUuOTc4LDE5LDUuOTc4eiIgZmlsbD0iIzg1QzgwOCIvPjwvZz48Zy8+PGcvPjxnLz48Zy8+PGcvPjxnLz48L3N2Zz4=;" parent="1" vertex="1">
          <mxGeometry x="1054" y="977" width="32.5" height="40" as="geometry" />
        </mxCell>
        <mxCell id="2uXBeAlWbGUg867ojXTd-47" style="edgeStyle=orthogonalEdgeStyle;curved=1;rounded=0;orthogonalLoop=1;jettySize=auto;html=1;entryX=0;entryY=0.5;entryDx=0;entryDy=0;startArrow=none;startFill=0;endArrow=block;endFill=1;fontColor=#050505;" parent="1" source="2uXBeAlWbGUg867ojXTd-48" target="2uXBeAlWbGUg867ojXTd-55" edge="1">
          <mxGeometry relative="1" as="geometry" />
        </mxCell>
        <mxCell id="2uXBeAlWbGUg867ojXTd-48" value="API Requests" style="rounded=0;whiteSpace=wrap;html=1;" parent="1" vertex="1">
          <mxGeometry x="460" y="1230" width="120" height="60" as="geometry" />
        </mxCell>
        <mxCell id="2uXBeAlWbGUg867ojXTd-49" style="edgeStyle=orthogonalEdgeStyle;curved=1;rounded=0;orthogonalLoop=1;jettySize=auto;html=1;entryX=0;entryY=0.5;entryDx=0;entryDy=0;entryPerimeter=0;startArrow=block;startFill=1;endArrow=block;endFill=1;fontSize=43;fontColor=#050505;" parent="1" source="2uXBeAlWbGUg867ojXTd-50" target="2uXBeAlWbGUg867ojXTd-58" edge="1">
          <mxGeometry relative="1" as="geometry" />
        </mxCell>
        <mxCell id="2uXBeAlWbGUg867ojXTd-50" value="Carrinho&lt;br&gt;API" style="rounded=0;whiteSpace=wrap;html=1;" parent="1" vertex="1">
          <mxGeometry x="1384" y="1168" width="80" height="60" as="geometry" />
        </mxCell>
        <mxCell id="2uXBeAlWbGUg867ojXTd-51" value="Checkout&lt;br&gt;API" style="rounded=0;whiteSpace=wrap;html=1;" parent="1" vertex="1">
          <mxGeometry x="1384" y="1298" width="80" height="60" as="geometry" />
        </mxCell>
        <mxCell id="2uXBeAlWbGUg867ojXTd-52" style="edgeStyle=orthogonalEdgeStyle;curved=1;rounded=0;orthogonalLoop=1;jettySize=auto;html=1;startArrow=none;startFill=0;endArrow=block;endFill=1;entryX=0;entryY=0.5;entryDx=0;entryDy=0;" parent="1" source="2uXBeAlWbGUg867ojXTd-54" target="2uXBeAlWbGUg867ojXTd-66" edge="1">
          <mxGeometry relative="1" as="geometry">
            <mxPoint x="1064" y="1228" as="targetPoint" />
          </mxGeometry>
        </mxCell>
        <mxCell id="2uXBeAlWbGUg867ojXTd-53" style="edgeStyle=orthogonalEdgeStyle;curved=1;rounded=0;orthogonalLoop=1;jettySize=auto;html=1;startArrow=none;startFill=0;endArrow=block;endFill=1;entryX=0;entryY=0.5;entryDx=0;entryDy=0;" parent="1" source="2uXBeAlWbGUg867ojXTd-54" target="2uXBeAlWbGUg867ojXTd-67" edge="1">
          <mxGeometry relative="1" as="geometry">
            <mxPoint x="1054" y="1368" as="targetPoint" />
          </mxGeometry>
        </mxCell>
        <mxCell id="2uXBeAlWbGUg867ojXTd-54" value="Reverse Proxy" style="rounded=0;whiteSpace=wrap;html=1;" parent="1" vertex="1">
          <mxGeometry x="1214" y="1228" width="80" height="60" as="geometry" />
        </mxCell>
        <mxCell id="2uXBeAlWbGUg867ojXTd-55" value="" style="shape=image;html=1;verticalAlign=top;verticalLabelPosition=bottom;labelBackgroundColor=#ffffff;imageAspect=0;aspect=fixed;image=https://cdn4.iconfinder.com/data/icons/logos-brands-5/24/nginx-128.png;shadow=0;strokeColor=#000000;fillColor=#080808;fontColor=#050505;align=center;" parent="1" vertex="1">
          <mxGeometry x="1190" y="1243" width="30" height="30" as="geometry" />
        </mxCell>
        <mxCell id="2uXBeAlWbGUg867ojXTd-56" value="" style="shape=image;html=1;verticalAlign=top;verticalLabelPosition=bottom;labelBackgroundColor=#ffffff;imageAspect=0;aspect=fixed;image=https://cdn4.iconfinder.com/data/icons/logos-and-brands/512/187_Js_logo_logos-128.png;shadow=0;strokeColor=#000000;fillColor=#080808;fontSize=43;fontColor=#050505;align=center;" parent="1" vertex="1">
          <mxGeometry x="850.5" y="984" width="33" height="33" as="geometry" />
        </mxCell>
        <mxCell id="2uXBeAlWbGUg867ojXTd-57" value="" style="shape=image;html=1;verticalAlign=top;verticalLabelPosition=bottom;labelBackgroundColor=#ffffff;imageAspect=0;aspect=fixed;image=https://cdn4.iconfinder.com/data/icons/logos-brands-5/24/npm-128.png;shadow=0;strokeColor=#000000;fillColor=#080808;fontSize=43;fontColor=#050505;align=center;" parent="1" vertex="1">
          <mxGeometry x="1540" y="435" width="50" height="50" as="geometry" />
        </mxCell>
        <mxCell id="2uXBeAlWbGUg867ojXTd-58" value="carrinho" style="shape=cylinder3;whiteSpace=wrap;html=1;boundedLbl=1;backgroundOutline=1;size=9.620689655172782;shadow=0;fontSize=10;align=center;" parent="1" vertex="1">
          <mxGeometry x="1524" y="1168" width="50" height="60" as="geometry" />
        </mxCell>
        <mxCell id="2uXBeAlWbGUg867ojXTd-59" style="edgeStyle=orthogonalEdgeStyle;curved=1;rounded=0;orthogonalLoop=1;jettySize=auto;html=1;entryX=0;entryY=0.5;entryDx=0;entryDy=0;entryPerimeter=0;startArrow=block;startFill=1;endArrow=block;endFill=1;fontSize=43;fontColor=#050505;" parent="1" edge="1">
          <mxGeometry relative="1" as="geometry">
            <mxPoint x="1464" y="1328" as="sourcePoint" />
            <mxPoint x="1524" y="1328" as="targetPoint" />
          </mxGeometry>
        </mxCell>
        <mxCell id="2uXBeAlWbGUg867ojXTd-61" value="" style="shape=note;whiteSpace=wrap;html=1;backgroundOutline=1;darkOpacity=0.05;size=16;" parent="1" vertex="1">
          <mxGeometry x="708" y="770" width="50" height="60" as="geometry" />
        </mxCell>
        <mxCell id="2uXBeAlWbGUg867ojXTd-62" value="" style="shape=note;whiteSpace=wrap;html=1;backgroundOutline=1;darkOpacity=0.05;size=16;" parent="1" vertex="1">
          <mxGeometry x="702" y="770" width="50" height="60" as="geometry" />
        </mxCell>
        <mxCell id="2uXBeAlWbGUg867ojXTd-63" value=".html&lt;br&gt;.js&lt;br&gt;.css" style="shape=note;whiteSpace=wrap;html=1;backgroundOutline=1;darkOpacity=0.05;size=16;" parent="1" vertex="1">
          <mxGeometry x="696" y="770" width="50" height="60" as="geometry" />
        </mxCell>
        <mxCell id="2uXBeAlWbGUg867ojXTd-64" value="checkout" style="shape=cylinder3;whiteSpace=wrap;html=1;boundedLbl=1;backgroundOutline=1;size=9.620689655172782;shadow=0;fontSize=10;align=center;" parent="1" vertex="1">
          <mxGeometry x="1524" y="1298" width="50" height="60" as="geometry" />
        </mxCell>
        <mxCell id="2uXBeAlWbGUg867ojXTd-65" value="" style="shape=image;html=1;verticalAlign=top;verticalLabelPosition=bottom;labelBackgroundColor=#ffffff;imageAspect=0;aspect=fixed;image=https://cdn3.iconfinder.com/data/icons/logos-and-brands-adobe/512/97_Docker-128.png;fontSize=10;" parent="1" vertex="1">
          <mxGeometry x="1440" y="1209" width="34" height="34" as="geometry" />
        </mxCell>
        <mxCell id="2uXBeAlWbGUg867ojXTd-66" value="" style="shape=image;html=1;verticalAlign=top;verticalLabelPosition=bottom;labelBackgroundColor=#ffffff;imageAspect=0;aspect=fixed;image=https://cdn4.iconfinder.com/data/icons/logos-brands-5/24/nginx-128.png;shadow=0;strokeColor=#000000;fillColor=#080808;fontColor=#050505;align=center;" parent="1" vertex="1">
          <mxGeometry x="1360" y="1183" width="30" height="30" as="geometry" />
        </mxCell>
        <mxCell id="2uXBeAlWbGUg867ojXTd-67" value="" style="shape=image;html=1;verticalAlign=top;verticalLabelPosition=bottom;labelBackgroundColor=#ffffff;imageAspect=0;aspect=fixed;image=https://cdn4.iconfinder.com/data/icons/logos-brands-5/24/nginx-128.png;shadow=0;strokeColor=#000000;fillColor=#080808;fontColor=#050505;align=center;" parent="1" vertex="1">
          <mxGeometry x="1360" y="1313" width="30" height="30" as="geometry" />
        </mxCell>
        <mxCell id="2uXBeAlWbGUg867ojXTd-68" value="" style="shape=image;html=1;verticalAlign=top;verticalLabelPosition=bottom;labelBackgroundColor=#ffffff;imageAspect=0;aspect=fixed;image=https://cdn3.iconfinder.com/data/icons/logos-and-brands-adobe/512/97_Docker-128.png;fontSize=10;" parent="1" vertex="1">
          <mxGeometry x="1440" y="1338" width="34" height="34" as="geometry" />
        </mxCell>
        <mxCell id="2uXBeAlWbGUg867ojXTd-69" value="" style="shape=image;html=1;verticalAlign=top;verticalLabelPosition=bottom;labelBackgroundColor=#ffffff;imageAspect=0;aspect=fixed;image=https://cdn3.iconfinder.com/data/icons/logos-and-brands-adobe/512/97_Docker-128.png;fontSize=10;" parent="1" vertex="1">
          <mxGeometry x="1550" y="1209" width="34" height="34" as="geometry" />
        </mxCell>
        <mxCell id="2uXBeAlWbGUg867ojXTd-70" value="" style="shape=image;html=1;verticalAlign=top;verticalLabelPosition=bottom;labelBackgroundColor=#ffffff;imageAspect=0;aspect=fixed;image=https://cdn3.iconfinder.com/data/icons/logos-and-brands-adobe/512/97_Docker-128.png;fontSize=10;" parent="1" vertex="1">
          <mxGeometry x="1550" y="1338" width="34" height="34" as="geometry" />
        </mxCell>
        <mxCell id="2uXBeAlWbGUg867ojXTd-71" value="" style="shape=image;html=1;verticalAlign=top;verticalLabelPosition=bottom;labelBackgroundColor=#ffffff;imageAspect=0;aspect=fixed;image=https://cdn3.iconfinder.com/data/icons/logos-and-brands-adobe/512/97_Docker-128.png;fontSize=10;" parent="1" vertex="1">
          <mxGeometry x="1270" y="1264" width="34" height="34" as="geometry" />
        </mxCell>
        <mxCell id="2uXBeAlWbGUg867ojXTd-72" value="" style="shape=image;html=1;verticalAlign=top;verticalLabelPosition=bottom;labelBackgroundColor=#ffffff;imageAspect=0;aspect=fixed;image=https://cdn0.iconfinder.com/data/icons/octicons/1024/mark-github-128.png" parent="1" vertex="1">
          <mxGeometry x="904" y="390" width="40" height="40" as="geometry" />
        </mxCell>
        <mxCell id="2uXBeAlWbGUg867ojXTd-73" value="" style="shape=image;verticalLabelPosition=bottom;labelBackgroundColor=#ffffff;verticalAlign=top;aspect=fixed;imageAspect=0;image=data:image/png,iVBORw0KGgoAAAANSUhEUgAAAMgAAADICAYAAACtWK6eAAAnO0lEQVR4nOyde2wb173nj1yie/4QuqPCuBnsFST21N24aMqk67QxYHl52ExSp3WbtLERX5tFlNuUcXtTOMXm2srednmIJltVm6DOxt04vO7GQug0XicbZ6+zVeoJeLjSRR3UQl3GbVysMyW1vthJ63s1CYSLg65QLUY8tGWFnHNmOEMOqfkAgRFxHoff4W/O6/eIgQ4DUbIfInwjAOAmRSMbAQBx/l8//3c1lwEAFgDgEgDgoqWTiwCA8wCANyw9d7kDXyGih+nrxE0VLbsFIrwNIqwBAG4GAPhlqBUAALV0MsUM+iozSgs+XTdijdI2A1G07CaIcBoivAMAMNiGWzIAwJSlkwIz6CvMKC224Z4RPUagBgJRMgYRvkfRyEO8p+gUJjPoYUsnzzCjZHawHRFdRiAGYhuGopE9EOHvAAA2BHEPjzBuKD+IDCVCBt8NRNGyn1M0chAAsNHva/uIxQz6uKWTJ5hRYp1uTER48c1AIEqqaoY+BQDY4dc128AFSyd7LT1X6nRDIsLJB/y4iJop3q1o5GcAgH/jx/XayHqI8ChEeP3ifKW4OF+NJvIR19BSDwJREioa+SFEeK9P7bHstzp/s1f4nsfKpdoYAGBQ0YjK90hu8HFF7JyZxzuYUXrbp+tF9ACeDYQPqf6uxdUp+8d/ytLJFN/ou+D2AoqWXQ8A2AIR1iDC21pcFLDnJrvMfOq1Fq4R0UN4MhCIkterGap7fHvbw5iTfH/iNb8nyYqWvZHvt4zaQygv7WMGfdDMp57xs10R3YlrA1EzRfttfdLDj295iZUZ9AlLz11ye1+38OHfHojwmJdehRn0ITOfejKY1kV0C64MhBvHFPeTkmWR7z081om9B74ncy9E+FH7K7g5NzKSCGkD4cOqGZc9xxlLJ/dbeu7X3prnHxAlFUUj34MIP+jmvMhI1jZSy7x8Qj7j4g1s9xr//vKJ0a8vzE6+01oT/WFxvsoWZid/CgCg3EnyQzLnxQbi2yDC5xdmJ98KvpURYUNoIPZYXs3Q0y52xk1LJ7dfPnHf8cX56p9ab6K/MKNUZQZ9rn/TaEJ2bhIbiH8eAPA/mVEKhbFHtA+hgazfefSp2ED8S5LXO2fm8daF2cnftt604Ficr/4zM+jx2ED8w7GB+GckTvkgRHgbM+ik3RO1oYkRIcFxDqJmindDhF+UvNaMmcd3dFsMhpop/juI8OOSh79YGevbGXCTIkLEumYfQJQchAgfkbxOVxqHjZlPPWFPxCUP36FminsCblJEiGg6xBo8UPmxpG+VPay6tRuNo87C7OQbEGEYG4iPiI6NDcT/LTPos/YwrT2ti+gkDYdY3GV9SuJ808zjT7nd34AoqSoa+RpEeDuf/Cv2tfiy8Iv2/KATEYDx8aWfAAB2SRx6pDLW9/U2NCmiw7yvB4EoGVu/8+j/kNjvWLR0crvbCbmaKe5TNHIyNhDfxl1VIP+o3zYWiPBX+jeN7gYA/IYZpd+5+jYtwgz6Wv+m0S8BAP5McKjds56MVrV6n/fNQRSN7JFZ0mUG/Y6l595wczM1U/whRPigxE78BkUjenx86VmIkl78qTxhDxMtnezi8eyOKBqRndhHdDHX9CDcLeO/AQA+LDjvzOUTo193s8/BV4v+g8v23dS/afQvIcK/X5id/JXLcz3BjNIfIMIsNhC/XXAoAgBMMaP0D+1oV0RnuKYHgQjfI7F5Zg+t7nczR7DnHNwXygvrIcJH4+NLRUXLtiW+3dLJkzzXliOKRsba0Z6IznFND6Jm6H8FAPwrpxOYQf/L5RP3Tbq5yfqdRw/EBuKf9dpIThwinIEIg8X5ys+D3KXn1/4Nd5l3wjbY55hRsoJqS0RnudKDKFp2k0TwE7N08pjbm/DVKj+Adk+kZuibipa9xadrNoTHqZ8SHBaDCD8QZDsiOssVA4EIp0UH1+I5PLms3+DhHCc2Kho5o2aKT0OUVHy+9hUsnRDRMTK6RXQvKw1ElI1kkRn0CY/3EaUWPcsjDV0BEd6rZuhbaqZ4t8d2OWLpuVkAwIzgsEFFy24J4v4RnWfZQPgDFoXPngwqEtDSySFLJ/bw7oyH01WI8Ivx8aW/gyjZKNl1y20THSPxconoUpYNhCc7cMTSSSHIhlh67ldmHm/lflFe3Fa223MTNVPcB1HSt6z1zKCviNrj4xwrImTUDUQTHLfADBp4pg9mlBbNfOpJM48/bvdYHi7RDxE+qGboz/migx9tYhJt2aBoWd97r4jOsw6iZL/E6tWpdqboZEbpUmWs78vMoDt4HRC33Mwn8f+Jf7+WsHQiY6zRPKQHWceL1zgOSXjeqrZj5lMvmXn8SWbQQx4m8TGI8MN82PWFVtrBDPq66BiIcCez10cEhD3EukniOFc+V37CjJJl5lPfsnQyIrO73YA4RPhUfHzpBERJV1lNVrYBAHDO6RiIsIyOEV3GOl72zAnLS8ZDv7H03Bs113o6JuNM2IAdvDfxOhQ6K/g8zNnsIzyyrkkdwJV03Djq8En8D/gkXvdwifUQ4SlFy37C7YmWTkS9l+rHfCciXHSVgdRhRqlSGeu7jRk0zRNcu6Ff0chRD0vBF0UHQIQ9DeEiwss6UWwGz7IeSsx86piZxx8DABx1eerNEOE7XZ5TlTimHbUXI9qITA8S6tLK9gS6MtZ3n6UT7Ka3UzQiE1q7EpnNy3/h8poRIadpVpMVdEUyBkvPlfgk/lHJJWFhgoaVMIPK7MdEQ6weQ8ZAugZmlJiZT33X0skNEkvCLhNZR2Wk1yI9ZSCgFr3YzwOdRMuu0Q8+QojMSo5vjn9Bo2aKX4AIH5KYVwG3q3OKlpXpcbpiOBohT4xPwp0yh4R+ZQai5CCvsHuX7DnMoG73UWT2OP7R5TUjQs46XjizKbxgZiiBKBlTM8V9aoa+5cY4ePCXbFrVOjIviig2vceIcW9Zp2whoXTjVrTsLYq2HMzk2kmwVvHKdVGfj0ocE3hpuYj2EuM7xNjhGL/jyVtiRaWovR7nRzOWTv7a/X2xaNK/YOm5UO8ZRbhnnaUTkQvFIC+13HHUTPEeezjFy6h5MY4jPAu9a2dHCW9doStKRPcRk3Qh3wIAeKUN7WkIRMm4mqFPAwCEocFNuGjpZK+l54RxHU3ub+u0WXCYF1f8iJCzTibWQyIkNxD4JPxv+CTci3EwZtBHzTz+pFfjqLUD3yLhsyZyh4/oQtbxcbOjQ6JMUge/UbTsFjVD3+QpS6GHS1BLJzeZ+dR3Ww0Xlvz+pVbuERFO6jvpoj2BDYqWvbEN7bF7jfXx8aVnFY3MeAxCuswMmq6M9aUsPedLrUSIsMix0bL0nGPEYUR3smwglk6Em2btyCCoZor38uGUKCduM+xJ+MfMfOqYX23iKU5FSbM7ErMfETzLBsIM+qoojBUiPApR0stQRwhEeGN8fGkaInxUonBPI85bOhmpjPV93e9E0opG9oqOsXQiyuEb0aVwA1muLyh6C67nxXV8ByI85tb9nGNPwsfMPP6Upef+3v92LSd5EA2vGE8uF9GDXPHmlcmcaP+QPWYtDGKHecrM44+b+dQPgnJFVzRyQGKB4GQ3FzCNcOaKgfC3oChz+wZFI/d6uA/1cE4zLjGD7qiM9d3BjFJg4cC86I/M8MqtT1dEF3GlgM7ifPVPEOH+2EDcye0ExAbin2EG/fHifNXN0uk/+zDJX2QG/c+XT4zeY+m5X7Z4LSGDBypPSfh5nTfzKdduKxHdwzUBU5ZOnpHIOaUqGvmem5tYeu41j2l66py1dLLZzKe+3Y5qToqWTcqspDGDRoU8e5xrSrAtzlcXIMLrYwNxR7cKuxexh03MKMlk+liGGfR0/6bRtGRcRR3LnoRfPjH6wMLsZFuKZUKU7F+/8+jPeO12Jy7a7QqyFFxE5+lb/Qd77M33IkQ/kEu1JAklaQ9W7lP1smS60xfNPLZ7jLa6kMfHl56V7D1GzXzKVa3GiO7jA6v/wHuRmETRzQ/1bxpNMIMel32LLs5X7R7hx7GB+D/FBuI32NdocNiMpZOMmU99f3G++p70N/EBNVP8WmwgLlOq+uylH3zkr9rQpIgO874eBNTe9FDN0F/KuHowgx4y86lvebm5omXtnuR6vpRq90Szlp7zUgOxZdRMMQkR1mXc6O35kKXnOpbQO6J9NDQQwCeqikaklmeZQR828ymv9Qs7jqJlN/HvKpwftfJCiOg+3jfEqmNPwPmE/TOii8QG4rdDhK2F2cmue6ty4zgFAPiwxOH2xHzn4nz1j21oWkQIaGogYHnOUCn2bxrdLpNkLTYQ3wYRhguzk57jLtqNPazq3zT6M0njWLR0sm1hdlJ65S6i+2k6xKoDUfKjaoaelVjVqvOCmcdfD7v7hT0hhwgflg3dZQZ90MynfhR8yyLChGMPAmorT/MQ4XOxgfguyUyMN/RvGv0SAOB/MaP0B3+a6R8QJfsHD1Se4atVUpklmUGPmPnUd4NvXUTYEBqIzcLs5NsQ4d/HBuKy5Y7/DCL8lxBhtjhf+UVYNtMULZvkm4CO7jSrmLp8YnRPWL5DRHuRMhBQM5JZeyJuzzUkT4nZk/f+TaNfAQD8xs2uu99AlFQHD1SegggfdDFUtJkx8/jOdlb4jQgXwjnIamqF+pd/aG45aenkUUvPzXo41xO2YSgaOcC9ct0Ge83wFEGhnktFBItrAwGtGQngO+WHmEFfCerNzLMu7uXBTl6iIKfMPN4ZGUeEJwMBNSO5m4fIei1cucB7lZPMoK+34qULUTIGEb4FIryNJ1gQxZA3xZ6QWzr5RlQPJAK0YiCg9qa+UdHISZ/y957jbu3neZZCe86ywAx6qf5j5SUI+nki6Y9ChDfyjIebWzDUOovMoA9FS7kRK2nJQADPlatm6N8CAHb406SOcNHSya4g5kfcqLdAhDfz/L4beGKK1ckpLvGIzovMoOeZQc8wg76xloZ5YdSqZQOpo2aKe/i8JBR5fGVhBj1k6eQRP8VVtKzds9l63NVi8m/G52wvMIO+1I5gsXYTdq18MxDAk76pGfp9AMD9fl43IOzh3IN+euUqWvZORSMPe8zQIsL+ARQsnRz0ULohdHSLVr4aSB0+N3kcANCRnL4CLtby9foX7KRo2c8pGhmXDATzA/vh5yw913UZ5btNq0AMpA5fbh0DAGwPQa1De6z6uKWTY36tUPHSb0/z79dulhNzWzoJLO2Rn3SrVoEaSB1Fy8Yhwg/wzCbtrHnI+FLykVayuzdCzRTv4c6Obnbmg+Ccmcc7mFF6u8PtaEo3a9UWA1mJomW3QIR3QIS3t7Jf4YA9OZuydHKKb0b6urIBUTKmaOSHvIhPWFhgBt1l5lOvdrohK+kFrdpuICuxexYAwBY+WfMyJl3geybneX2OUpBZ1iFK9qsZeqKFQj5BssgjO5/sdENAD2nVUQOpI5NJhBmUMIOe56WW7V7iUjtrAvIH/tMWV11s471g6eTCqpos/RDhQb72v1kmQK0ZfLOzo0bSS1p1jYHwEmrPtK9VV6lVuqKnXbrJ29gTQt3SSYEZ9DXZFEl8b+BuPmdzXSOlk0bSa1p1jYHYk+3KWN+X29Ska4iPLz0HAHCTOnWRLy8+1upSrKJlb1U08h2XPzh7CHFXJ+YkvaaVVERdSNgGUbLtqyBqprjP5QOnlk5uqIz13efHPoWl516vjPWl7Imliyz5MYjwCxAlZWq7+0YvatVNBgI9Zpb3jKJlb4QIy+bfXXZ29LP020rMfOq4mcefAgDIFuux5wEveixX4Zpe1aqbDKRenySQKlfvv9fyEuVRyQ3OBWZQLehxvz0ur4z1fZEZ9FHJU25SNPI3QbYJ9LhWXWUgPLN8W1J+Khp5QHLp2bJ0MmLmU22rclur3EsfkjnWfqkoWjaI/aYr9LJW3WYg9pf4DkTJQHfj7bkOLz8tgjGDbrf03K+CbE8j7Dew5NsRui1X4YZe16rrDMR+YakZ+myQY2tFI/tk3CKYQfea+ZTvtRFl4amIZMbZuxQt+4kg2tDrWnWjgdhoikayQVzYnuPIlF4DABTCUP7AzOP7ZFZsFI1IDTPcsBa06lYDWR5q8WVFv697p8TurGXm8bf9vrcX7MkoM+jDEoem/V4mXwtada2BgNoDOui3kSgaEQZ71dxe5AsHuaW2G13cFx9f+ml8fOmt+PjSCUXLbml2vJlPHZcolGq/7e/2s51rQauuNhBw1Uj+1o85CUTJ9RK7sCav5RgI3I/pNA9f3sbdJ3YoGqFqpvhAs/MsnQgnoYpGRDXf3bRzTWjV9QYCakZyv5qhv1C07I0tXudW0Vo+M+iRoPJ5rXDya/TDi9k/BEXLNlzB4/EuFwS3GLHv4U9b14ZWPWEgnJsUjZxVM8WnIUp68vBUNCL04WEGDWSyKekBCwEATYdJzKAF0W0gwrd4b+VV1opWvWQggL859qoZ+rv4+NJzvJyzGxyr+9biTvyPA3fpHt50os0M+pL4Xlj0HWVZE1p1Ok48KOy3R1rRiP3fZe5GfYZ3q29zD9JGOKadYQZtpdZ744a6j51oOjSw9NwFRSOm08oST7TnB2tCq24xEMoMeg4i7GUtf31t86f1CSozlgsJOaJo2Rv4Pc+LAro8PPBLzKCvCI6xXwR3OXy+Iz6+tCR5P8/0iFbxbjEQYOZT31YzRQsiTDrYjKaepzyDy5GVb1ZFI02rbXl44AuWTnaIJr3MoBcgchurFAi9oJXaVXMQM5/KMYNu5yG3naDhW07RshsUjegNhh277Ae7euXIywNnBt0mk+SOGVQ2DiJoekGrwa4yEFAzklfNPP6kC19/37D0XKXR37mbdLPl05GVD97rA3fhxxSKXL69olXXGQiouQxc4r7+biLHgkS0orP84BUtqwb8wLuBrtKqKw2kDo8c+xj39w/cUBQt2ywxt0y2vhFFI7/r9ANvF72iVVcbCKj1JszMp5408/gj9sQMAHBS8iF4odlDn5E8XzYaspUH7ketFj/oBa2srjeQOswoLVp67qXKWN+XzTwesPTlZd3DPL+SXwbTMLDfzOPHeL0KP2jpbahoxHXqm4DoBa3MrlnmdQMzSgvMKB239NxxcLVE2wa+KfTnzXyIeFx1U2qbbLn3pYex50RmHmM1Q2kricx8GiqIHvpZSyeHWrj+MmtEq4vdkheLVsb6Um1ox+8E3a5eGeu7rdmHECWvb+HBt/zAeX2WPzgdwwz6uJlP/bXXe9RZK1r1zBDLJ0R5fR29YZlR+q39dvQwhPBlkgkR/pzoGGbQM63cYwVrQqvIQFZg6aTloCMPD963FRhFIzJJ23xZ6VkrWkUGci2viQ5QNCJM5e/iwfv4wJfT1Ygqep239JxfE+Q1oVVkICuw9NwFXk7BiZtl3OglHrxp5vHNfq3d8x1qUQDTST/uBdaQVpGBrIIZ1HF1BtQElkqxueLBr/ZsvWD/3f7cc0OvaU/2epmcuMygx/y434rr9bxW0SrWKhQtO8h3cUVvmAfNfOpHLq57M98beNvSc0JXcDfEx5eKEvHhM5Wxvq1+3nctaBUZSOP2yKTwX7B0srnTJZnVTHEfT1rgiKWTuyw9J4qPcE2vaxUNsRpg6cvDAtHue7+ikRf9SoLgBTVTTEpmVD8XhHGANaBVZCAN4PljRUH9NhsbxTC0A0XLfgIifEomo7qlL5fiDoRe1yoykCaYefyIZGDWSLsfvJopblE0MuMQV7GSU5aeEy7JtkIvaxUZSBOYUTJl0+bzB/+LoBJEr0TNFO+FCOuSNcctM4+/EXSbelmryEAc4AmXZfcONioaOaNmioHUL4Eoud6eEEOEj8q6gjOD7mVGqS0BZb2qVWQgAsw8/qpEFr46/RDhQ/HxpV94yMnVEIiSUM0U96kZ+r/d1P9jBj3E89C2jV7UKlrmlaAFz9Nl13Jm0JcaZetwQtGyGyDC9hDhfg/3nTLz+IvMKAUVONaUXtMqMhBJeKoaXXKytxoGAJhhBl3O78WT112u54LiOWTtB3s9RPhmiLAmSszmwIyZx3e4/ZH5SS9pFRmIC/iDP9lioE+QdNw46vSKVtEcxAWWnnuD+wvJjrPbScHM41QYjAP0kFaRgbiEO9V92sWKTdDUa45/tRNzDid6QavIQDxgv3kqY31fZgYd7WCWR1BziyA3B11zvBW6XavIQFrAzKcmzTz+OADgaICphhph1Txk8ac7UVbZC92qVWQgLcKMklkZ67vPfjtxn6QgH/5lZlBi5vFHzHzqR2EbUonoRq2iVSyfUbTsIF+Tt7/PBh8uaT9YaunkKN8jCKSkWSfoBq0iAwkQRctuBAB8jpcru0ky66H9kM8DAM5YOqHMoK8HWSU2LIRVq8hA2ghEyX6IcJyn5bxuhZ+QPXl9FwBQaZYVfa0RFq16MrNiWOEZH893uh3dQFi0iibpEREORAYSEeFAZCAREQ5EBhIR4UBkIBERDkQGEhHhQLTM20bCsrbfDQwlkv1DCWetZgrRPkhX42V3WNHImtxJH0nXtNqaltdqa/qqVtMFQufK9PW5crSTHmoC9C86wgz6Si/5Yo2ks4NDCXzvcMJfraYL5Mhcmb4yV+4dX6ynAABOtSQuVsb6PtbGJrlG0bI3Khp5GACwK8Ce2WQGPWzp5ElmlDoZW9ESI+nsjVvTwWtVLdPDMwXy5FzZu1Yf8LdNnknw4PtmfIgZ9PuL89U/tbFNUkCUVAcPVJ6CCB/iQ4MgFz76YwNx3L9pdC9EeGFxvvLLMGrSjKFEUv3mZOWp4UR7tFKui+PEbaN7hxJ44d13Kr989x33WoXCQCDC9rBkh8Mh6xbnKyeYUfp9G5slRM0U71U0cgoAsLnNK4IwNhD/fP+m0S/Z429mlN5p4709sXuieO/WdGe0Uq6Lfz5xW02rubI7rcKyzCtTHGVLG9ohBUTJ/vj40ss8c59MWsuguEnRyFk1U9zXwTY4MpRI9j8ytfTycKLzWm1Nk7O7J9xpFQoDYQY9z/MhNYWvBHUcnhjtFwCAuzrdFk4MInywlmozGapVyaFE8vo9E+HSajiBDz4ytfTcUEJOq5AYyHI4pKg88XaIklJ5VoNC0bK38KyBogL0nSCtZujpTtbgWMlIOnvLnonwarVngp62ezfRgaFYxQK18XwWIkycjrF0ssPScy+1r1VXCThbYH1DrCcyK9rGsTXdmlbVMqVz5atazRRqWo2kr2o1lMA3Dyda0+rYfnzHXDnkmRXB1R+gqBfpyH5Ir+WbDRI+rPKk1XSBHJor05ecfrCNGElnN/D9FE9aHduPvzhXDnFu3jrx8aX/AwAYdDrG0slN7Ux1Yw9Z+JzDzVDBNoyHLT1X8uH+UNHIA7x3lZ7k8ozl32r1/m6whyx8zuFKq+kCeXim0LpWQ4kkHEmTB4YT7rSqlumh5/c31ipUBqJmit+DCH9HcJheGeu7rU1Nso32ZReTzAVm0DE3FV1lgSi5Xs3QH7pM67+rnSUQHplyp1W1TMee3++/VkOJ5Po9E+60qpbpruf3v1+rUEzS6zCD/lgiV5KmZopfaEd71EzxXhcP/IKlk81BGAeoLWRcrqXMXM5QKOVCARE+DFHSsUf2i90T7rSaLpDNQRiHzVy5dPn72/q+Wi3LazWcwIeHEu/XKlQ9CJB/Y18y8/iTQbpbQJRU1Qx9S7KrbuvEWM0Ut/CilDJtO1UZ6/tikO0ZSiTVPRPyWokmxn6ye6K4ZTghr9X3t12rVSh20ldxASK8V3DMh/o3jcaDXNEaPFB5iu/6imj7qtHC7KQ9V5uCCNtDiA8KDv/XfLf97aDa881Jea3aaRw2b56uaTWckNdqrnxVq1ANscDVssIy2cB3BbWDrGjZGyXHrxc6taRq68QMul0mfaeikfGg2jGSlteq3cZRZ6aQ+1W1LKfV1vS1WoWxB7GZhQhnRJ6esYG4BhH+zcLs5Ft+3lzN0Me5M50TC5ZObl+YnfwHP+/thoXZySpE+L3YQHyb4FAVAHCOGSUZlx5X7JmQ02q6QG5/83TntHrz9GR1KIHfU66T02quXNMqdD0IqL0dLzKDyrz1YhDhF9RM8W6/7s1LfO0SHccMOmbpuV/7dV+v8HT+VHQcd8X3lZG0nFbVMh2bKXReq+f3y2nFXfGXCaWBgNp+x2O2JUscWjeSr/lxX4jwvRIxCmeDWq3ygqWTvRLDhxEe4egbQwk5rYJarfLCdEFOKx7hGF4DYUZp0dKJPbaVGbPaRnJEzRSfatVfi0cCOmLp/r+NW8HSc7/l5QQcgQjv8fO+PBLQkelCuLSaKchpNZSoaRVaAwG1B/9rZlDRitYVIMIPqhn6c0XLbvJyP/6GFYV+nvVjh9xveI/r+GaECPvmVcvfsEKt/Ngh95vpglir4URNq1AbCKiNsY8xgz7q4pSbFI2cUTPFpyFKuvXL+ZzoAEsnh1xesy3Y8zYAgC447AZFy/pVdVao1XQhnFrNFOS0Gkln1dAbCKgZyXeZQY+4OMUecu1VM/R3aqb4Q9mxt0TMCWMG7Yg3sQyWToRDB78Cz3j2ESfYXDm8Wk0X5LTqCgMBtYf/DQDACy5PgxDhhxSNvBUfX5pWM8V9AmMRLVfOhKXMciOYQV8THQMRltnQk0GoVSf2PGSZK4u1GkrgzaGKQHPCnrRXxvr+Qs0UTftH7+ESIxBh+z+7p7hc212mF5lBTbuT4sc45mJiBhUuEQLuVTqUwEm+pm7OlWnJbQqaoURS5deAAIDZmUJOWCuD58865/TjhQi7WskaSWfXc11Wxnb8uUirallOq07B82c5ajWcwBu7xkDqmPnUt9VM8QLPIuK1/etrEYrY/sFIn8SDnRzhwUIvrnLbvzRdIDtmCrk3ZO6ze6J4gLtsX1mR25omp47tx38h8Va+IHi7S+Wf4v5VzwIARBtrDeHBTmFHqFXXDLFWYuZTz1j68hi43Wk6Hf2Z7B/V1jSZahDTMmj/3f5cdIPdE8U9wwk8vtI4ONv3TNCfiM63dHJBcIiwDTyuo+jVODiB+X75xXRBrFVXGgiordr8vZnHn+J1t9uFY1rLkTT5KwevUYV/7gjvOZqxfSSdFYWXil4aQq9W3s5WNxW7IV2qUKuuNRBQG3NbvO72iOSue0vUY8ibMZxwngCLPueZNkRDIE97PG4YTuCRVq9RjyHvdrraQOrw3uTTPJjoYgebIpofOH7O46JFbhA9k5u3G+gJAwF8lcvMpyYrY30fs3RyFwBgSsa92Q08+0hTqmU61crnHKfVHzZXpqKd6ZbT/lTLdKbVa/DsI2FHqFXPGMhKLD33SmWs7w5LJx9hBn2I75r68eZd7/ThTIH82P6n2cf8c0e471LDnqZapmSuXDKdzocIi0JsL4naMFMgP+IrPK3gqFUYGEqItepJA6lj6blLZj71ZGWs7zYzjwcsnWDuaHiU/5ArLg3neqcP7SHSsf34jmqZHlzxI1+w/58HCwl7tJlC7lfTheU5lb6iB7xYLdP08/tTPxCdL7HP4Whg/HssHNuPU7wX9oqjVmFgOCHWKnQx6Z0kPr70/5z2VphBD5r51Lfb2yp3xMeX/q9gKffFyljfTtnr8Y1CZeVwda5MrT0T9A9OWtkvhef3h1urR6bEWnXdRmHAnBfsQjuVaOg43I3GcZ9DZrNzJXw1qtGKlKNWPONhaOHeyI5aVcv0XE8PsTwgyux4g6Jl/aiEFAgQYWFkJTOo6DvKItRqJB1erYYSYq3myvRMZCArsHQi9B/iEYehhGc5cYIxg0q5u4iYLoi14hGHoYRnOXGCzZXpG5GBrIAZ9HWJoKP7O51lvhGKlr1VYvfbN2/kubJYq+EEvn8oET6tRtJyWs2VSwuRgayAe8OK3oyqopEH2tQkaRSNiFK22j2k23CBpnBvWKFWI+nwabU1LdZqulDTKjKQVVg6Efp2QYQJRMnQrPOrmeI9AIC2B3tNF8RaDScwGUqER6vdE3Ja1YO9IgNZBf8RifYKFJ5IuuPYhgoRflzi0ILfqVr5j0ioFU8k3XFsQx1OyGlVr4wbGcgqmFGy37SHJQ5N8+TWHUXNLMdsCBNUWzo56Pe958olVi3LacWTW3cUHt8i1Gq6cFWryEAaYOnkSfsf0XEQ4cNqptix4qJqpvg9AMB2iUNfCCrJ3UxBTqvhBD68e6JzWu2ekNdqZZK7sKYe7SiL81UGEV6IDcQ/Lzg0FhuIfwUAMNXuUsxqprgPIvwfJQ5llk52MqP0T0G04913qmwogReU68RaKdfVtHJbirlVdk8U9w0n5LSaLpCdc+WrWkU9SBMsnTwjGWOiKBqZUTPFZBuatQwvNCQ1ZGIGHecpgQJjpiCv1dY0mdk90T6t7J5jOCGnVbVMx3lKoCtEPUgTFuerfwIAnOE1AkUvkg/GBuJpiPB7C7OTvmzENcKekA8eqByPDcTvlzzl3OUTo1/l3yUw3n2nphWvESjUSrkunh5K4PfePB2cVvaE/JuTlePKdfJavfrE6Ff5d7lCZCAO2MMmyezpNuvs43hurTPMKP2jn21RM8V7FI38dwDAzZKnLJh5/Fm/29EMe9gkmT3dZp19HM+tdWau7G8bd08U79madqfVsf34s43aEXnzShAfX3rOTb07vsNcsHTyWKvDG0XL3so3AeXTrwCwyAx6l5lPvdrKvb3wyJQ3raYL5LHVwxu3jKSzt/JNQFdaVcv0ruf3N9YqMhAJIErG1Aw97VJ4wB++bumkwAz6Gt+pF6Jo2Y0Q4bu5b5Xr5AnMoA/xsghtZyiRjO2Z8K7VdIEU5sr0Nb5TL2Qknd04lMB3c98q11pVy/QhXhahIZGBSMLLQf/UfiYtXOYcL/Z5YVVGjX6I8CAPdtrsodb3FTppHHV42iBftOKpea7RaiiBB3mwU0taiYwDRAbiDm4kJ1rMFxUU9rDq4U4bRx1uJKHVqlqmD4uMA0STdHcszlf/yAx6PDYQ/3BsIP6ZTrdnBQvMoDvMfOq5TjekzrvvVP84V6bH/+V18Q8r14VLq2qZ7nh+v5xWUQ/iETVTvAcifFiyvHCQnDPzeEeQVWxbZfdE8Z7hRDi0OrYf71hZxVZEZCAtAFFyUM3QpyVdGPyG1TYByWPMECeD6DRDieTgnonOaVXbBCSPySTOWEk0xGqBxfnqe5ae+wnfULyhlQmjS16wdLLz8on7Xg56E9Av3n2n+t5MoabVcKK9Wk0XyM5Xn7jv5dWbgDJEPYiPKFr2Tl5NtuXUnQ1gfG/lYBiq67bKSDp7J68mG5hW0wVysNXqupGBBADfx9jDawKKkk07YT/oGUsnLzCDvuR3PEcY4PsYe3hNwJa1mi6QF+bK9KV6PEerRAYSMLwm4BaI8Ga+z7GBDy9WT1gv8eCjCjPoOWbQM8ygb4S5opXfjKRrWg0l8Ga+zyHUqlqm5+bK9Mxcmb4RREWr/x8AAP//mC6b1mgHT/IAAAAASUVORK5CYII=;" parent="1" vertex="1">
          <mxGeometry x="1150" y="370" width="60" height="60" as="geometry" />
        </mxCell>
        <mxCell id="2uXBeAlWbGUg867ojXTd-74" value="" style="shape=image;verticalLabelPosition=bottom;labelBackgroundColor=#ffffff;verticalAlign=top;aspect=fixed;imageAspect=0;image=data:image/svg+xml,PHN2ZyB4bWxucz0iaHR0cDovL3d3dy53My5vcmcvMjAwMC9zdmciIHhtbG5zOnhsaW5rPSJodHRwOi8vd3d3LnczLm9yZy8xOTk5L3hsaW5rIiBlbmFibGUtYmFja2dyb3VuZD0ibmV3IDAgMCAzMiAzMiIgaGVpZ2h0PSIzMS45Nzg2Mzc2OTUzMTI1IiBpZD0iTGF5ZXJfMSIgdmVyc2lvbj0iMS4wIiB2aWV3Qm94PSIzIC0wLjAwMDYzNzUyMzgyOTkzNjk4MTIgMjYgMzEuOTc4NjM3Njk1MzEyNSIgd2lkdGg9IjI2IiB4bWw6c3BhY2U9InByZXNlcnZlIj48Zz48cGF0aCBkPSJNNSw4Ljk3OGMtMS4xMDQsMC0yLDAuODk2LTIsMnY4YzAsMS4xMDQsMC44OTYsMiwyLDJzMi0wLjg5NiwyLTJ2LThDNyw5Ljg3Myw2LjEwNCw4Ljk3OCw1LDguOTc4eiIgZmlsbD0iIzg1QzgwOCIvPjxwYXRoIGQ9Ik0yNyw4Ljk3OGMtMS4xMDQsMC0yLDAuODk2LTIsMnY4YzAsMS4xMDQsMC44OTYsMiwyLDJzMi0wLjg5NiwyLTJ2LThDMjksOS44NzMsMjguMTA0LDguOTc4LDI3LDguOTc4eiIgZmlsbD0iIzg1QzgwOCIvPjxwYXRoIGQ9Ik04LDI0Ljk3OGgydjVjMCwxLjEwNCwwLjg5NiwyLDIsMnMyLTAuODk2LDItMnYtNWg0djVjMCwxLjEwNCwwLjg5NiwyLDIsMnMyLTAuODk2LDItMnYtNWgydi0xNUg4VjI0Ljk3OHogICAiIGZpbGw9IiM4NUM4MDgiLz48cGF0aCBkPSJNMjAuNzIzLDIuNTNsMS4wMjctMS43NzljMC4xMzktMC4yNCwwLjA1Ny0wLjU0NS0wLjE4NC0wLjY4NGMtMC4yMzgtMC4xMzktMC41NDUtMC4wNTctMC42ODMsMC4xODQgICBsLTEuMDAxLDEuNzM0QzE4LjczMiwxLjM0NSwxNy40MSwwLjk3OCwxNiwwLjk3OGMtMS40MDksMC0yLjczMSwwLjM2Ny0zLjg4MiwxLjAwOEwxMS4xMTYsMC4yNSAgIGMtMC4xMzktMC4yMzktMC40NDMtMC4zMjEtMC42ODQtMC4xODNjLTAuMjM4LDAuMTM4LTAuMzIsMC40NDMtMC4xODMsMC42ODNsMS4wMjgsMS43OEM5LjI5NCwzLjk4Niw4LDYuMzI4LDgsOC45NzhoMTYgICBDMjQsNi4zMjgsMjIuNzA2LDMuOTg2LDIwLjcyMywyLjUzeiBNMTMsNS45NzhjLTAuNTUzLDAtMS0wLjQ0Ny0xLTFzMC40NDctMSwxLTFzMSwwLjQ0NywxLDFTMTMuNTUzLDUuOTc4LDEzLDUuOTc4eiBNMTksNS45NzggICBjLTAuNTUzLDAtMS0wLjQ0Ny0xLTFzMC40NDctMSwxLTFzMSwwLjQ0NywxLDFTMTkuNTUzLDUuOTc4LDE5LDUuOTc4eiIgZmlsbD0iIzg1QzgwOCIvPjwvZz48Zy8+PGcvPjxnLz48Zy8+PGcvPjxnLz48L3N2Zz4=;" parent="1" vertex="1">
          <mxGeometry x="543.75" y="420" width="32.5" height="40" as="geometry" />
        </mxCell>
        <mxCell id="2uXBeAlWbGUg867ojXTd-75" value="Pagamento&lt;br&gt;Application" style="rounded=0;whiteSpace=wrap;html=1;" parent="1" vertex="1">
          <mxGeometry x="1386" y="740" width="80" height="60" as="geometry" />
        </mxCell>
      </root>
    </mxGraphModel>
  </diagram>
  <diagram id="rAOmzzKP0z54JkOAslGn" name="Page-2">
    <mxGraphModel dx="9560" dy="5373" grid="1" gridSize="10" guides="1" tooltips="1" connect="1" arrows="1" fold="1" page="1" pageScale="1" pageWidth="3300" pageHeight="2339" math="0" shadow="0">
      <root>
        <mxCell id="0" />
        <mxCell id="1" parent="0" />
        <mxCell id="RKVwzYxyCM7aZtSniW9r-1" style="edgeStyle=orthogonalEdgeStyle;curved=1;rounded=0;orthogonalLoop=1;jettySize=auto;html=1;entryX=1;entryY=0.5;entryDx=0;entryDy=0;entryPerimeter=0;dashed=1;exitX=0.5;exitY=1;exitDx=0;exitDy=0;" edge="1" parent="1" source="RKVwzYxyCM7aZtSniW9r-46" target="RKVwzYxyCM7aZtSniW9r-250">
          <mxGeometry relative="1" as="geometry" />
        </mxCell>
        <mxCell id="RKVwzYxyCM7aZtSniW9r-2" style="edgeStyle=orthogonalEdgeStyle;curved=1;rounded=0;orthogonalLoop=1;jettySize=auto;html=1;entryX=1;entryY=0.5;entryDx=0;entryDy=0;entryPerimeter=0;dashed=1;startArrow=block;startFill=1;endArrow=block;endFill=1;" edge="1" parent="1" source="RKVwzYxyCM7aZtSniW9r-92" target="RKVwzYxyCM7aZtSniW9r-241">
          <mxGeometry relative="1" as="geometry" />
        </mxCell>
        <mxCell id="RKVwzYxyCM7aZtSniW9r-3" value="producer" style="edgeLabel;html=1;align=center;verticalAlign=middle;resizable=0;points=[];" vertex="1" connectable="0" parent="RKVwzYxyCM7aZtSniW9r-2">
          <mxGeometry x="0.0585" y="-1" relative="1" as="geometry">
            <mxPoint x="0.08000000000000007" y="-0.8099999999999998" as="offset" />
          </mxGeometry>
        </mxCell>
        <mxCell id="RKVwzYxyCM7aZtSniW9r-4" value="producer" style="edgeLabel;html=1;align=center;verticalAlign=middle;resizable=0;points=[];" vertex="1" connectable="0" parent="RKVwzYxyCM7aZtSniW9r-2">
          <mxGeometry x="0.0585" y="-1" relative="1" as="geometry">
            <mxPoint x="64.5" y="324.9" as="offset" />
          </mxGeometry>
        </mxCell>
        <mxCell id="RKVwzYxyCM7aZtSniW9r-5" value="producer" style="edgeLabel;html=1;align=center;verticalAlign=middle;resizable=0;points=[];" vertex="1" connectable="0" parent="RKVwzYxyCM7aZtSniW9r-2">
          <mxGeometry x="0.0585" y="-1" relative="1" as="geometry">
            <mxPoint x="584.2" y="314.89" as="offset" />
          </mxGeometry>
        </mxCell>
        <mxCell id="RKVwzYxyCM7aZtSniW9r-6" value="consumer" style="edgeStyle=orthogonalEdgeStyle;curved=1;rounded=0;orthogonalLoop=1;jettySize=auto;html=1;entryX=1;entryY=0.5;entryDx=0;entryDy=0;dashed=1;startArrow=block;startFill=1;" edge="1" parent="1" source="RKVwzYxyCM7aZtSniW9r-250" target="RKVwzYxyCM7aZtSniW9r-98">
          <mxGeometry relative="1" as="geometry" />
        </mxCell>
        <mxCell id="RKVwzYxyCM7aZtSniW9r-7" value="consumer" style="edgeStyle=orthogonalEdgeStyle;curved=1;rounded=0;orthogonalLoop=1;jettySize=auto;html=1;dashed=1;" edge="1" parent="1" source="RKVwzYxyCM7aZtSniW9r-46" target="RKVwzYxyCM7aZtSniW9r-249">
          <mxGeometry relative="1" as="geometry" />
        </mxCell>
        <mxCell id="RKVwzYxyCM7aZtSniW9r-8" style="edgeStyle=orthogonalEdgeStyle;rounded=0;orthogonalLoop=1;jettySize=auto;html=1;curved=1;dashed=1;entryX=0;entryY=0.5;entryDx=0;entryDy=0;entryPerimeter=0;" edge="1" parent="1" source="RKVwzYxyCM7aZtSniW9r-98" target="RKVwzYxyCM7aZtSniW9r-249">
          <mxGeometry relative="1" as="geometry" />
        </mxCell>
        <mxCell id="RKVwzYxyCM7aZtSniW9r-9" value="Documento &lt;br&gt;encontrado?" style="rhombus;whiteSpace=wrap;html=1;strokeWidth=1;align=center;verticalAlign=middle;" vertex="1" parent="1">
          <mxGeometry x="4820" y="1448.75" width="170" height="80" as="geometry" />
        </mxCell>
        <mxCell id="RKVwzYxyCM7aZtSniW9r-10" style="edgeStyle=orthogonalEdgeStyle;curved=1;rounded=0;orthogonalLoop=1;jettySize=auto;html=1;entryX=0.5;entryY=1;entryDx=0;entryDy=0;entryPerimeter=0;dashed=1;startArrow=block;startFill=1;endArrow=block;endFill=1;" edge="1" parent="1" source="RKVwzYxyCM7aZtSniW9r-98" target="RKVwzYxyCM7aZtSniW9r-241">
          <mxGeometry relative="1" as="geometry" />
        </mxCell>
        <mxCell id="RKVwzYxyCM7aZtSniW9r-11" value="consumer" style="edgeStyle=orthogonalEdgeStyle;curved=1;rounded=0;orthogonalLoop=1;jettySize=auto;html=1;entryX=0;entryY=0.5;entryDx=0;entryDy=0;startArrow=block;startFill=1;dashed=1;exitX=1;exitY=0.5;exitDx=0;exitDy=0;exitPerimeter=0;" edge="1" parent="1" source="RKVwzYxyCM7aZtSniW9r-101" target="RKVwzYxyCM7aZtSniW9r-92">
          <mxGeometry relative="1" as="geometry">
            <mxPoint x="1830.88" y="564.5" as="sourcePoint" />
          </mxGeometry>
        </mxCell>
        <mxCell id="RKVwzYxyCM7aZtSniW9r-12" value="" style="endArrow=none;html=1;strokeWidth=1;strokeColor=#A6A6A6;" edge="1" parent="1">
          <mxGeometry width="50" height="50" relative="1" as="geometry">
            <mxPoint x="3825" y="1336.5900000000001" as="sourcePoint" />
            <mxPoint x="6155" y="1336.13" as="targetPoint" />
          </mxGeometry>
        </mxCell>
        <mxCell id="RKVwzYxyCM7aZtSniW9r-13" value="" style="endArrow=none;html=1;strokeWidth=1;strokeColor=#A6A6A6;" edge="1" parent="1">
          <mxGeometry width="50" height="50" relative="1" as="geometry">
            <mxPoint x="3820" y="790.25" as="sourcePoint" />
            <mxPoint x="6150" y="783.75" as="targetPoint" />
          </mxGeometry>
        </mxCell>
        <mxCell id="RKVwzYxyCM7aZtSniW9r-14" value="" style="endArrow=none;html=1;strokeWidth=1;strokeColor=#A6A6A6;" edge="1" parent="1">
          <mxGeometry width="50" height="50" relative="1" as="geometry">
            <mxPoint x="3820" y="420" as="sourcePoint" />
            <mxPoint x="6150" y="419.75" as="targetPoint" />
          </mxGeometry>
        </mxCell>
        <mxCell id="RKVwzYxyCM7aZtSniW9r-15" value="" style="endArrow=none;html=1;strokeWidth=1;strokeColor=#A6A6A6;" edge="1" parent="1">
          <mxGeometry width="50" height="50" relative="1" as="geometry">
            <mxPoint x="3820" y="580" as="sourcePoint" />
            <mxPoint x="6150" y="583.75" as="targetPoint" />
          </mxGeometry>
        </mxCell>
        <mxCell id="RKVwzYxyCM7aZtSniW9r-16" value="" style="rounded=0;whiteSpace=wrap;html=1;strokeColor=#999999;" vertex="1" parent="1">
          <mxGeometry x="2413.52" y="1384.13" width="810" height="87.62" as="geometry" />
        </mxCell>
        <mxCell id="RKVwzYxyCM7aZtSniW9r-17" value="" style="rounded=0;whiteSpace=wrap;html=1;strokeColor=#999999;" vertex="1" parent="1">
          <mxGeometry x="2413.52" y="1296.75" width="306.48" height="80" as="geometry" />
        </mxCell>
        <mxCell id="RKVwzYxyCM7aZtSniW9r-18" value="" style="rounded=0;whiteSpace=wrap;html=1;strokeColor=#999999;" vertex="1" parent="1">
          <mxGeometry x="2413.52" y="1114.75" width="306.48" height="80" as="geometry" />
        </mxCell>
        <mxCell id="RKVwzYxyCM7aZtSniW9r-19" value="" style="rounded=0;whiteSpace=wrap;html=1;strokeColor=#999999;" vertex="1" parent="1">
          <mxGeometry x="2413.52" y="1206.76" width="1146.48" height="77.25" as="geometry" />
        </mxCell>
        <mxCell id="RKVwzYxyCM7aZtSniW9r-20" style="edgeStyle=orthogonalEdgeStyle;rounded=0;orthogonalLoop=1;jettySize=auto;html=1;startArrow=block;startFill=1;curved=1;exitX=0.5;exitY=0;exitDx=0;exitDy=0;entryX=0.5;entryY=1;entryDx=0;entryDy=0;entryPerimeter=0;" edge="1" parent="1" source="RKVwzYxyCM7aZtSniW9r-31" target="RKVwzYxyCM7aZtSniW9r-34">
          <mxGeometry relative="1" as="geometry">
            <mxPoint x="1069.6000000000004" y="963.75" as="targetPoint" />
          </mxGeometry>
        </mxCell>
        <mxCell id="RKVwzYxyCM7aZtSniW9r-21" style="edgeStyle=orthogonalEdgeStyle;rounded=0;orthogonalLoop=1;jettySize=auto;html=1;entryX=0;entryY=0.5;entryDx=0;entryDy=0;startArrow=none;startFill=0;" edge="1" parent="1" source="RKVwzYxyCM7aZtSniW9r-31" target="RKVwzYxyCM7aZtSniW9r-43">
          <mxGeometry relative="1" as="geometry" />
        </mxCell>
        <mxCell id="RKVwzYxyCM7aZtSniW9r-22" value="REST" style="edgeLabel;html=1;align=center;verticalAlign=middle;resizable=0;points=[];" vertex="1" connectable="0" parent="RKVwzYxyCM7aZtSniW9r-21">
          <mxGeometry x="-0.4" y="4" relative="1" as="geometry">
            <mxPoint y="-5" as="offset" />
          </mxGeometry>
        </mxCell>
        <mxCell id="RKVwzYxyCM7aZtSniW9r-23" value="REST" style="edgeLabel;html=1;align=center;verticalAlign=middle;resizable=0;points=[];" vertex="1" connectable="0" parent="RKVwzYxyCM7aZtSniW9r-21">
          <mxGeometry x="-0.4" y="4" relative="1" as="geometry">
            <mxPoint x="1015.1700000000001" y="-8.749999999999988" as="offset" />
          </mxGeometry>
        </mxCell>
        <mxCell id="RKVwzYxyCM7aZtSniW9r-24" value="REST" style="edgeLabel;html=1;align=center;verticalAlign=middle;resizable=0;points=[];" vertex="1" connectable="0" parent="RKVwzYxyCM7aZtSniW9r-21">
          <mxGeometry x="-0.4" y="4" relative="1" as="geometry">
            <mxPoint x="1015.1700000000001" y="81.25000000000001" as="offset" />
          </mxGeometry>
        </mxCell>
        <mxCell id="RKVwzYxyCM7aZtSniW9r-25" value="REST" style="edgeLabel;html=1;align=center;verticalAlign=middle;resizable=0;points=[];" vertex="1" connectable="0" parent="RKVwzYxyCM7aZtSniW9r-21">
          <mxGeometry x="-0.4" y="4" relative="1" as="geometry">
            <mxPoint x="1015.1700000000001" y="171.25" as="offset" />
          </mxGeometry>
        </mxCell>
        <mxCell id="RKVwzYxyCM7aZtSniW9r-26" value="REST" style="edgeLabel;html=1;align=center;verticalAlign=middle;resizable=0;points=[];" vertex="1" connectable="0" parent="RKVwzYxyCM7aZtSniW9r-21">
          <mxGeometry x="-0.4" y="4" relative="1" as="geometry">
            <mxPoint x="1015.1700000000001" y="261.25" as="offset" />
          </mxGeometry>
        </mxCell>
        <mxCell id="RKVwzYxyCM7aZtSniW9r-27" style="edgeStyle=orthogonalEdgeStyle;curved=1;rounded=0;orthogonalLoop=1;jettySize=auto;html=1;entryX=1;entryY=0.5;entryDx=0;entryDy=0;dashed=1;startArrow=block;startFill=1;fontSize=11;exitX=0;exitY=0.5;exitDx=0;exitDy=0;exitPerimeter=0;entryPerimeter=0;" edge="1" parent="1" source="RKVwzYxyCM7aZtSniW9r-34" target="RKVwzYxyCM7aZtSniW9r-102">
          <mxGeometry relative="1" as="geometry">
            <mxPoint x="856.6399999999999" y="797.5" as="targetPoint" />
          </mxGeometry>
        </mxCell>
        <mxCell id="RKVwzYxyCM7aZtSniW9r-28" value="producer" style="edgeLabel;html=1;align=center;verticalAlign=middle;resizable=0;points=[];" vertex="1" connectable="0" parent="RKVwzYxyCM7aZtSniW9r-27">
          <mxGeometry x="0.3034" y="2" relative="1" as="geometry">
            <mxPoint x="-8.32" y="-2" as="offset" />
          </mxGeometry>
        </mxCell>
        <mxCell id="RKVwzYxyCM7aZtSniW9r-29" style="edgeStyle=orthogonalEdgeStyle;rounded=0;orthogonalLoop=1;jettySize=auto;html=1;endArrow=block;endFill=1;curved=1;dashed=1;startArrow=block;startFill=1;exitX=0.5;exitY=0;exitDx=0;exitDy=0;entryX=0;entryY=0.5;entryDx=0;entryDy=0;entryPerimeter=0;" edge="1" parent="1" source="RKVwzYxyCM7aZtSniW9r-31" target="RKVwzYxyCM7aZtSniW9r-241">
          <mxGeometry relative="1" as="geometry">
            <mxPoint x="1583" y="682.4900000000002" as="targetPoint" />
          </mxGeometry>
        </mxCell>
        <mxCell id="RKVwzYxyCM7aZtSniW9r-30" value="consumer" style="edgeLabel;html=1;align=center;verticalAlign=middle;resizable=0;points=[];" vertex="1" connectable="0" parent="RKVwzYxyCM7aZtSniW9r-29">
          <mxGeometry x="0.4301" y="-59" relative="1" as="geometry">
            <mxPoint as="offset" />
          </mxGeometry>
        </mxCell>
        <mxCell id="RKVwzYxyCM7aZtSniW9r-31" value="vv-viamais-carrinho-api" style="rounded=0;whiteSpace=wrap;html=1;" vertex="1" parent="1">
          <mxGeometry x="1061.5" y="1124.25" width="167.5" height="60" as="geometry" />
        </mxCell>
        <mxCell id="RKVwzYxyCM7aZtSniW9r-32" style="edgeStyle=orthogonalEdgeStyle;curved=1;rounded=0;orthogonalLoop=1;jettySize=auto;html=1;entryX=0;entryY=0.5;entryDx=0;entryDy=0;startArrow=none;startFill=0;exitX=0.5;exitY=0;exitDx=0;exitDy=0;" edge="1" parent="1" source="RKVwzYxyCM7aZtSniW9r-105" target="RKVwzYxyCM7aZtSniW9r-31">
          <mxGeometry relative="1" as="geometry">
            <mxPoint x="910" y="1220.25" as="sourcePoint" />
          </mxGeometry>
        </mxCell>
        <mxCell id="RKVwzYxyCM7aZtSniW9r-33" value="REST" style="edgeLabel;html=1;align=center;verticalAlign=middle;resizable=0;points=[];" vertex="1" connectable="0" parent="RKVwzYxyCM7aZtSniW9r-32">
          <mxGeometry x="0.1123" y="-32" relative="1" as="geometry">
            <mxPoint y="44" as="offset" />
          </mxGeometry>
        </mxCell>
        <mxCell id="RKVwzYxyCM7aZtSniW9r-34" value="carrinho" style="shape=cylinder3;whiteSpace=wrap;html=1;boundedLbl=1;backgroundOutline=1;size=15;align=center;spacingTop=0;" vertex="1" parent="1">
          <mxGeometry x="1109.18" y="755" width="70.93" height="85" as="geometry" />
        </mxCell>
        <mxCell id="RKVwzYxyCM7aZtSniW9r-35" style="edgeStyle=orthogonalEdgeStyle;curved=1;rounded=0;orthogonalLoop=1;jettySize=auto;html=1;startArrow=block;startFill=1;fontSize=11;dashed=1;entryX=0;entryY=0.5;entryDx=0;entryDy=0;exitX=0.5;exitY=0;exitDx=0;exitDy=0;exitPerimeter=0;" edge="1" parent="1" source="RKVwzYxyCM7aZtSniW9r-241" target="RKVwzYxyCM7aZtSniW9r-265">
          <mxGeometry relative="1" as="geometry">
            <mxPoint x="1666.88" y="424.99" as="sourcePoint" />
          </mxGeometry>
        </mxCell>
        <mxCell id="RKVwzYxyCM7aZtSniW9r-36" value="consumer" style="edgeLabel;html=1;align=center;verticalAlign=middle;resizable=0;points=[];" vertex="1" connectable="0" parent="RKVwzYxyCM7aZtSniW9r-35">
          <mxGeometry x="0.117" y="-29" relative="1" as="geometry">
            <mxPoint x="19.34" y="8.77" as="offset" />
          </mxGeometry>
        </mxCell>
        <mxCell id="RKVwzYxyCM7aZtSniW9r-37" style="edgeStyle=orthogonalEdgeStyle;rounded=0;orthogonalLoop=1;jettySize=auto;html=1;startArrow=block;startFill=1;curved=1;exitX=0.5;exitY=0;exitDx=0;exitDy=0;dashed=1;entryX=0;entryY=0.5;entryDx=0;entryDy=0;entryPerimeter=0;" edge="1" parent="1" source="RKVwzYxyCM7aZtSniW9r-43" target="RKVwzYxyCM7aZtSniW9r-101">
          <mxGeometry relative="1" as="geometry">
            <mxPoint x="1666" y="870.25" as="targetPoint" />
          </mxGeometry>
        </mxCell>
        <mxCell id="RKVwzYxyCM7aZtSniW9r-38" value="consumer" style="edgeLabel;html=1;align=center;verticalAlign=middle;resizable=0;points=[];" vertex="1" connectable="0" parent="RKVwzYxyCM7aZtSniW9r-37">
          <mxGeometry x="0.3983" y="-32" relative="1" as="geometry">
            <mxPoint x="-32.95" y="56.480000000000004" as="offset" />
          </mxGeometry>
        </mxCell>
        <mxCell id="RKVwzYxyCM7aZtSniW9r-39" style="edgeStyle=orthogonalEdgeStyle;rounded=0;orthogonalLoop=1;jettySize=auto;html=1;entryX=0;entryY=0.5;entryDx=0;entryDy=0;curved=1;endArrow=block;endFill=1;startArrow=block;startFill=1;" edge="1" parent="1" source="RKVwzYxyCM7aZtSniW9r-43" target="RKVwzYxyCM7aZtSniW9r-74">
          <mxGeometry relative="1" as="geometry" />
        </mxCell>
        <mxCell id="RKVwzYxyCM7aZtSniW9r-40" style="edgeStyle=orthogonalEdgeStyle;curved=1;rounded=0;orthogonalLoop=1;jettySize=auto;html=1;entryX=0;entryY=0.5;entryDx=0;entryDy=0;endArrow=block;endFill=1;startArrow=block;startFill=1;" edge="1" parent="1" source="RKVwzYxyCM7aZtSniW9r-43" target="RKVwzYxyCM7aZtSniW9r-76">
          <mxGeometry relative="1" as="geometry" />
        </mxCell>
        <mxCell id="RKVwzYxyCM7aZtSniW9r-41" style="edgeStyle=orthogonalEdgeStyle;curved=1;rounded=0;orthogonalLoop=1;jettySize=auto;html=1;entryX=0;entryY=0.5;entryDx=0;entryDy=0;endArrow=block;endFill=1;startArrow=block;startFill=1;" edge="1" parent="1" source="RKVwzYxyCM7aZtSniW9r-43" target="RKVwzYxyCM7aZtSniW9r-78">
          <mxGeometry relative="1" as="geometry" />
        </mxCell>
        <mxCell id="RKVwzYxyCM7aZtSniW9r-42" style="edgeStyle=orthogonalEdgeStyle;curved=1;rounded=0;orthogonalLoop=1;jettySize=auto;html=1;entryX=0;entryY=0.5;entryDx=0;entryDy=0;endArrow=block;endFill=1;startArrow=block;startFill=1;" edge="1" parent="1" source="RKVwzYxyCM7aZtSniW9r-43" target="RKVwzYxyCM7aZtSniW9r-80">
          <mxGeometry relative="1" as="geometry" />
        </mxCell>
        <mxCell id="RKVwzYxyCM7aZtSniW9r-43" value="vv-checkout-api" style="rounded=0;whiteSpace=wrap;html=1;" vertex="1" parent="1">
          <mxGeometry x="1583" y="1124.25" width="167.5" height="60" as="geometry" />
        </mxCell>
        <mxCell id="RKVwzYxyCM7aZtSniW9r-44" value="checkout" style="shape=cylinder3;whiteSpace=wrap;html=1;boundedLbl=1;backgroundOutline=1;size=15;align=center;spacingTop=0;" vertex="1" parent="1">
          <mxGeometry x="1465.52" y="932.75" width="73.43" height="85" as="geometry" />
        </mxCell>
        <mxCell id="RKVwzYxyCM7aZtSniW9r-45" style="edgeStyle=orthogonalEdgeStyle;rounded=0;orthogonalLoop=1;jettySize=auto;html=1;startArrow=block;startFill=1;entryX=0.5;entryY=1;entryDx=0;entryDy=0;entryPerimeter=0;curved=1;exitX=0;exitY=0.5;exitDx=0;exitDy=0;" edge="1" parent="1" source="RKVwzYxyCM7aZtSniW9r-43" target="RKVwzYxyCM7aZtSniW9r-44">
          <mxGeometry relative="1" as="geometry">
            <mxPoint x="1752" y="1154.25" as="sourcePoint" />
            <mxPoint x="1582.5033333333336" y="1326.25" as="targetPoint" />
          </mxGeometry>
        </mxCell>
        <mxCell id="RKVwzYxyCM7aZtSniW9r-46" value="vv-aprovacao" style="rounded=0;whiteSpace=wrap;html=1;" vertex="1" parent="1">
          <mxGeometry x="2389" y="793.65" width="167.5" height="60" as="geometry" />
        </mxCell>
        <mxCell id="RKVwzYxyCM7aZtSniW9r-47" style="edgeStyle=orthogonalEdgeStyle;curved=1;rounded=0;orthogonalLoop=1;jettySize=auto;html=1;entryX=0.5;entryY=1;entryDx=0;entryDy=0;startArrow=block;startFill=1;exitX=0.5;exitY=0;exitDx=0;exitDy=0;" edge="1" parent="1" source="RKVwzYxyCM7aZtSniW9r-123" target="RKVwzYxyCM7aZtSniW9r-31">
          <mxGeometry relative="1" as="geometry">
            <mxPoint x="1160" y="1270.25" as="sourcePoint" />
          </mxGeometry>
        </mxCell>
        <mxCell id="RKVwzYxyCM7aZtSniW9r-48" style="edgeStyle=orthogonalEdgeStyle;curved=1;rounded=0;orthogonalLoop=1;jettySize=auto;html=1;entryX=0.5;entryY=1;entryDx=0;entryDy=0;startArrow=block;startFill=1;exitX=0.5;exitY=0;exitDx=0;exitDy=0;" edge="1" parent="1" source="RKVwzYxyCM7aZtSniW9r-126" target="RKVwzYxyCM7aZtSniW9r-43">
          <mxGeometry relative="1" as="geometry">
            <mxPoint x="1667" y="1260.25" as="sourcePoint" />
            <mxPoint x="1659.25" y="1044.25" as="targetPoint" />
          </mxGeometry>
        </mxCell>
        <mxCell id="RKVwzYxyCM7aZtSniW9r-49" value="vv-cupom" style="rounded=0;whiteSpace=wrap;html=1;" vertex="1" parent="1">
          <mxGeometry x="2430.98" y="1215.38" width="132.96" height="60" as="geometry" />
        </mxCell>
        <mxCell id="RKVwzYxyCM7aZtSniW9r-50" value="vv-desconto" style="rounded=0;whiteSpace=wrap;html=1;" vertex="1" parent="1">
          <mxGeometry x="2863.94" y="1215.38" width="132.96" height="60" as="geometry" />
        </mxCell>
        <mxCell id="RKVwzYxyCM7aZtSniW9r-51" style="edgeStyle=orthogonalEdgeStyle;rounded=0;orthogonalLoop=1;jettySize=auto;html=1;entryX=0;entryY=0.5;entryDx=0;entryDy=0;startArrow=none;startFill=0;endArrow=none;endFill=0;curved=1;dashed=1;" edge="1" parent="1" source="RKVwzYxyCM7aZtSniW9r-54" target="RKVwzYxyCM7aZtSniW9r-99">
          <mxGeometry relative="1" as="geometry" />
        </mxCell>
        <mxCell id="RKVwzYxyCM7aZtSniW9r-52" style="edgeStyle=orthogonalEdgeStyle;rounded=0;orthogonalLoop=1;jettySize=auto;html=1;entryX=-0.006;entryY=0.652;entryDx=0;entryDy=0;entryPerimeter=0;startArrow=none;startFill=0;endArrow=none;endFill=0;curved=1;dashed=1;" edge="1" parent="1" source="RKVwzYxyCM7aZtSniW9r-54" target="RKVwzYxyCM7aZtSniW9r-100">
          <mxGeometry relative="1" as="geometry" />
        </mxCell>
        <mxCell id="RKVwzYxyCM7aZtSniW9r-53" style="edgeStyle=orthogonalEdgeStyle;rounded=0;orthogonalLoop=1;jettySize=auto;html=1;entryX=0.5;entryY=0;entryDx=0;entryDy=0;curved=1;exitX=0.5;exitY=1;exitDx=0;exitDy=0;startArrow=block;startFill=1;fillColor=#f8cecc;strokeColor=#b85450;" edge="1" parent="1" source="RKVwzYxyCM7aZtSniW9r-54" target="RKVwzYxyCM7aZtSniW9r-91">
          <mxGeometry relative="1" as="geometry" />
        </mxCell>
        <mxCell id="RKVwzYxyCM7aZtSniW9r-54" value="PDV" style="rounded=0;whiteSpace=wrap;html=1;" vertex="1" parent="1">
          <mxGeometry x="2289.4" y="361.27" width="167.5" height="60" as="geometry" />
        </mxCell>
        <mxCell id="RKVwzYxyCM7aZtSniW9r-55" value="Nova Jornada Via+ v1" style="text;html=1;strokeColor=none;fillColor=none;align=center;verticalAlign=middle;whiteSpace=wrap;rounded=0;fontSize=20;fontStyle=1" vertex="1" parent="1">
          <mxGeometry x="70" y="80" width="260" height="60" as="geometry" />
        </mxCell>
        <mxCell id="RKVwzYxyCM7aZtSniW9r-56" value="IIDR" style="rounded=0;whiteSpace=wrap;html=1;" vertex="1" parent="1">
          <mxGeometry x="2671.77" y="793.65" width="167.5" height="60" as="geometry" />
        </mxCell>
        <mxCell id="RKVwzYxyCM7aZtSniW9r-57" style="edgeStyle=orthogonalEdgeStyle;curved=1;rounded=0;orthogonalLoop=1;jettySize=auto;html=1;startArrow=block;startFill=1;exitX=1;exitY=0.5;exitDx=0;exitDy=0;entryX=0;entryY=0.5;entryDx=0;entryDy=0;endArrow=none;endFill=0;" edge="1" parent="1" source="RKVwzYxyCM7aZtSniW9r-46" target="RKVwzYxyCM7aZtSniW9r-56">
          <mxGeometry relative="1" as="geometry">
            <mxPoint x="2281.5" y="965.15" as="sourcePoint" />
            <mxPoint x="2394" y="879.15" as="targetPoint" />
          </mxGeometry>
        </mxCell>
        <mxCell id="RKVwzYxyCM7aZtSniW9r-58" value="Storage" style="shape=cylinder3;whiteSpace=wrap;html=1;boundedLbl=1;backgroundOutline=1;size=15;align=center;spacingTop=0;" vertex="1" parent="1">
          <mxGeometry x="589.04" y="612.5" width="70.93" height="85" as="geometry" />
        </mxCell>
        <mxCell id="RKVwzYxyCM7aZtSniW9r-59" style="edgeStyle=orthogonalEdgeStyle;curved=1;rounded=0;orthogonalLoop=1;jettySize=auto;html=1;startArrow=block;startFill=1;fontSize=11;" edge="1" parent="1" source="RKVwzYxyCM7aZtSniW9r-62" target="RKVwzYxyCM7aZtSniW9r-58">
          <mxGeometry relative="1" as="geometry" />
        </mxCell>
        <mxCell id="RKVwzYxyCM7aZtSniW9r-60" style="edgeStyle=orthogonalEdgeStyle;curved=1;rounded=0;orthogonalLoop=1;jettySize=auto;html=1;entryX=0;entryY=0.5;entryDx=0;entryDy=0;startArrow=block;startFill=1;fontSize=11;exitX=1;exitY=0.5;exitDx=0;exitDy=0;dashed=1;entryPerimeter=0;" edge="1" parent="1" source="RKVwzYxyCM7aZtSniW9r-62" target="RKVwzYxyCM7aZtSniW9r-102">
          <mxGeometry relative="1" as="geometry">
            <mxPoint x="756.6399999999999" y="797.5" as="targetPoint" />
          </mxGeometry>
        </mxCell>
        <mxCell id="RKVwzYxyCM7aZtSniW9r-61" value="consumer" style="edgeLabel;html=1;align=center;verticalAlign=middle;resizable=0;points=[];" vertex="1" connectable="0" parent="RKVwzYxyCM7aZtSniW9r-60">
          <mxGeometry x="0.2374" relative="1" as="geometry">
            <mxPoint x="-17" as="offset" />
          </mxGeometry>
        </mxCell>
        <mxCell id="RKVwzYxyCM7aZtSniW9r-62" value="BigData" style="rounded=0;whiteSpace=wrap;html=1;" vertex="1" parent="1">
          <mxGeometry x="540.75" y="767.5" width="167.5" height="60" as="geometry" />
        </mxCell>
        <mxCell id="RKVwzYxyCM7aZtSniW9r-63" value="" style="pointerEvents=1;shadow=0;dashed=0;html=1;strokeColor=none;aspect=fixed;labelPosition=center;verticalLabelPosition=bottom;verticalAlign=top;align=center;outlineConnect=0;shape=mxgraph.vvd.nsx_dashboard;fontSize=11;fillColor=#000000;" vertex="1" parent="1">
          <mxGeometry x="414" y="675" width="66.67" height="62" as="geometry" />
        </mxCell>
        <mxCell id="RKVwzYxyCM7aZtSniW9r-64" style="edgeStyle=orthogonalEdgeStyle;curved=1;rounded=0;orthogonalLoop=1;jettySize=auto;html=1;startArrow=block;startFill=1;exitX=0;exitY=0.5;exitDx=0;exitDy=0;" edge="1" parent="1" source="RKVwzYxyCM7aZtSniW9r-62" target="RKVwzYxyCM7aZtSniW9r-63">
          <mxGeometry relative="1" as="geometry">
            <mxPoint x="400.75" y="831" as="sourcePoint" />
            <mxPoint x="401" y="695" as="targetPoint" />
          </mxGeometry>
        </mxCell>
        <mxCell id="RKVwzYxyCM7aZtSniW9r-65" value="Mongo Watch" style="rounded=0;whiteSpace=wrap;html=1;fontSize=11;spacingTop=0;fillColor=#050505;fontColor=#F7F7F7;" vertex="1" parent="1">
          <mxGeometry x="1010.64" y="789.13" width="80" height="16.75" as="geometry" />
        </mxCell>
        <mxCell id="RKVwzYxyCM7aZtSniW9r-66" style="edgeStyle=orthogonalEdgeStyle;curved=1;rounded=0;orthogonalLoop=1;jettySize=auto;html=1;entryX=0;entryY=0.5;entryDx=0;entryDy=0;dashed=1;startArrow=block;startFill=1;fontSize=11;fontColor=#F7F7F7;" edge="1" parent="1" source="RKVwzYxyCM7aZtSniW9r-67" target="RKVwzYxyCM7aZtSniW9r-31">
          <mxGeometry relative="1" as="geometry" />
        </mxCell>
        <mxCell id="RKVwzYxyCM7aZtSniW9r-67" value="ELK&lt;br&gt;(Elastic + Logstash + Kibana)" style="rounded=0;whiteSpace=wrap;html=1;" vertex="1" parent="1">
          <mxGeometry x="627.14" y="1124.25" width="170" height="60" as="geometry" />
        </mxCell>
        <mxCell id="RKVwzYxyCM7aZtSniW9r-68" value="" style="aspect=fixed;pointerEvents=1;shadow=0;dashed=0;html=1;strokeColor=none;labelPosition=center;verticalLabelPosition=bottom;verticalAlign=top;align=center;shape=mxgraph.mscae.enterprise.monitor_running_apps;fontSize=11;fontColor=#F7F7F7;fillColor=#00030F;" vertex="1" parent="1">
          <mxGeometry x="500.14" y="1036.25" width="76.92" height="60" as="geometry" />
        </mxCell>
        <mxCell id="RKVwzYxyCM7aZtSniW9r-69" style="edgeStyle=orthogonalEdgeStyle;curved=1;rounded=0;orthogonalLoop=1;jettySize=auto;html=1;startArrow=block;startFill=1;exitX=-0.008;exitY=0.579;exitDx=0;exitDy=0;exitPerimeter=0;" edge="1" parent="1" source="RKVwzYxyCM7aZtSniW9r-67" target="RKVwzYxyCM7aZtSniW9r-68">
          <mxGeometry relative="1" as="geometry">
            <mxPoint x="617.14" y="1168.7499999999998" as="sourcePoint" />
            <mxPoint x="504.14" y="1100.25" as="targetPoint" />
          </mxGeometry>
        </mxCell>
        <mxCell id="RKVwzYxyCM7aZtSniW9r-70" value="vv-credito-cliente" style="rounded=0;whiteSpace=wrap;html=1;" vertex="1" parent="1">
          <mxGeometry x="2718.02" y="1215.38" width="132.96" height="60" as="geometry" />
        </mxCell>
        <mxCell id="RKVwzYxyCM7aZtSniW9r-71" value="vv-crediario" style="rounded=0;whiteSpace=wrap;html=1;" vertex="1" parent="1">
          <mxGeometry x="2573.94" y="1215.38" width="132.96" height="60" as="geometry" />
        </mxCell>
        <mxCell id="RKVwzYxyCM7aZtSniW9r-72" value="vv-cheque" style="rounded=0;whiteSpace=wrap;html=1;" vertex="1" parent="1">
          <mxGeometry x="3012.46" y="1215.38" width="132.96" height="60" as="geometry" />
        </mxCell>
        <mxCell id="RKVwzYxyCM7aZtSniW9r-73" style="edgeStyle=orthogonalEdgeStyle;curved=1;rounded=0;orthogonalLoop=1;jettySize=auto;html=1;entryX=0;entryY=0.5;entryDx=0;entryDy=0;fillColor=#fff2cc;strokeColor=#d6b656;startArrow=block;startFill=1;" edge="1" parent="1" source="RKVwzYxyCM7aZtSniW9r-74" target="RKVwzYxyCM7aZtSniW9r-18">
          <mxGeometry relative="1" as="geometry" />
        </mxCell>
        <mxCell id="RKVwzYxyCM7aZtSniW9r-74" value="proxy-logistica" style="rounded=0;whiteSpace=wrap;html=1;" vertex="1" parent="1">
          <mxGeometry x="2130" y="1124.75" width="167.5" height="60" as="geometry" />
        </mxCell>
        <mxCell id="RKVwzYxyCM7aZtSniW9r-75" style="edgeStyle=orthogonalEdgeStyle;curved=1;rounded=0;orthogonalLoop=1;jettySize=auto;html=1;entryX=0;entryY=0.5;entryDx=0;entryDy=0;startArrow=block;startFill=1;" edge="1" parent="1" source="RKVwzYxyCM7aZtSniW9r-76" target="RKVwzYxyCM7aZtSniW9r-19">
          <mxGeometry relative="1" as="geometry" />
        </mxCell>
        <mxCell id="RKVwzYxyCM7aZtSniW9r-76" value="proxy-pagamento" style="rounded=0;whiteSpace=wrap;html=1;" vertex="1" parent="1">
          <mxGeometry x="2130" y="1215.38" width="167.5" height="60" as="geometry" />
        </mxCell>
        <mxCell id="RKVwzYxyCM7aZtSniW9r-77" style="edgeStyle=orthogonalEdgeStyle;curved=1;rounded=0;orthogonalLoop=1;jettySize=auto;html=1;entryX=0;entryY=0.5;entryDx=0;entryDy=0;startArrow=block;startFill=1;" edge="1" parent="1" source="RKVwzYxyCM7aZtSniW9r-78" target="RKVwzYxyCM7aZtSniW9r-17">
          <mxGeometry relative="1" as="geometry" />
        </mxCell>
        <mxCell id="RKVwzYxyCM7aZtSniW9r-78" value="proxy-identificacao" style="rounded=0;whiteSpace=wrap;html=1;" vertex="1" parent="1">
          <mxGeometry x="2130.52" y="1306.75" width="167.5" height="60" as="geometry" />
        </mxCell>
        <mxCell id="RKVwzYxyCM7aZtSniW9r-79" style="edgeStyle=orthogonalEdgeStyle;curved=1;rounded=0;orthogonalLoop=1;jettySize=auto;html=1;entryX=0;entryY=0.5;entryDx=0;entryDy=0;startArrow=block;startFill=1;" edge="1" parent="1" source="RKVwzYxyCM7aZtSniW9r-80" target="RKVwzYxyCM7aZtSniW9r-16">
          <mxGeometry relative="1" as="geometry" />
        </mxCell>
        <mxCell id="RKVwzYxyCM7aZtSniW9r-80" value="proxy-produto" style="rounded=0;whiteSpace=wrap;html=1;" vertex="1" parent="1">
          <mxGeometry x="2130.52" y="1397.5" width="167.5" height="60" as="geometry" />
        </mxCell>
        <mxCell id="RKVwzYxyCM7aZtSniW9r-81" value="vv-negociacao" style="rounded=0;whiteSpace=wrap;html=1;" vertex="1" parent="1">
          <mxGeometry x="3160" y="1215.38" width="132.96" height="60" as="geometry" />
        </mxCell>
        <mxCell id="RKVwzYxyCM7aZtSniW9r-82" value="vv-atendimento" style="rounded=0;whiteSpace=wrap;html=1;" vertex="1" parent="1">
          <mxGeometry x="2430.98" y="1306.75" width="132.96" height="60" as="geometry" />
        </mxCell>
        <mxCell id="RKVwzYxyCM7aZtSniW9r-83" value="vv-crm" style="rounded=0;whiteSpace=wrap;html=1;" vertex="1" parent="1">
          <mxGeometry x="2576.02" y="1306.75" width="132.96" height="60" as="geometry" />
        </mxCell>
        <mxCell id="RKVwzYxyCM7aZtSniW9r-84" value="vv-catalogo" style="rounded=0;whiteSpace=wrap;html=1;" vertex="1" parent="1">
          <mxGeometry x="2432.04" y="1397.94" width="132.96" height="60" as="geometry" />
        </mxCell>
        <mxCell id="RKVwzYxyCM7aZtSniW9r-85" value="vv-precificacao" style="rounded=0;whiteSpace=wrap;html=1;" vertex="1" parent="1">
          <mxGeometry x="2576.02" y="1397.94" width="132.96" height="60" as="geometry" />
        </mxCell>
        <mxCell id="RKVwzYxyCM7aZtSniW9r-86" value="vv-planosmobile" style="rounded=0;whiteSpace=wrap;html=1;" vertex="1" parent="1">
          <mxGeometry x="2719.08" y="1397.94" width="132.96" height="60" as="geometry" />
        </mxCell>
        <mxCell id="RKVwzYxyCM7aZtSniW9r-87" value="vv-viamais-catalogo-servicos-api" style="rounded=0;whiteSpace=wrap;html=1;" vertex="1" parent="1">
          <mxGeometry x="2866.02" y="1397.94" width="197.5" height="60" as="geometry" />
        </mxCell>
        <mxCell id="RKVwzYxyCM7aZtSniW9r-88" value="vv-estoque" style="rounded=0;whiteSpace=wrap;html=1;" vertex="1" parent="1">
          <mxGeometry x="3073.52" y="1397.94" width="132.96" height="60" as="geometry" />
        </mxCell>
        <mxCell id="RKVwzYxyCM7aZtSniW9r-89" value="vv-entrega" style="rounded=0;whiteSpace=wrap;html=1;fillColor=#fff2cc;strokeColor=#d6b656;" vertex="1" parent="1">
          <mxGeometry x="2432.04" y="1124.75" width="130" height="60" as="geometry" />
        </mxCell>
        <mxCell id="RKVwzYxyCM7aZtSniW9r-90" value="vv-frete" style="rounded=0;whiteSpace=wrap;html=1;fillColor=#fff2cc;strokeColor=#d6b656;" vertex="1" parent="1">
          <mxGeometry x="2576.9" y="1125.75" width="130" height="60" as="geometry" />
        </mxCell>
        <mxCell id="RKVwzYxyCM7aZtSniW9r-91" value="Cobol" style="rounded=0;whiteSpace=wrap;html=1;" vertex="1" parent="1">
          <mxGeometry x="2289.4" y="586.04" width="167.5" height="60" as="geometry" />
        </mxCell>
        <mxCell id="RKVwzYxyCM7aZtSniW9r-92" value="vv-fechamento-api" style="rounded=0;whiteSpace=wrap;html=1;" vertex="1" parent="1">
          <mxGeometry x="2009.4" y="586.04" width="167.5" height="60" as="geometry" />
        </mxCell>
        <mxCell id="RKVwzYxyCM7aZtSniW9r-93" style="edgeStyle=orthogonalEdgeStyle;curved=1;rounded=0;orthogonalLoop=1;jettySize=auto;html=1;startArrow=block;startFill=1;exitX=1;exitY=0.5;exitDx=0;exitDy=0;entryX=0;entryY=0.5;entryDx=0;entryDy=0;" edge="1" parent="1" source="RKVwzYxyCM7aZtSniW9r-92" target="RKVwzYxyCM7aZtSniW9r-91">
          <mxGeometry relative="1" as="geometry">
            <mxPoint x="1901.9" y="757.54" as="sourcePoint" />
            <mxPoint x="2014.4" y="671.54" as="targetPoint" />
          </mxGeometry>
        </mxCell>
        <mxCell id="RKVwzYxyCM7aZtSniW9r-94" value="" style="ellipse;whiteSpace=wrap;html=1;shadow=0;strokeColor=#82b366;fillColor=#d5e8d4;align=center;spacingLeft=0;" vertex="1" parent="1">
          <mxGeometry x="414" y="257.74" width="40" height="32.5" as="geometry" />
        </mxCell>
        <mxCell id="RKVwzYxyCM7aZtSniW9r-95" value="Jornada" style="text;html=1;align=center;verticalAlign=middle;resizable=0;points=[];autosize=1;fontColor=#050505;" vertex="1" parent="1">
          <mxGeometry x="454" y="263.99" width="60" height="20" as="geometry" />
        </mxCell>
        <mxCell id="RKVwzYxyCM7aZtSniW9r-96" value="" style="ellipse;whiteSpace=wrap;html=1;shadow=0;strokeColor=#d6b656;fillColor=#fff2cc;align=center;spacingLeft=0;" vertex="1" parent="1">
          <mxGeometry x="414" y="305.24" width="40" height="32.5" as="geometry" />
        </mxCell>
        <mxCell id="RKVwzYxyCM7aZtSniW9r-97" value="Em análise" style="text;html=1;align=center;verticalAlign=middle;resizable=0;points=[];autosize=1;fontColor=#050505;" vertex="1" parent="1">
          <mxGeometry x="457" y="311.49" width="70" height="20" as="geometry" />
        </mxCell>
        <mxCell id="RKVwzYxyCM7aZtSniW9r-98" value="vv-checkout-api" style="rounded=0;whiteSpace=wrap;html=1;" vertex="1" parent="1">
          <mxGeometry x="1583" y="1124.25" width="167.5" height="60" as="geometry" />
        </mxCell>
        <mxCell id="RKVwzYxyCM7aZtSniW9r-99" value="Multiskill" style="rounded=0;whiteSpace=wrap;html=1;" vertex="1" parent="1">
          <mxGeometry x="2567.4" y="311.53" width="167.5" height="60" as="geometry" />
        </mxCell>
        <mxCell id="RKVwzYxyCM7aZtSniW9r-100" value="App Recebimento" style="rounded=0;whiteSpace=wrap;html=1;" vertex="1" parent="1">
          <mxGeometry x="2567.4" y="411.15" width="167.5" height="60" as="geometry" />
        </mxCell>
        <mxCell id="RKVwzYxyCM7aZtSniW9r-101" value="key:evento_checkout_finalizado" style="outlineConnect=0;dashed=0;verticalLabelPosition=bottom;verticalAlign=top;align=center;html=1;shape=mxgraph.aws3.topic;fillColor=#5294CF;gradientColor=none;" vertex="1" parent="1">
          <mxGeometry x="1820.88" y="719.75" width="30" height="44.5" as="geometry" />
        </mxCell>
        <mxCell id="RKVwzYxyCM7aZtSniW9r-102" value="&lt;span style=&quot;font-size: 11px&quot;&gt;Business Events&lt;/span&gt;" style="outlineConnect=0;dashed=0;verticalLabelPosition=bottom;verticalAlign=top;align=center;html=1;shape=mxgraph.aws3.topic;fillColor=#5294CF;gradientColor=none;" vertex="1" parent="1">
          <mxGeometry x="854" y="773.75" width="30" height="47.5" as="geometry" />
        </mxCell>
        <mxCell id="RKVwzYxyCM7aZtSniW9r-103" style="edgeStyle=orthogonalEdgeStyle;curved=1;rounded=0;orthogonalLoop=1;jettySize=auto;html=1;startArrow=block;startFill=1;exitX=1;exitY=0.5;exitDx=0;exitDy=0;" edge="1" parent="1" source="RKVwzYxyCM7aZtSniW9r-105" target="RKVwzYxyCM7aZtSniW9r-123">
          <mxGeometry relative="1" as="geometry">
            <mxPoint x="777.5" y="1436" as="sourcePoint" />
            <mxPoint x="1062.5" y="1436" as="targetPoint" />
          </mxGeometry>
        </mxCell>
        <mxCell id="RKVwzYxyCM7aZtSniW9r-104" value="redirect" style="edgeLabel;html=1;align=center;verticalAlign=middle;resizable=0;points=[];" vertex="1" connectable="0" parent="RKVwzYxyCM7aZtSniW9r-103">
          <mxGeometry x="0.1429" y="-2" relative="1" as="geometry">
            <mxPoint y="6" as="offset" />
          </mxGeometry>
        </mxCell>
        <mxCell id="RKVwzYxyCM7aZtSniW9r-105" value="Catalogo" style="shape=step;perimeter=stepPerimeter;whiteSpace=wrap;html=1;fixedSize=1;fillColor=#d5e8d4;strokeColor=#82b366;" vertex="1" parent="1">
          <mxGeometry x="740" y="1396" width="170" height="60" as="geometry" />
        </mxCell>
        <mxCell id="RKVwzYxyCM7aZtSniW9r-106" style="edgeStyle=orthogonalEdgeStyle;curved=1;rounded=0;orthogonalLoop=1;jettySize=auto;html=1;startArrow=block;startFill=1;exitX=1;exitY=0.5;exitDx=0;exitDy=0;entryX=0;entryY=0.5;entryDx=0;entryDy=0;" edge="1" parent="1" source="RKVwzYxyCM7aZtSniW9r-123" target="RKVwzYxyCM7aZtSniW9r-126">
          <mxGeometry relative="1" as="geometry">
            <mxPoint x="1620" y="1446" as="sourcePoint" />
            <mxPoint x="1540" y="1428" as="targetPoint" />
          </mxGeometry>
        </mxCell>
        <mxCell id="RKVwzYxyCM7aZtSniW9r-107" value="redirect" style="edgeLabel;html=1;align=center;verticalAlign=middle;resizable=0;points=[];" vertex="1" connectable="0" parent="RKVwzYxyCM7aZtSniW9r-106">
          <mxGeometry x="-0.2871" relative="1" as="geometry">
            <mxPoint x="47" y="8" as="offset" />
          </mxGeometry>
        </mxCell>
        <mxCell id="RKVwzYxyCM7aZtSniW9r-108" style="edgeStyle=orthogonalEdgeStyle;curved=1;rounded=0;orthogonalLoop=1;jettySize=auto;html=1;entryX=1;entryY=0.5;entryDx=0;entryDy=0;startArrow=block;startFill=1;exitX=0.5;exitY=1;exitDx=0;exitDy=0;" edge="1" parent="1" source="RKVwzYxyCM7aZtSniW9r-123" target="RKVwzYxyCM7aZtSniW9r-132">
          <mxGeometry relative="1" as="geometry" />
        </mxCell>
        <mxCell id="RKVwzYxyCM7aZtSniW9r-109" style="edgeStyle=orthogonalEdgeStyle;curved=1;rounded=0;orthogonalLoop=1;jettySize=auto;html=1;entryX=1;entryY=0.5;entryDx=0;entryDy=0;startArrow=block;startFill=1;exitX=0.5;exitY=1;exitDx=0;exitDy=0;" edge="1" parent="1" source="RKVwzYxyCM7aZtSniW9r-123" target="RKVwzYxyCM7aZtSniW9r-127">
          <mxGeometry relative="1" as="geometry" />
        </mxCell>
        <mxCell id="RKVwzYxyCM7aZtSniW9r-110" style="edgeStyle=orthogonalEdgeStyle;curved=1;rounded=0;orthogonalLoop=1;jettySize=auto;html=1;exitX=0.5;exitY=1;exitDx=0;exitDy=0;entryX=1;entryY=0.5;entryDx=0;entryDy=0;startArrow=block;startFill=1;" edge="1" parent="1" source="RKVwzYxyCM7aZtSniW9r-123" target="RKVwzYxyCM7aZtSniW9r-129">
          <mxGeometry relative="1" as="geometry" />
        </mxCell>
        <mxCell id="RKVwzYxyCM7aZtSniW9r-111" style="edgeStyle=orthogonalEdgeStyle;curved=1;rounded=0;orthogonalLoop=1;jettySize=auto;html=1;entryX=1;entryY=0.5;entryDx=0;entryDy=0;startArrow=block;startFill=1;exitX=0.5;exitY=1;exitDx=0;exitDy=0;" edge="1" parent="1" source="RKVwzYxyCM7aZtSniW9r-123" target="RKVwzYxyCM7aZtSniW9r-130">
          <mxGeometry relative="1" as="geometry" />
        </mxCell>
        <mxCell id="RKVwzYxyCM7aZtSniW9r-112" style="edgeStyle=orthogonalEdgeStyle;curved=1;rounded=0;orthogonalLoop=1;jettySize=auto;html=1;entryX=0;entryY=0.5;entryDx=0;entryDy=0;startArrow=block;startFill=1;exitX=0.5;exitY=1;exitDx=0;exitDy=0;" edge="1" parent="1" source="RKVwzYxyCM7aZtSniW9r-149" target="RKVwzYxyCM7aZtSniW9r-133">
          <mxGeometry relative="1" as="geometry" />
        </mxCell>
        <mxCell id="RKVwzYxyCM7aZtSniW9r-113" style="edgeStyle=orthogonalEdgeStyle;curved=1;rounded=0;orthogonalLoop=1;jettySize=auto;html=1;entryX=1;entryY=0.5;entryDx=0;entryDy=0;startArrow=block;startFill=1;exitX=0.5;exitY=1;exitDx=0;exitDy=0;" edge="1" parent="1" source="RKVwzYxyCM7aZtSniW9r-123" target="RKVwzYxyCM7aZtSniW9r-128">
          <mxGeometry relative="1" as="geometry" />
        </mxCell>
        <mxCell id="RKVwzYxyCM7aZtSniW9r-114" style="edgeStyle=orthogonalEdgeStyle;curved=1;rounded=0;orthogonalLoop=1;jettySize=auto;html=1;entryX=1;entryY=0.5;entryDx=0;entryDy=0;startArrow=block;startFill=1;exitX=0.5;exitY=1;exitDx=0;exitDy=0;" edge="1" parent="1" source="RKVwzYxyCM7aZtSniW9r-123" target="RKVwzYxyCM7aZtSniW9r-131">
          <mxGeometry relative="1" as="geometry" />
        </mxCell>
        <mxCell id="RKVwzYxyCM7aZtSniW9r-115" style="edgeStyle=orthogonalEdgeStyle;curved=1;rounded=0;orthogonalLoop=1;jettySize=auto;html=1;entryX=0;entryY=0.5;entryDx=0;entryDy=0;startArrow=block;startFill=1;fontSize=11;exitX=0.5;exitY=1;exitDx=0;exitDy=0;" edge="1" parent="1" source="RKVwzYxyCM7aZtSniW9r-123" target="RKVwzYxyCM7aZtSniW9r-145">
          <mxGeometry relative="1" as="geometry">
            <Array as="points">
              <mxPoint x="1145" y="1586" />
            </Array>
          </mxGeometry>
        </mxCell>
        <mxCell id="RKVwzYxyCM7aZtSniW9r-116" style="edgeStyle=orthogonalEdgeStyle;curved=1;rounded=0;orthogonalLoop=1;jettySize=auto;html=1;entryX=0;entryY=0.5;entryDx=0;entryDy=0;startArrow=block;startFill=1;fontSize=11;exitX=0.5;exitY=1;exitDx=0;exitDy=0;" edge="1" parent="1" source="RKVwzYxyCM7aZtSniW9r-123" target="RKVwzYxyCM7aZtSniW9r-138">
          <mxGeometry relative="1" as="geometry">
            <Array as="points">
              <mxPoint x="1145" y="1976" />
            </Array>
          </mxGeometry>
        </mxCell>
        <mxCell id="RKVwzYxyCM7aZtSniW9r-117" value="open" style="edgeLabel;html=1;align=center;verticalAlign=middle;resizable=0;points=[];fontSize=11;" vertex="1" connectable="0" parent="RKVwzYxyCM7aZtSniW9r-116">
          <mxGeometry x="0.016" y="36" relative="1" as="geometry">
            <mxPoint x="29" y="-28.42" as="offset" />
          </mxGeometry>
        </mxCell>
        <mxCell id="RKVwzYxyCM7aZtSniW9r-118" value="open" style="edgeLabel;html=1;align=center;verticalAlign=middle;resizable=0;points=[];fontSize=11;" vertex="1" connectable="0" parent="RKVwzYxyCM7aZtSniW9r-116">
          <mxGeometry x="0.016" y="36" relative="1" as="geometry">
            <mxPoint x="29" y="161.58" as="offset" />
          </mxGeometry>
        </mxCell>
        <mxCell id="RKVwzYxyCM7aZtSniW9r-119" value="open" style="edgeLabel;html=1;align=center;verticalAlign=middle;resizable=0;points=[];fontSize=11;" vertex="1" connectable="0" parent="RKVwzYxyCM7aZtSniW9r-116">
          <mxGeometry x="0.016" y="36" relative="1" as="geometry">
            <mxPoint x="29" y="-208.42000000000002" as="offset" />
          </mxGeometry>
        </mxCell>
        <mxCell id="RKVwzYxyCM7aZtSniW9r-120" value="open" style="edgeLabel;html=1;align=center;verticalAlign=middle;resizable=0;points=[];fontSize=11;" vertex="1" connectable="0" parent="RKVwzYxyCM7aZtSniW9r-116">
          <mxGeometry x="0.016" y="36" relative="1" as="geometry">
            <mxPoint x="539" y="-228.42000000000002" as="offset" />
          </mxGeometry>
        </mxCell>
        <mxCell id="RKVwzYxyCM7aZtSniW9r-121" value="open" style="edgeLabel;html=1;align=center;verticalAlign=middle;resizable=0;points=[];fontSize=11;" vertex="1" connectable="0" parent="RKVwzYxyCM7aZtSniW9r-116">
          <mxGeometry x="0.016" y="36" relative="1" as="geometry">
            <mxPoint x="559" y="241.57999999999998" as="offset" />
          </mxGeometry>
        </mxCell>
        <mxCell id="RKVwzYxyCM7aZtSniW9r-122" style="edgeStyle=orthogonalEdgeStyle;curved=1;rounded=0;orthogonalLoop=1;jettySize=auto;html=1;entryX=0;entryY=0.5;entryDx=0;entryDy=0;startArrow=block;startFill=1;fontSize=11;exitX=0.5;exitY=1;exitDx=0;exitDy=0;" edge="1" parent="1" source="RKVwzYxyCM7aZtSniW9r-123" target="RKVwzYxyCM7aZtSniW9r-149">
          <mxGeometry relative="1" as="geometry">
            <Array as="points">
              <mxPoint x="1145" y="1776" />
            </Array>
          </mxGeometry>
        </mxCell>
        <mxCell id="RKVwzYxyCM7aZtSniW9r-123" value="Carrinho" style="shape=step;perimeter=stepPerimeter;whiteSpace=wrap;html=1;fixedSize=1;fillColor=#d5e8d4;strokeColor=#82b366;" vertex="1" parent="1">
          <mxGeometry x="1061.5" y="1396.57" width="170" height="60" as="geometry" />
        </mxCell>
        <mxCell id="RKVwzYxyCM7aZtSniW9r-124" style="edgeStyle=orthogonalEdgeStyle;curved=1;rounded=0;orthogonalLoop=1;jettySize=auto;html=1;entryX=0;entryY=0.5;entryDx=0;entryDy=0;startArrow=block;startFill=1;fontSize=11;exitX=0.5;exitY=1;exitDx=0;exitDy=0;" edge="1" parent="1" source="RKVwzYxyCM7aZtSniW9r-126" target="RKVwzYxyCM7aZtSniW9r-143">
          <mxGeometry relative="1" as="geometry">
            <Array as="points">
              <mxPoint x="1668" y="2070" />
            </Array>
          </mxGeometry>
        </mxCell>
        <mxCell id="RKVwzYxyCM7aZtSniW9r-125" style="edgeStyle=orthogonalEdgeStyle;curved=1;rounded=0;orthogonalLoop=1;jettySize=auto;html=1;entryX=0;entryY=0.5;entryDx=0;entryDy=0;" edge="1" parent="1" source="RKVwzYxyCM7aZtSniW9r-126" target="RKVwzYxyCM7aZtSniW9r-256">
          <mxGeometry relative="1" as="geometry">
            <Array as="points">
              <mxPoint x="1668" y="1580" />
              <mxPoint x="1781" y="1580" />
            </Array>
          </mxGeometry>
        </mxCell>
        <mxCell id="RKVwzYxyCM7aZtSniW9r-126" value="Checkout" style="shape=step;perimeter=stepPerimeter;whiteSpace=wrap;html=1;fixedSize=1;fillColor=#d5e8d4;strokeColor=#82b366;" vertex="1" parent="1">
          <mxGeometry x="1583" y="1396" width="170" height="59" as="geometry" />
        </mxCell>
        <mxCell id="RKVwzYxyCM7aZtSniW9r-127" value="vv-estoque" style="rounded=0;whiteSpace=wrap;html=1;" vertex="1" parent="1">
          <mxGeometry x="880" y="1661" width="130" height="60" as="geometry" />
        </mxCell>
        <mxCell id="RKVwzYxyCM7aZtSniW9r-128" value="vv-viamais-calculadora-pagamento-api" style="rounded=0;whiteSpace=wrap;html=1;" vertex="1" parent="1">
          <mxGeometry x="790" y="1876" width="220" height="60" as="geometry" />
        </mxCell>
        <mxCell id="RKVwzYxyCM7aZtSniW9r-129" value="vv-precificacao" style="rounded=0;whiteSpace=wrap;html=1;" vertex="1" parent="1">
          <mxGeometry x="880" y="1731" width="130" height="60" as="geometry" />
        </mxCell>
        <mxCell id="RKVwzYxyCM7aZtSniW9r-130" value="vv-entrega&lt;br&gt;(Online?)" style="rounded=0;whiteSpace=wrap;html=1;fillColor=#fff2cc;strokeColor=#d6b656;" vertex="1" parent="1">
          <mxGeometry x="880" y="1801" width="130" height="60" as="geometry" />
        </mxCell>
        <mxCell id="RKVwzYxyCM7aZtSniW9r-131" value="vv-desconto" style="rounded=0;whiteSpace=wrap;html=1;" vertex="1" parent="1">
          <mxGeometry x="880" y="1946" width="130" height="60" as="geometry" />
        </mxCell>
        <mxCell id="RKVwzYxyCM7aZtSniW9r-132" value="vv-vitrine" style="rounded=0;whiteSpace=wrap;html=1;" vertex="1" parent="1">
          <mxGeometry x="880" y="1591" width="130" height="60" as="geometry" />
        </mxCell>
        <mxCell id="RKVwzYxyCM7aZtSniW9r-133" value="vv-viamais-catalogo-servicos-api" style="rounded=0;whiteSpace=wrap;html=1;" vertex="1" parent="1">
          <mxGeometry x="1410" y="1852" width="220" height="60" as="geometry" />
        </mxCell>
        <mxCell id="RKVwzYxyCM7aZtSniW9r-134" style="edgeStyle=orthogonalEdgeStyle;curved=1;rounded=0;orthogonalLoop=1;jettySize=auto;html=1;entryX=0;entryY=0.5;entryDx=0;entryDy=0;startArrow=block;startFill=1;exitX=0.5;exitY=1;exitDx=0;exitDy=0;" edge="1" parent="1" source="RKVwzYxyCM7aZtSniW9r-138" target="RKVwzYxyCM7aZtSniW9r-141">
          <mxGeometry relative="1" as="geometry" />
        </mxCell>
        <mxCell id="RKVwzYxyCM7aZtSniW9r-135" style="edgeStyle=orthogonalEdgeStyle;curved=1;rounded=0;orthogonalLoop=1;jettySize=auto;html=1;entryX=0;entryY=0.5;entryDx=0;entryDy=0;startArrow=block;startFill=1;exitX=0.5;exitY=1;exitDx=0;exitDy=0;" edge="1" parent="1" source="RKVwzYxyCM7aZtSniW9r-138" target="RKVwzYxyCM7aZtSniW9r-142">
          <mxGeometry relative="1" as="geometry" />
        </mxCell>
        <mxCell id="RKVwzYxyCM7aZtSniW9r-136" style="edgeStyle=orthogonalEdgeStyle;curved=1;rounded=0;orthogonalLoop=1;jettySize=auto;html=1;entryX=0;entryY=0.5;entryDx=0;entryDy=0;startArrow=block;startFill=1;exitX=0.5;exitY=1;exitDx=0;exitDy=0;" edge="1" parent="1" source="RKVwzYxyCM7aZtSniW9r-138" target="RKVwzYxyCM7aZtSniW9r-140">
          <mxGeometry relative="1" as="geometry" />
        </mxCell>
        <mxCell id="RKVwzYxyCM7aZtSniW9r-137" style="edgeStyle=orthogonalEdgeStyle;curved=1;rounded=0;orthogonalLoop=1;jettySize=auto;html=1;entryX=0;entryY=0.5;entryDx=0;entryDy=0;startArrow=block;startFill=1;exitX=0.5;exitY=1;exitDx=0;exitDy=0;" edge="1" parent="1" source="RKVwzYxyCM7aZtSniW9r-138" target="RKVwzYxyCM7aZtSniW9r-139">
          <mxGeometry relative="1" as="geometry" />
        </mxCell>
        <mxCell id="RKVwzYxyCM7aZtSniW9r-138" value="Simulação" style="shape=step;perimeter=stepPerimeter;whiteSpace=wrap;html=1;fixedSize=1;fillColor=#d5e8d4;strokeColor=#82b366;" vertex="1" parent="1">
          <mxGeometry x="1240" y="1946" width="170" height="60" as="geometry" />
        </mxCell>
        <mxCell id="RKVwzYxyCM7aZtSniW9r-139" value="vv-viamais-condicao-pagamento-api" style="rounded=0;whiteSpace=wrap;html=1;" vertex="1" parent="1">
          <mxGeometry x="1421" y="2262" width="230" height="60" as="geometry" />
        </mxCell>
        <mxCell id="RKVwzYxyCM7aZtSniW9r-140" value="vv-adm &lt;br&gt;(Formas de pagamento)" style="rounded=0;whiteSpace=wrap;html=1;fillColor=#fff2cc;strokeColor=#d6b656;" vertex="1" parent="1">
          <mxGeometry x="1421" y="2192" width="132.96" height="60" as="geometry" />
        </mxCell>
        <mxCell id="RKVwzYxyCM7aZtSniW9r-141" value="vv-desconto" style="rounded=0;whiteSpace=wrap;html=1;" vertex="1" parent="1">
          <mxGeometry x="1419.52" y="2052" width="132.96" height="60" as="geometry" />
        </mxCell>
        <mxCell id="RKVwzYxyCM7aZtSniW9r-142" value="vv-viamais-calculadora-pagamento-api" style="rounded=0;whiteSpace=wrap;html=1;" vertex="1" parent="1">
          <mxGeometry x="1421" y="2122" width="220" height="60" as="geometry" />
        </mxCell>
        <mxCell id="RKVwzYxyCM7aZtSniW9r-143" value="Resumo" style="shape=step;perimeter=stepPerimeter;whiteSpace=wrap;html=1;fixedSize=1;fillColor=#d5e8d4;strokeColor=#82b366;" vertex="1" parent="1">
          <mxGeometry x="1760.5" y="2040" width="170" height="59" as="geometry" />
        </mxCell>
        <mxCell id="RKVwzYxyCM7aZtSniW9r-144" style="edgeStyle=orthogonalEdgeStyle;curved=1;rounded=0;orthogonalLoop=1;jettySize=auto;html=1;entryX=0;entryY=0.5;entryDx=0;entryDy=0;startArrow=block;startFill=1;fontSize=11;exitX=0.5;exitY=1;exitDx=0;exitDy=0;" edge="1" parent="1" source="RKVwzYxyCM7aZtSniW9r-145" target="RKVwzYxyCM7aZtSniW9r-146">
          <mxGeometry relative="1" as="geometry" />
        </mxCell>
        <mxCell id="RKVwzYxyCM7aZtSniW9r-145" value="Identificação" style="shape=step;perimeter=stepPerimeter;whiteSpace=wrap;html=1;fixedSize=1;fillColor=#d5e8d4;strokeColor=#82b366;" vertex="1" parent="1">
          <mxGeometry x="1240" y="1556.5" width="170" height="60" as="geometry" />
        </mxCell>
        <mxCell id="RKVwzYxyCM7aZtSniW9r-146" value="vv-crm" style="rounded=0;whiteSpace=wrap;html=1;" vertex="1" parent="1">
          <mxGeometry x="1419.52" y="1661" width="132.96" height="60" as="geometry" />
        </mxCell>
        <mxCell id="RKVwzYxyCM7aZtSniW9r-147" value="Login" style="shape=step;perimeter=stepPerimeter;whiteSpace=wrap;html=1;fixedSize=1;fillColor=#d5e8d4;strokeColor=#82b366;" vertex="1" parent="1">
          <mxGeometry x="550" y="1396" width="170" height="60" as="geometry" />
        </mxCell>
        <mxCell id="RKVwzYxyCM7aZtSniW9r-148" value="vv-crm&lt;br&gt;(Consulta de CEP)" style="rounded=0;whiteSpace=wrap;html=1;fillColor=#fff2cc;strokeColor=#d6b656;" vertex="1" parent="1">
          <mxGeometry x="610" y="1801" width="130" height="60" as="geometry" />
        </mxCell>
        <mxCell id="RKVwzYxyCM7aZtSniW9r-149" value="Caálogo de Serviços" style="shape=step;perimeter=stepPerimeter;whiteSpace=wrap;html=1;fixedSize=1;fillColor=#d5e8d4;strokeColor=#82b366;" vertex="1" parent="1">
          <mxGeometry x="1240" y="1746" width="170" height="60" as="geometry" />
        </mxCell>
        <mxCell id="RKVwzYxyCM7aZtSniW9r-150" value="vv-frete&lt;br&gt;(Online?)" style="rounded=0;whiteSpace=wrap;html=1;fillColor=#fff2cc;strokeColor=#d6b656;" vertex="1" parent="1">
          <mxGeometry x="744" y="1801" width="130" height="60" as="geometry" />
        </mxCell>
        <mxCell id="RKVwzYxyCM7aZtSniW9r-151" value="" style="outlineConnect=0;dashed=0;verticalLabelPosition=bottom;verticalAlign=top;align=center;html=1;shape=mxgraph.aws3.topic;fillColor=#5294CF;gradientColor=none;" vertex="1" parent="1">
          <mxGeometry x="419" y="357.74" width="30" height="44.5" as="geometry" />
        </mxCell>
        <mxCell id="RKVwzYxyCM7aZtSniW9r-152" value="Kafka Topic" style="text;html=1;align=center;verticalAlign=middle;resizable=0;points=[];autosize=1;fontColor=#050505;" vertex="1" parent="1">
          <mxGeometry x="454" y="369.99" width="80" height="20" as="geometry" />
        </mxCell>
        <mxCell id="RKVwzYxyCM7aZtSniW9r-153" value="Carrinho" style="rounded=0;whiteSpace=wrap;html=1;fontStyle=1;strokeWidth=2;fillColor=#dae8fc;strokeColor=#6c8ebf;" vertex="1" parent="1">
          <mxGeometry x="3850" y="651.85" width="120" height="60" as="geometry" />
        </mxCell>
        <mxCell id="RKVwzYxyCM7aZtSniW9r-154" value="Atendimento/CRM" style="rounded=0;whiteSpace=wrap;html=1;fontStyle=1;strokeWidth=2;fillColor=#dae8fc;strokeColor=#6c8ebf;" vertex="1" parent="1">
          <mxGeometry x="3850" y="850" width="120" height="60" as="geometry" />
        </mxCell>
        <mxCell id="RKVwzYxyCM7aZtSniW9r-155" value="Checkout" style="rounded=0;whiteSpace=wrap;html=1;fontStyle=1;strokeWidth=2;fillColor=#dae8fc;strokeColor=#6c8ebf;" vertex="1" parent="1">
          <mxGeometry x="3850" y="1198.75" width="120" height="60" as="geometry" />
        </mxCell>
        <mxCell id="RKVwzYxyCM7aZtSniW9r-156" value="PDV" style="rounded=0;whiteSpace=wrap;html=1;fontStyle=1;strokeWidth=2;fillColor=#dae8fc;strokeColor=#6c8ebf;" vertex="1" parent="1">
          <mxGeometry x="3850" y="1434.96" width="120" height="60" as="geometry" />
        </mxCell>
        <mxCell id="RKVwzYxyCM7aZtSniW9r-157" value="Negociação" style="rounded=0;whiteSpace=wrap;html=1;fontStyle=1;strokeWidth=2;fillColor=#dae8fc;strokeColor=#6c8ebf;" vertex="1" parent="1">
          <mxGeometry x="3850" y="1017.75" width="120" height="60" as="geometry" />
        </mxCell>
        <mxCell id="RKVwzYxyCM7aZtSniW9r-158" value="Catalogo" style="rounded=0;whiteSpace=wrap;html=1;fontStyle=1;strokeWidth=2;fillColor=#dae8fc;strokeColor=#6c8ebf;" vertex="1" parent="1">
          <mxGeometry x="3850" y="467.5" width="120" height="60" as="geometry" />
        </mxCell>
        <mxCell id="RKVwzYxyCM7aZtSniW9r-159" style="edgeStyle=orthogonalEdgeStyle;rounded=0;orthogonalLoop=1;jettySize=auto;html=1;entryX=0.5;entryY=0;entryDx=0;entryDy=0;strokeColor=#000000;strokeWidth=1;" edge="1" parent="1" source="RKVwzYxyCM7aZtSniW9r-160" target="RKVwzYxyCM7aZtSniW9r-185">
          <mxGeometry relative="1" as="geometry">
            <Array as="points">
              <mxPoint x="4285" y="593.75" />
              <mxPoint x="4100" y="593.75" />
            </Array>
          </mxGeometry>
        </mxCell>
        <mxCell id="RKVwzYxyCM7aZtSniW9r-160" value="Adicionar produto&lt;br&gt;ao carrinho" style="rounded=0;whiteSpace=wrap;html=1;" vertex="1" parent="1">
          <mxGeometry x="4225" y="467" width="120" height="60" as="geometry" />
        </mxCell>
        <mxCell id="RKVwzYxyCM7aZtSniW9r-161" style="edgeStyle=orthogonalEdgeStyle;rounded=0;orthogonalLoop=1;jettySize=auto;html=1;entryX=0.5;entryY=0;entryDx=0;entryDy=0;strokeColor=#000000;strokeWidth=1;exitX=0.5;exitY=0;exitDx=0;exitDy=0;" edge="1" parent="1" source="RKVwzYxyCM7aZtSniW9r-162" target="RKVwzYxyCM7aZtSniW9r-192">
          <mxGeometry relative="1" as="geometry">
            <Array as="points">
              <mxPoint x="4475" y="611.8" />
              <mxPoint x="4810" y="611.8" />
            </Array>
          </mxGeometry>
        </mxCell>
        <mxCell id="RKVwzYxyCM7aZtSniW9r-162" value="Criar carrinho" style="rounded=0;whiteSpace=wrap;html=1;" vertex="1" parent="1">
          <mxGeometry x="4415" y="650.8499999999999" width="120" height="60" as="geometry" />
        </mxCell>
        <mxCell id="RKVwzYxyCM7aZtSniW9r-163" style="edgeStyle=orthogonalEdgeStyle;rounded=0;orthogonalLoop=1;jettySize=auto;html=1;entryX=0.5;entryY=0;entryDx=0;entryDy=0;strokeColor=#000000;strokeWidth=1;" edge="1" parent="1" source="RKVwzYxyCM7aZtSniW9r-164" target="RKVwzYxyCM7aZtSniW9r-167">
          <mxGeometry relative="1" as="geometry" />
        </mxCell>
        <mxCell id="RKVwzYxyCM7aZtSniW9r-164" value="Simular condições&lt;br&gt;&amp;nbsp;de pagamento" style="rounded=0;whiteSpace=wrap;html=1;" vertex="1" parent="1">
          <mxGeometry x="4930" y="616.3" width="120" height="60" as="geometry" />
        </mxCell>
        <mxCell id="RKVwzYxyCM7aZtSniW9r-165" style="edgeStyle=orthogonalEdgeStyle;rounded=0;orthogonalLoop=1;jettySize=auto;html=1;strokeColor=#000000;strokeWidth=1;exitX=1;exitY=0.5;exitDx=0;exitDy=0;entryX=1;entryY=0.5;entryDx=0;entryDy=0;" edge="1" parent="1" source="RKVwzYxyCM7aZtSniW9r-208" target="RKVwzYxyCM7aZtSniW9r-202">
          <mxGeometry relative="1" as="geometry">
            <mxPoint x="5447" y="809.75" as="sourcePoint" />
            <Array as="points">
              <mxPoint x="5758" y="869.75" />
              <mxPoint x="5758" y="681.75" />
            </Array>
          </mxGeometry>
        </mxCell>
        <mxCell id="RKVwzYxyCM7aZtSniW9r-166" style="edgeStyle=orthogonalEdgeStyle;rounded=0;orthogonalLoop=1;jettySize=auto;html=1;entryX=0;entryY=0.5;entryDx=0;entryDy=0;strokeColor=#000000;strokeWidth=1;" edge="1" parent="1" source="RKVwzYxyCM7aZtSniW9r-167" target="RKVwzYxyCM7aZtSniW9r-182">
          <mxGeometry relative="1" as="geometry" />
        </mxCell>
        <mxCell id="RKVwzYxyCM7aZtSniW9r-167" value="Ir para pagamento" style="rounded=0;whiteSpace=wrap;html=1;" vertex="1" parent="1">
          <mxGeometry x="4930" y="711.8" width="120" height="60" as="geometry" />
        </mxCell>
        <mxCell id="RKVwzYxyCM7aZtSniW9r-168" style="edgeStyle=orthogonalEdgeStyle;rounded=0;orthogonalLoop=1;jettySize=auto;html=1;entryX=0;entryY=0.5;entryDx=0;entryDy=0;strokeColor=#000000;strokeWidth=1;" edge="1" parent="1" source="RKVwzYxyCM7aZtSniW9r-169" target="RKVwzYxyCM7aZtSniW9r-171">
          <mxGeometry relative="1" as="geometry" />
        </mxCell>
        <mxCell id="RKVwzYxyCM7aZtSniW9r-169" value="Negociar condições de pagamento" style="rounded=0;whiteSpace=wrap;html=1;" vertex="1" parent="1">
          <mxGeometry x="5140" y="1003.9599999999999" width="120" height="60" as="geometry" />
        </mxCell>
        <mxCell id="RKVwzYxyCM7aZtSniW9r-170" style="edgeStyle=orthogonalEdgeStyle;rounded=0;orthogonalLoop=1;jettySize=auto;html=1;entryX=0.5;entryY=0;entryDx=0;entryDy=0;strokeColor=#000000;strokeWidth=1;exitX=0.5;exitY=1;exitDx=0;exitDy=0;" edge="1" parent="1" source="RKVwzYxyCM7aZtSniW9r-171" target="RKVwzYxyCM7aZtSniW9r-197">
          <mxGeometry relative="1" as="geometry">
            <Array as="points">
              <mxPoint x="5388" y="1103.96" />
              <mxPoint x="4945" y="1103.96" />
            </Array>
          </mxGeometry>
        </mxCell>
        <mxCell id="RKVwzYxyCM7aZtSniW9r-171" value="Finalizar pedido" style="rounded=0;whiteSpace=wrap;html=1;" vertex="1" parent="1">
          <mxGeometry x="5328" y="1003.9599999999999" width="120" height="60" as="geometry" />
        </mxCell>
        <mxCell id="RKVwzYxyCM7aZtSniW9r-172" style="edgeStyle=orthogonalEdgeStyle;rounded=0;orthogonalLoop=1;jettySize=auto;html=1;entryX=0;entryY=0.5;entryDx=0;entryDy=0;strokeColor=#000000;strokeWidth=1;exitX=1;exitY=0.5;exitDx=0;exitDy=0;" edge="1" parent="1" source="RKVwzYxyCM7aZtSniW9r-210" target="RKVwzYxyCM7aZtSniW9r-198">
          <mxGeometry relative="1" as="geometry">
            <mxPoint x="5770" y="1219.05" as="sourcePoint" />
          </mxGeometry>
        </mxCell>
        <mxCell id="RKVwzYxyCM7aZtSniW9r-173" style="edgeStyle=orthogonalEdgeStyle;rounded=0;orthogonalLoop=1;jettySize=auto;html=1;endArrow=block;endFill=1;strokeColor=#0A0A0A;strokeWidth=1;exitX=1;exitY=0.5;exitDx=0;exitDy=0;entryX=0;entryY=0.5;entryDx=0;entryDy=0;" edge="1" parent="1" source="RKVwzYxyCM7aZtSniW9r-174" target="RKVwzYxyCM7aZtSniW9r-240">
          <mxGeometry relative="1" as="geometry">
            <mxPoint x="4650" y="1463.7499999999998" as="targetPoint" />
            <Array as="points">
              <mxPoint x="4540" y="1523" />
              <mxPoint x="4540" y="1463" />
            </Array>
          </mxGeometry>
        </mxCell>
        <mxCell id="RKVwzYxyCM7aZtSniW9r-174" value="Buscar por documento" style="rounded=0;whiteSpace=wrap;html=1;" vertex="1" parent="1">
          <mxGeometry x="4340" y="1493.14" width="120" height="60" as="geometry" />
        </mxCell>
        <mxCell id="RKVwzYxyCM7aZtSniW9r-175" value="Login" style="rounded=0;whiteSpace=wrap;html=1;fontStyle=1;strokeWidth=2;fillColor=#dae8fc;strokeColor=#6c8ebf;" vertex="1" parent="1">
          <mxGeometry x="3850" y="313.75" width="120" height="60" as="geometry" />
        </mxCell>
        <mxCell id="RKVwzYxyCM7aZtSniW9r-176" style="edgeStyle=orthogonalEdgeStyle;rounded=0;orthogonalLoop=1;jettySize=auto;html=1;strokeColor=#000000;strokeWidth=1;" edge="1" parent="1" source="RKVwzYxyCM7aZtSniW9r-177" target="RKVwzYxyCM7aZtSniW9r-160">
          <mxGeometry relative="1" as="geometry" />
        </mxCell>
        <mxCell id="RKVwzYxyCM7aZtSniW9r-177" value="Pesquisar produtos" style="rounded=0;whiteSpace=wrap;html=1;" vertex="1" parent="1">
          <mxGeometry x="4040" y="467.5" width="120" height="60" as="geometry" />
        </mxCell>
        <mxCell id="RKVwzYxyCM7aZtSniW9r-178" style="edgeStyle=orthogonalEdgeStyle;rounded=0;orthogonalLoop=1;jettySize=auto;html=1;entryX=0.5;entryY=0;entryDx=0;entryDy=0;strokeColor=#000000;strokeWidth=1;" edge="1" parent="1" source="RKVwzYxyCM7aZtSniW9r-179" target="RKVwzYxyCM7aZtSniW9r-177">
          <mxGeometry relative="1" as="geometry" />
        </mxCell>
        <mxCell id="RKVwzYxyCM7aZtSniW9r-179" value="" style="ellipse;whiteSpace=wrap;html=1;aspect=fixed;strokeWidth=2;" vertex="1" parent="1">
          <mxGeometry x="4085" y="333.75" width="30" height="30" as="geometry" />
        </mxCell>
        <mxCell id="RKVwzYxyCM7aZtSniW9r-180" value="No" style="edgeStyle=orthogonalEdgeStyle;rounded=0;orthogonalLoop=1;jettySize=auto;html=1;strokeColor=#000000;strokeWidth=1;exitX=1;exitY=0.5;exitDx=0;exitDy=0;entryX=0.5;entryY=0;entryDx=0;entryDy=0;" edge="1" parent="1" source="RKVwzYxyCM7aZtSniW9r-182" target="RKVwzYxyCM7aZtSniW9r-205">
          <mxGeometry relative="1" as="geometry" />
        </mxCell>
        <mxCell id="RKVwzYxyCM7aZtSniW9r-181" value="Yes" style="edgeStyle=orthogonalEdgeStyle;rounded=0;orthogonalLoop=1;jettySize=auto;html=1;strokeColor=#000000;strokeWidth=1;exitX=0.5;exitY=1;exitDx=0;exitDy=0;" edge="1" parent="1" source="RKVwzYxyCM7aZtSniW9r-182" target="RKVwzYxyCM7aZtSniW9r-169">
          <mxGeometry relative="1" as="geometry">
            <mxPoint x="5200" y="763.7500000000002" as="sourcePoint" />
          </mxGeometry>
        </mxCell>
        <mxCell id="RKVwzYxyCM7aZtSniW9r-182" value="Cliente identificado?" style="rhombus;whiteSpace=wrap;html=1;strokeWidth=1;align=center;verticalAlign=middle;" vertex="1" parent="1">
          <mxGeometry x="5145" y="641.59" width="110" height="80" as="geometry" />
        </mxCell>
        <mxCell id="RKVwzYxyCM7aZtSniW9r-183" value="Yes" style="edgeStyle=orthogonalEdgeStyle;rounded=0;orthogonalLoop=1;jettySize=auto;html=1;entryX=0;entryY=0.5;entryDx=0;entryDy=0;strokeColor=#000000;strokeWidth=1;" edge="1" parent="1" source="RKVwzYxyCM7aZtSniW9r-185" target="RKVwzYxyCM7aZtSniW9r-188">
          <mxGeometry relative="1" as="geometry" />
        </mxCell>
        <mxCell id="RKVwzYxyCM7aZtSniW9r-184" value="No" style="edgeStyle=orthogonalEdgeStyle;rounded=0;orthogonalLoop=1;jettySize=auto;html=1;strokeColor=#000000;strokeWidth=1;exitX=0.5;exitY=1;exitDx=0;exitDy=0;" edge="1" parent="1" source="RKVwzYxyCM7aZtSniW9r-185">
          <mxGeometry relative="1" as="geometry">
            <mxPoint x="4479.999999999999" y="711.8" as="targetPoint" />
            <Array as="points">
              <mxPoint x="4100" y="771.8" />
              <mxPoint x="4480" y="771.8" />
            </Array>
          </mxGeometry>
        </mxCell>
        <mxCell id="RKVwzYxyCM7aZtSniW9r-185" value="Cliente &lt;br&gt;identificado?" style="rhombus;whiteSpace=wrap;html=1;strokeWidth=1;align=center;verticalAlign=middle;" vertex="1" parent="1">
          <mxGeometry x="4045" y="640.85" width="110" height="80" as="geometry" />
        </mxCell>
        <mxCell id="RKVwzYxyCM7aZtSniW9r-186" value="No" style="edgeStyle=orthogonalEdgeStyle;rounded=0;orthogonalLoop=1;jettySize=auto;html=1;entryX=0;entryY=0.5;entryDx=0;entryDy=0;strokeColor=#000000;strokeWidth=1;" edge="1" parent="1" source="RKVwzYxyCM7aZtSniW9r-188" target="RKVwzYxyCM7aZtSniW9r-162">
          <mxGeometry relative="1" as="geometry" />
        </mxCell>
        <mxCell id="RKVwzYxyCM7aZtSniW9r-187" value="Yes" style="edgeStyle=orthogonalEdgeStyle;rounded=0;orthogonalLoop=1;jettySize=auto;html=1;entryX=0.5;entryY=1;entryDx=0;entryDy=0;strokeColor=#000000;strokeWidth=1;" edge="1" parent="1" source="RKVwzYxyCM7aZtSniW9r-188" target="RKVwzYxyCM7aZtSniW9r-190">
          <mxGeometry relative="1" as="geometry">
            <Array as="points">
              <mxPoint x="4285" y="751.8" />
              <mxPoint x="4635" y="751.8" />
            </Array>
          </mxGeometry>
        </mxCell>
        <mxCell id="RKVwzYxyCM7aZtSniW9r-188" value="Deseja carregar o carrinho em aberto?" style="rhombus;whiteSpace=wrap;html=1;strokeWidth=1;align=center;verticalAlign=middle;" vertex="1" parent="1">
          <mxGeometry x="4210" y="641.59" width="139" height="80" as="geometry" />
        </mxCell>
        <mxCell id="RKVwzYxyCM7aZtSniW9r-189" style="edgeStyle=orthogonalEdgeStyle;rounded=0;orthogonalLoop=1;jettySize=auto;html=1;entryX=0;entryY=0.5;entryDx=0;entryDy=0;strokeColor=#000000;strokeWidth=1;" edge="1" parent="1" source="RKVwzYxyCM7aZtSniW9r-190" target="RKVwzYxyCM7aZtSniW9r-192">
          <mxGeometry relative="1" as="geometry" />
        </mxCell>
        <mxCell id="RKVwzYxyCM7aZtSniW9r-190" value="Carregar carrinho" style="rounded=0;whiteSpace=wrap;html=1;" vertex="1" parent="1">
          <mxGeometry x="4575" y="650.8499999999999" width="120" height="60" as="geometry" />
        </mxCell>
        <mxCell id="RKVwzYxyCM7aZtSniW9r-191" style="edgeStyle=orthogonalEdgeStyle;rounded=0;orthogonalLoop=1;jettySize=auto;html=1;entryX=0;entryY=0.5;entryDx=0;entryDy=0;strokeColor=#000000;strokeWidth=1;exitX=1;exitY=0.5;exitDx=0;exitDy=0;" edge="1" parent="1" source="RKVwzYxyCM7aZtSniW9r-192" target="RKVwzYxyCM7aZtSniW9r-164">
          <mxGeometry relative="1" as="geometry">
            <mxPoint x="4870" y="691.3833333333334" as="sourcePoint" />
          </mxGeometry>
        </mxCell>
        <mxCell id="RKVwzYxyCM7aZtSniW9r-192" value="Configuar produto(s)" style="rounded=0;whiteSpace=wrap;html=1;" vertex="1" parent="1">
          <mxGeometry x="4750" y="650.85" width="120" height="60" as="geometry" />
        </mxCell>
        <mxCell id="RKVwzYxyCM7aZtSniW9r-193" style="edgeStyle=orthogonalEdgeStyle;rounded=0;orthogonalLoop=1;jettySize=auto;html=1;entryX=0;entryY=0.5;entryDx=0;entryDy=0;strokeColor=#000000;strokeWidth=1;" edge="1" parent="1" source="RKVwzYxyCM7aZtSniW9r-194" target="RKVwzYxyCM7aZtSniW9r-213">
          <mxGeometry relative="1" as="geometry">
            <mxPoint x="5239.999999999999" y="1219.0599999999997" as="targetPoint" />
          </mxGeometry>
        </mxCell>
        <mxCell id="RKVwzYxyCM7aZtSniW9r-194" value="Preencher dados complementarres" style="rounded=0;whiteSpace=wrap;html=1;" vertex="1" parent="1">
          <mxGeometry x="5070" y="1189.06" width="120" height="60" as="geometry" />
        </mxCell>
        <mxCell id="RKVwzYxyCM7aZtSniW9r-195" value="Yes" style="edgeStyle=orthogonalEdgeStyle;rounded=0;orthogonalLoop=1;jettySize=auto;html=1;entryX=0;entryY=0.5;entryDx=0;entryDy=0;strokeColor=#000000;strokeWidth=1;" edge="1" parent="1" source="RKVwzYxyCM7aZtSniW9r-197" target="RKVwzYxyCM7aZtSniW9r-194">
          <mxGeometry relative="1" as="geometry" />
        </mxCell>
        <mxCell id="RKVwzYxyCM7aZtSniW9r-196" value="No" style="edgeStyle=orthogonalEdgeStyle;rounded=0;orthogonalLoop=1;jettySize=auto;html=1;strokeColor=#000000;strokeWidth=1;exitX=0.5;exitY=1;exitDx=0;exitDy=0;entryX=0.5;entryY=1;entryDx=0;entryDy=0;" edge="1" parent="1" source="RKVwzYxyCM7aZtSniW9r-197" target="RKVwzYxyCM7aZtSniW9r-213">
          <mxGeometry relative="1" as="geometry">
            <mxPoint x="5290" y="1324.05" as="targetPoint" />
            <Array as="points">
              <mxPoint x="4945" y="1291.79" />
              <mxPoint x="5302" y="1291.79" />
            </Array>
          </mxGeometry>
        </mxCell>
        <mxCell id="RKVwzYxyCM7aZtSniW9r-197" value="Dados&lt;br&gt;complementares?" style="rhombus;whiteSpace=wrap;html=1;strokeWidth=1;align=center;verticalAlign=middle;" vertex="1" parent="1">
          <mxGeometry x="4870" y="1179.06" width="150" height="80" as="geometry" />
        </mxCell>
        <mxCell id="RKVwzYxyCM7aZtSniW9r-198" value="" style="ellipse;whiteSpace=wrap;html=1;aspect=fixed;strokeWidth=2;fillColor=#212121;" vertex="1" parent="1">
          <mxGeometry x="5800" y="1204.06" width="30" height="30" as="geometry" />
        </mxCell>
        <mxCell id="RKVwzYxyCM7aZtSniW9r-199" style="edgeStyle=orthogonalEdgeStyle;rounded=0;orthogonalLoop=1;jettySize=auto;html=1;entryX=0;entryY=0.5;entryDx=0;entryDy=0;strokeColor=#000000;strokeWidth=1;" edge="1" parent="1" source="RKVwzYxyCM7aZtSniW9r-200" target="RKVwzYxyCM7aZtSniW9r-236">
          <mxGeometry relative="1" as="geometry" />
        </mxCell>
        <mxCell id="RKVwzYxyCM7aZtSniW9r-200" value="" style="ellipse;whiteSpace=wrap;html=1;aspect=fixed;strokeWidth=2;" vertex="1" parent="1">
          <mxGeometry x="4030" y="1448.75" width="30" height="30" as="geometry" />
        </mxCell>
        <mxCell id="RKVwzYxyCM7aZtSniW9r-201" style="edgeStyle=orthogonalEdgeStyle;rounded=0;orthogonalLoop=1;jettySize=auto;html=1;entryX=0.5;entryY=0;entryDx=0;entryDy=0;strokeColor=#000000;strokeWidth=1;" edge="1" parent="1" source="RKVwzYxyCM7aZtSniW9r-202" target="RKVwzYxyCM7aZtSniW9r-182">
          <mxGeometry relative="1" as="geometry">
            <Array as="points">
              <mxPoint x="5538" y="621.8" />
              <mxPoint x="5200" y="621.8" />
            </Array>
          </mxGeometry>
        </mxCell>
        <mxCell id="RKVwzYxyCM7aZtSniW9r-202" value="Atrelar carrinho ao cliente" style="rounded=0;whiteSpace=wrap;html=1;" vertex="1" parent="1">
          <mxGeometry x="5478" y="651.85" width="120" height="60" as="geometry" />
        </mxCell>
        <mxCell id="RKVwzYxyCM7aZtSniW9r-203" style="edgeStyle=orthogonalEdgeStyle;rounded=0;orthogonalLoop=1;jettySize=auto;html=1;entryX=0;entryY=0.5;entryDx=0;entryDy=0;strokeColor=#000000;strokeWidth=1;" edge="1" parent="1" source="RKVwzYxyCM7aZtSniW9r-205" target="RKVwzYxyCM7aZtSniW9r-207">
          <mxGeometry relative="1" as="geometry" />
        </mxCell>
        <mxCell id="RKVwzYxyCM7aZtSniW9r-204" value="Yes" style="edgeStyle=orthogonalEdgeStyle;rounded=0;orthogonalLoop=1;jettySize=auto;html=1;entryX=1;entryY=0.5;entryDx=0;entryDy=0;strokeColor=#000000;strokeWidth=1;exitX=0.5;exitY=1;exitDx=0;exitDy=0;" edge="1" parent="1" source="RKVwzYxyCM7aZtSniW9r-207" target="RKVwzYxyCM7aZtSniW9r-202">
          <mxGeometry relative="1" as="geometry">
            <Array as="points">
              <mxPoint x="5480" y="933.75" />
              <mxPoint x="5758" y="933.75" />
              <mxPoint x="5758" y="681.75" />
            </Array>
          </mxGeometry>
        </mxCell>
        <mxCell id="RKVwzYxyCM7aZtSniW9r-205" value="Identificar Cliente" style="rounded=0;whiteSpace=wrap;html=1;" vertex="1" parent="1">
          <mxGeometry x="5255" y="840" width="120" height="60" as="geometry" />
        </mxCell>
        <mxCell id="RKVwzYxyCM7aZtSniW9r-206" value="No" style="edgeStyle=orthogonalEdgeStyle;rounded=0;orthogonalLoop=1;jettySize=auto;html=1;entryX=0;entryY=0.5;entryDx=0;entryDy=0;strokeColor=#000000;strokeWidth=1;" edge="1" parent="1" source="RKVwzYxyCM7aZtSniW9r-207" target="RKVwzYxyCM7aZtSniW9r-208">
          <mxGeometry relative="1" as="geometry" />
        </mxCell>
        <mxCell id="RKVwzYxyCM7aZtSniW9r-207" value="Cliente possui cadastro?" style="rhombus;whiteSpace=wrap;html=1;strokeWidth=1;align=center;verticalAlign=middle;" vertex="1" parent="1">
          <mxGeometry x="5425" y="830" width="110" height="80" as="geometry" />
        </mxCell>
        <mxCell id="RKVwzYxyCM7aZtSniW9r-208" value="Cadastrar cliente" style="rounded=0;whiteSpace=wrap;html=1;" vertex="1" parent="1">
          <mxGeometry x="5585" y="840" width="120" height="60" as="geometry" />
        </mxCell>
        <mxCell id="RKVwzYxyCM7aZtSniW9r-209" style="edgeStyle=none;rounded=0;orthogonalLoop=1;jettySize=auto;html=1;dashed=1;startArrow=none;startFill=0;endArrow=none;endFill=0;fontSize=9;" edge="1" parent="1" source="RKVwzYxyCM7aZtSniW9r-210" target="RKVwzYxyCM7aZtSniW9r-248">
          <mxGeometry relative="1" as="geometry" />
        </mxCell>
        <mxCell id="RKVwzYxyCM7aZtSniW9r-210" value="Apresentar resumo &lt;br&gt;e processar pedido" style="rounded=0;whiteSpace=wrap;html=1;" vertex="1" parent="1">
          <mxGeometry x="5615" y="1189.06" width="120" height="60" as="geometry" />
        </mxCell>
        <mxCell id="RKVwzYxyCM7aZtSniW9r-211" value="Yes" style="edgeStyle=orthogonalEdgeStyle;rounded=0;orthogonalLoop=1;jettySize=auto;html=1;strokeColor=#000000;strokeWidth=1;" edge="1" parent="1" source="RKVwzYxyCM7aZtSniW9r-213" target="RKVwzYxyCM7aZtSniW9r-215">
          <mxGeometry relative="1" as="geometry" />
        </mxCell>
        <mxCell id="RKVwzYxyCM7aZtSniW9r-212" value="No" style="edgeStyle=orthogonalEdgeStyle;rounded=0;orthogonalLoop=1;jettySize=auto;html=1;entryX=0.554;entryY=0.004;entryDx=0;entryDy=0;entryPerimeter=0;strokeColor=#000000;strokeWidth=1;" edge="1" parent="1" source="RKVwzYxyCM7aZtSniW9r-213" target="RKVwzYxyCM7aZtSniW9r-210">
          <mxGeometry relative="1" as="geometry">
            <Array as="points">
              <mxPoint x="5302" y="1158.79" />
              <mxPoint x="5682" y="1158.79" />
            </Array>
          </mxGeometry>
        </mxCell>
        <mxCell id="RKVwzYxyCM7aZtSniW9r-213" value="Necessita&lt;br&gt;aprovação?" style="rhombus;whiteSpace=wrap;html=1;strokeWidth=1;align=center;verticalAlign=middle;" vertex="1" parent="1">
          <mxGeometry x="5243" y="1179.06" width="117" height="80" as="geometry" />
        </mxCell>
        <mxCell id="RKVwzYxyCM7aZtSniW9r-214" style="edgeStyle=orthogonalEdgeStyle;rounded=0;orthogonalLoop=1;jettySize=auto;html=1;entryX=0;entryY=0.5;entryDx=0;entryDy=0;strokeColor=#000000;strokeWidth=1;" edge="1" parent="1" source="RKVwzYxyCM7aZtSniW9r-215" target="RKVwzYxyCM7aZtSniW9r-210">
          <mxGeometry relative="1" as="geometry" />
        </mxCell>
        <mxCell id="RKVwzYxyCM7aZtSniW9r-215" value="Aprovação" style="rounded=0;whiteSpace=wrap;html=1;" vertex="1" parent="1">
          <mxGeometry x="5425" y="1189.06" width="120" height="60" as="geometry" />
        </mxCell>
        <mxCell id="RKVwzYxyCM7aZtSniW9r-216" value="" style="endArrow=none;html=1;strokeWidth=1;strokeColor=#A6A6A6;" edge="1" parent="1">
          <mxGeometry width="50" height="50" relative="1" as="geometry">
            <mxPoint x="3820" y="964.21" as="sourcePoint" />
            <mxPoint x="6150" y="963.75" as="targetPoint" />
          </mxGeometry>
        </mxCell>
        <mxCell id="RKVwzYxyCM7aZtSniW9r-217" value="" style="endArrow=none;html=1;strokeWidth=1;strokeColor=#A6A6A6;" edge="1" parent="1">
          <mxGeometry width="50" height="50" relative="1" as="geometry">
            <mxPoint x="3820" y="1130.21" as="sourcePoint" />
            <mxPoint x="6150" y="1129.75" as="targetPoint" />
          </mxGeometry>
        </mxCell>
        <mxCell id="RKVwzYxyCM7aZtSniW9r-218" value="Login" style="rounded=0;whiteSpace=wrap;html=1;fontStyle=1;strokeWidth=2;fillColor=#dae8fc;strokeColor=#6c8ebf;" vertex="1" parent="1">
          <mxGeometry x="5970" y="317.4" width="120" height="60" as="geometry" />
        </mxCell>
        <mxCell id="RKVwzYxyCM7aZtSniW9r-219" value="Catalogo" style="rounded=0;whiteSpace=wrap;html=1;fontStyle=1;strokeWidth=2;fillColor=#dae8fc;strokeColor=#6c8ebf;" vertex="1" parent="1">
          <mxGeometry x="5970" y="471.15" width="120" height="60" as="geometry" />
        </mxCell>
        <mxCell id="RKVwzYxyCM7aZtSniW9r-220" value="Carrinho" style="rounded=0;whiteSpace=wrap;html=1;fontStyle=1;strokeWidth=2;fillColor=#dae8fc;strokeColor=#6c8ebf;" vertex="1" parent="1">
          <mxGeometry x="5970" y="655.5" width="120" height="60" as="geometry" />
        </mxCell>
        <mxCell id="RKVwzYxyCM7aZtSniW9r-221" value="Atendimento/CRM" style="rounded=0;whiteSpace=wrap;html=1;fontStyle=1;strokeWidth=2;fillColor=#dae8fc;strokeColor=#6c8ebf;" vertex="1" parent="1">
          <mxGeometry x="5970" y="853.65" width="120" height="60" as="geometry" />
        </mxCell>
        <mxCell id="RKVwzYxyCM7aZtSniW9r-222" value="Negociação" style="rounded=0;whiteSpace=wrap;html=1;fontStyle=1;strokeWidth=2;fillColor=#dae8fc;strokeColor=#6c8ebf;" vertex="1" parent="1">
          <mxGeometry x="5970" y="1021.4" width="120" height="60" as="geometry" />
        </mxCell>
        <mxCell id="RKVwzYxyCM7aZtSniW9r-223" value="Checkout" style="rounded=0;whiteSpace=wrap;html=1;fontStyle=1;strokeWidth=2;fillColor=#dae8fc;strokeColor=#6c8ebf;" vertex="1" parent="1">
          <mxGeometry x="5970" y="1195.44" width="120" height="60" as="geometry" />
        </mxCell>
        <mxCell id="RKVwzYxyCM7aZtSniW9r-224" value="PDV" style="rounded=0;whiteSpace=wrap;html=1;fontStyle=1;strokeWidth=2;fillColor=#dae8fc;strokeColor=#6c8ebf;" vertex="1" parent="1">
          <mxGeometry x="5970" y="1434.96" width="120" height="60" as="geometry" />
        </mxCell>
        <mxCell id="RKVwzYxyCM7aZtSniW9r-225" style="edgeStyle=orthogonalEdgeStyle;curved=1;rounded=0;orthogonalLoop=1;jettySize=auto;html=1;endArrow=block;endFill=1;strokeColor=#0A0A0A;strokeWidth=1;" edge="1" parent="1" source="RKVwzYxyCM7aZtSniW9r-226" target="RKVwzYxyCM7aZtSniW9r-228">
          <mxGeometry relative="1" as="geometry" />
        </mxCell>
        <mxCell id="RKVwzYxyCM7aZtSniW9r-226" value="Carregar todos os documentos atrelados" style="rounded=0;whiteSpace=wrap;html=1;" vertex="1" parent="1">
          <mxGeometry x="5260" y="1433.9599999999998" width="120" height="60" as="geometry" />
        </mxCell>
        <mxCell id="RKVwzYxyCM7aZtSniW9r-227" style="edgeStyle=orthogonalEdgeStyle;curved=1;rounded=0;orthogonalLoop=1;jettySize=auto;html=1;entryX=0;entryY=0.5;entryDx=0;entryDy=0;endArrow=block;endFill=1;strokeColor=#0A0A0A;strokeWidth=1;" edge="1" parent="1" source="RKVwzYxyCM7aZtSniW9r-228" target="RKVwzYxyCM7aZtSniW9r-229">
          <mxGeometry relative="1" as="geometry" />
        </mxCell>
        <mxCell id="RKVwzYxyCM7aZtSniW9r-228" value="Fluxo de pagamento" style="rounded=0;whiteSpace=wrap;html=1;" vertex="1" parent="1">
          <mxGeometry x="5450" y="1433.9599999999998" width="120" height="60" as="geometry" />
        </mxCell>
        <mxCell id="RKVwzYxyCM7aZtSniW9r-229" value="" style="ellipse;whiteSpace=wrap;html=1;aspect=fixed;strokeWidth=2;fillColor=#212121;" vertex="1" parent="1">
          <mxGeometry x="5640" y="1448.9599999999998" width="30" height="30" as="geometry" />
        </mxCell>
        <mxCell id="RKVwzYxyCM7aZtSniW9r-230" style="edgeStyle=orthogonalEdgeStyle;rounded=0;orthogonalLoop=1;jettySize=auto;html=1;endArrow=block;endFill=1;strokeColor=#0A0A0A;strokeWidth=1;" edge="1" parent="1" source="RKVwzYxyCM7aZtSniW9r-231" target="RKVwzYxyCM7aZtSniW9r-226">
          <mxGeometry relative="1" as="geometry" />
        </mxCell>
        <mxCell id="RKVwzYxyCM7aZtSniW9r-231" value="Buscar na &lt;br&gt;estrutura atual" style="rounded=0;whiteSpace=wrap;html=1;" vertex="1" parent="1">
          <mxGeometry x="5080" y="1433.75" width="120" height="60" as="geometry" />
        </mxCell>
        <mxCell id="RKVwzYxyCM7aZtSniW9r-232" style="edgeStyle=orthogonalEdgeStyle;rounded=0;orthogonalLoop=1;jettySize=auto;html=1;endArrow=block;endFill=1;strokeColor=#0A0A0A;strokeWidth=1;entryX=0;entryY=0.5;entryDx=0;entryDy=0;" edge="1" parent="1" source="RKVwzYxyCM7aZtSniW9r-233" target="RKVwzYxyCM7aZtSniW9r-240">
          <mxGeometry relative="1" as="geometry">
            <mxPoint x="4650.39375" y="1464.75" as="targetPoint" />
            <Array as="points">
              <mxPoint x="4540" y="1404" />
              <mxPoint x="4540" y="1463" />
            </Array>
          </mxGeometry>
        </mxCell>
        <mxCell id="RKVwzYxyCM7aZtSniW9r-233" value="Buscar por identificação do cliente" style="rounded=0;whiteSpace=wrap;html=1;" vertex="1" parent="1">
          <mxGeometry x="4340" y="1374.3500000000001" width="120" height="60" as="geometry" />
        </mxCell>
        <mxCell id="RKVwzYxyCM7aZtSniW9r-234" value="No" style="edgeStyle=orthogonalEdgeStyle;rounded=0;orthogonalLoop=1;jettySize=auto;html=1;entryX=0;entryY=0.5;entryDx=0;entryDy=0;endArrow=block;endFill=1;strokeColor=#0A0A0A;strokeWidth=1;" edge="1" parent="1" source="RKVwzYxyCM7aZtSniW9r-236" target="RKVwzYxyCM7aZtSniW9r-174">
          <mxGeometry relative="1" as="geometry">
            <Array as="points">
              <mxPoint x="4208" y="1523.75" />
            </Array>
          </mxGeometry>
        </mxCell>
        <mxCell id="RKVwzYxyCM7aZtSniW9r-235" value="Yes" style="edgeStyle=orthogonalEdgeStyle;rounded=0;orthogonalLoop=1;jettySize=auto;html=1;endArrow=block;endFill=1;strokeColor=#0A0A0A;strokeWidth=1;exitX=0.5;exitY=0;exitDx=0;exitDy=0;entryX=0;entryY=0.5;entryDx=0;entryDy=0;" edge="1" parent="1" source="RKVwzYxyCM7aZtSniW9r-236" target="RKVwzYxyCM7aZtSniW9r-233">
          <mxGeometry relative="1" as="geometry">
            <Array as="points">
              <mxPoint x="4208" y="1404" />
              <mxPoint x="4310" y="1404" />
            </Array>
            <mxPoint x="4370" y="1450" as="targetPoint" />
          </mxGeometry>
        </mxCell>
        <mxCell id="RKVwzYxyCM7aZtSniW9r-236" value="Buscar por &lt;br&gt;identificação do cliente?" style="rhombus;whiteSpace=wrap;html=1;strokeWidth=1;align=center;verticalAlign=middle;" vertex="1" parent="1">
          <mxGeometry x="4115" y="1423.75" width="185" height="80" as="geometry" />
        </mxCell>
        <mxCell id="RKVwzYxyCM7aZtSniW9r-237" value="No" style="edgeStyle=orthogonalEdgeStyle;rounded=0;orthogonalLoop=1;jettySize=auto;html=1;endArrow=block;endFill=1;strokeColor=#0A0A0A;strokeWidth=1;exitX=1;exitY=0.5;exitDx=0;exitDy=0;" edge="1" parent="1" source="RKVwzYxyCM7aZtSniW9r-247" target="RKVwzYxyCM7aZtSniW9r-231">
          <mxGeometry relative="1" as="geometry">
            <mxPoint x="5060" y="1410" as="sourcePoint" />
            <Array as="points">
              <mxPoint x="5000" y="1464" />
            </Array>
          </mxGeometry>
        </mxCell>
        <mxCell id="RKVwzYxyCM7aZtSniW9r-238" value="Yes" style="edgeStyle=orthogonalEdgeStyle;rounded=0;orthogonalLoop=1;jettySize=auto;html=1;entryX=0.5;entryY=0;entryDx=0;entryDy=0;endArrow=block;endFill=1;strokeColor=#0A0A0A;strokeWidth=1;exitX=1.269;exitY=0.133;exitDx=0;exitDy=0;exitPerimeter=0;" edge="1" parent="1" source="RKVwzYxyCM7aZtSniW9r-247" target="RKVwzYxyCM7aZtSniW9r-226">
          <mxGeometry relative="1" as="geometry">
            <Array as="points">
              <mxPoint x="5140" y="1413" />
              <mxPoint x="5320" y="1414" />
            </Array>
            <mxPoint x="5100" y="1386" as="sourcePoint" />
          </mxGeometry>
        </mxCell>
        <mxCell id="RKVwzYxyCM7aZtSniW9r-239" style="edgeStyle=orthogonalEdgeStyle;rounded=0;orthogonalLoop=1;jettySize=auto;html=1;startArrow=none;startFill=0;entryX=0;entryY=0.524;entryDx=0;entryDy=0;entryPerimeter=0;" edge="1" parent="1" source="RKVwzYxyCM7aZtSniW9r-240" target="RKVwzYxyCM7aZtSniW9r-246">
          <mxGeometry relative="1" as="geometry">
            <mxPoint x="4820" y="1463" as="targetPoint" />
          </mxGeometry>
        </mxCell>
        <mxCell id="RKVwzYxyCM7aZtSniW9r-240" value="Buscar na nova estrutura &lt;br&gt;de multiplos itens" style="rounded=0;whiteSpace=wrap;html=1;" vertex="1" parent="1">
          <mxGeometry x="4620" y="1433.14" width="120" height="60" as="geometry" />
        </mxCell>
        <mxCell id="RKVwzYxyCM7aZtSniW9r-241" value="key:evento_fechamento_integrado" style="outlineConnect=0;dashed=0;verticalLabelPosition=bottom;verticalAlign=top;align=center;html=1;shape=mxgraph.aws3.topic;fillColor=#5294CF;gradientColor=none;" vertex="1" parent="1">
          <mxGeometry x="1650.88" y="594.05" width="30" height="44" as="geometry" />
        </mxCell>
        <mxCell id="RKVwzYxyCM7aZtSniW9r-242" style="rounded=0;orthogonalLoop=1;jettySize=auto;html=1;dashed=1;endArrow=none;endFill=0;strokeColor=#0A0A0A;strokeWidth=1;" edge="1" parent="1" target="RKVwzYxyCM7aZtSniW9r-244">
          <mxGeometry relative="1" as="geometry">
            <mxPoint x="5320" y="1493.75" as="sourcePoint" />
          </mxGeometry>
        </mxCell>
        <mxCell id="RKVwzYxyCM7aZtSniW9r-243" style="edgeStyle=orthogonalEdgeStyle;rounded=0;orthogonalLoop=1;jettySize=auto;html=1;dashed=1;endArrow=block;endFill=1;strokeColor=#0A0A0A;strokeWidth=1;entryX=0.5;entryY=1;entryDx=0;entryDy=0;" edge="1" parent="1" source="RKVwzYxyCM7aZtSniW9r-244" target="RKVwzYxyCM7aZtSniW9r-229">
          <mxGeometry relative="1" as="geometry">
            <mxPoint x="5660" y="1513.75" as="targetPoint" />
          </mxGeometry>
        </mxCell>
        <mxCell id="RKVwzYxyCM7aZtSniW9r-244" value="Caso ocorra algum problema no geração de um dos documentos, o operador de caixa deverá direcionar o cliente para o vendedor" style="rounded=0;whiteSpace=wrap;html=1;fillColor=#fff2cc;strokeColor=#d6b656;" vertex="1" parent="1">
          <mxGeometry x="5288" y="1533.75" width="310" height="59.25" as="geometry" />
        </mxCell>
        <mxCell id="RKVwzYxyCM7aZtSniW9r-245" value="Consulta efetivada com sucesso?" style="rhombus;whiteSpace=wrap;html=1;strokeWidth=1;align=center;verticalAlign=middle;" vertex="1" parent="1">
          <mxGeometry x="4820" y="1386.44" width="170" height="80" as="geometry" />
        </mxCell>
        <mxCell id="RKVwzYxyCM7aZtSniW9r-246" value="" style="rounded=0;whiteSpace=wrap;html=1;fillColor=#2B2B2B;" vertex="1" parent="1">
          <mxGeometry x="4810" y="1396.5700000000002" width="5" height="126.99" as="geometry" />
        </mxCell>
        <mxCell id="RKVwzYxyCM7aZtSniW9r-247" value="" style="rounded=0;whiteSpace=wrap;html=1;fillColor=#2B2B2B;" vertex="1" parent="1">
          <mxGeometry x="4995" y="1396.5700000000002" width="5" height="126.99" as="geometry" />
        </mxCell>
        <mxCell id="RKVwzYxyCM7aZtSniW9r-248" value="(PDV)&lt;br&gt;&lt;br style=&quot;font-size: 9px&quot;&gt;Identificar documentos que são do fluxo de multiplos itens" style="shape=note;whiteSpace=wrap;html=1;backgroundOutline=1;darkOpacity=0.05;fillColor=#fff2cc;strokeColor=#d6b656;fontSize=9;size=23;" vertex="1" parent="1">
          <mxGeometry x="5770" y="1090" width="80" height="80.94" as="geometry" />
        </mxCell>
        <mxCell id="RKVwzYxyCM7aZtSniW9r-249" value="key:evento_checkout_aprovacao_solicitada" style="outlineConnect=0;dashed=0;verticalLabelPosition=bottom;verticalAlign=top;align=center;html=1;shape=mxgraph.aws3.topic;fillColor=#5294CF;gradientColor=none;" vertex="1" parent="1">
          <mxGeometry x="2050" y="801.4" width="30" height="44.5" as="geometry" />
        </mxCell>
        <mxCell id="RKVwzYxyCM7aZtSniW9r-250" value="key:evento_desconto_aprovado_recusado" style="outlineConnect=0;dashed=0;verticalLabelPosition=bottom;verticalAlign=top;align=center;html=1;shape=mxgraph.aws3.topic;fillColor=#5294CF;gradientColor=none;" vertex="1" parent="1">
          <mxGeometry x="2230" y="932.7500000000001" width="30" height="44.5" as="geometry" />
        </mxCell>
        <mxCell id="RKVwzYxyCM7aZtSniW9r-251" style="edgeStyle=orthogonalEdgeStyle;curved=1;rounded=0;orthogonalLoop=1;jettySize=auto;html=1;entryX=0;entryY=0.5;entryDx=0;entryDy=0;startArrow=block;startFill=1;endArrow=block;endFill=1;" edge="1" parent="1" source="RKVwzYxyCM7aZtSniW9r-256" target="RKVwzYxyCM7aZtSniW9r-261">
          <mxGeometry relative="1" as="geometry" />
        </mxCell>
        <mxCell id="RKVwzYxyCM7aZtSniW9r-252" style="edgeStyle=orthogonalEdgeStyle;curved=1;rounded=0;orthogonalLoop=1;jettySize=auto;html=1;entryX=0;entryY=0.5;entryDx=0;entryDy=0;startArrow=block;startFill=1;endArrow=block;endFill=1;" edge="1" parent="1" source="RKVwzYxyCM7aZtSniW9r-256" target="RKVwzYxyCM7aZtSniW9r-257">
          <mxGeometry relative="1" as="geometry" />
        </mxCell>
        <mxCell id="RKVwzYxyCM7aZtSniW9r-253" style="edgeStyle=orthogonalEdgeStyle;curved=1;rounded=0;orthogonalLoop=1;jettySize=auto;html=1;entryX=0;entryY=0.5;entryDx=0;entryDy=0;startArrow=block;startFill=1;endArrow=block;endFill=1;" edge="1" parent="1" source="RKVwzYxyCM7aZtSniW9r-256" target="RKVwzYxyCM7aZtSniW9r-258">
          <mxGeometry relative="1" as="geometry" />
        </mxCell>
        <mxCell id="RKVwzYxyCM7aZtSniW9r-254" style="edgeStyle=orthogonalEdgeStyle;curved=1;rounded=0;orthogonalLoop=1;jettySize=auto;html=1;entryX=0;entryY=0.5;entryDx=0;entryDy=0;startArrow=block;startFill=1;endArrow=block;endFill=1;" edge="1" parent="1" source="RKVwzYxyCM7aZtSniW9r-256" target="RKVwzYxyCM7aZtSniW9r-259">
          <mxGeometry relative="1" as="geometry" />
        </mxCell>
        <mxCell id="RKVwzYxyCM7aZtSniW9r-255" style="edgeStyle=orthogonalEdgeStyle;curved=1;rounded=0;orthogonalLoop=1;jettySize=auto;html=1;entryX=0;entryY=0.5;entryDx=0;entryDy=0;startArrow=block;startFill=1;endArrow=block;endFill=1;" edge="1" parent="1" source="RKVwzYxyCM7aZtSniW9r-256" target="RKVwzYxyCM7aZtSniW9r-260">
          <mxGeometry relative="1" as="geometry" />
        </mxCell>
        <mxCell id="RKVwzYxyCM7aZtSniW9r-256" value="Pagamento" style="shape=step;perimeter=stepPerimeter;whiteSpace=wrap;html=1;fixedSize=1;fillColor=#d5e8d4;strokeColor=#82b366;" vertex="1" parent="1">
          <mxGeometry x="1760.4999999999998" y="1550" width="170" height="59" as="geometry" />
        </mxCell>
        <mxCell id="RKVwzYxyCM7aZtSniW9r-257" value="vv-viamais-calculadora-pagamento-api" style="rounded=0;whiteSpace=wrap;html=1;" vertex="1" parent="1">
          <mxGeometry x="1910.4999999999998" y="1724" width="230" height="60" as="geometry" />
        </mxCell>
        <mxCell id="RKVwzYxyCM7aZtSniW9r-258" value="vv-desconto" style="rounded=0;whiteSpace=wrap;html=1;" vertex="1" parent="1">
          <mxGeometry x="1910.9799999999993" y="1801" width="130" height="60" as="geometry" />
        </mxCell>
        <mxCell id="RKVwzYxyCM7aZtSniW9r-259" value="vv-cupom" style="rounded=0;whiteSpace=wrap;html=1;" vertex="1" parent="1">
          <mxGeometry x="1910.4999999999998" y="1871" width="130.48" height="60" as="geometry" />
        </mxCell>
        <mxCell id="RKVwzYxyCM7aZtSniW9r-260" value="vv-adm &lt;br&gt;(Formas de pagamento)" style="rounded=0;whiteSpace=wrap;html=1;fillColor=#fff2cc;strokeColor=#d6b656;" vertex="1" parent="1">
          <mxGeometry x="1910.9799999999993" y="1941" width="132.96" height="60" as="geometry" />
        </mxCell>
        <mxCell id="RKVwzYxyCM7aZtSniW9r-261" value="vv-viamais-condicao-pagamento-api" style="rounded=0;whiteSpace=wrap;html=1;" vertex="1" parent="1">
          <mxGeometry x="1910.9799999999998" y="1650" width="230" height="60" as="geometry" />
        </mxCell>
        <mxCell id="RKVwzYxyCM7aZtSniW9r-262" value="vv-viamais-condicao-pagamento-api" style="rounded=0;whiteSpace=wrap;html=1;" vertex="1" parent="1">
          <mxGeometry x="3310" y="1215.3899999999999" width="230" height="60" as="geometry" />
        </mxCell>
        <mxCell id="RKVwzYxyCM7aZtSniW9r-263" style="edgeStyle=orthogonalEdgeStyle;rounded=0;orthogonalLoop=1;jettySize=auto;html=1;startArrow=block;startFill=1;" edge="1" parent="1" source="RKVwzYxyCM7aZtSniW9r-265" target="RKVwzYxyCM7aZtSniW9r-54">
          <mxGeometry relative="1" as="geometry" />
        </mxCell>
        <mxCell id="RKVwzYxyCM7aZtSniW9r-264" style="edgeStyle=orthogonalEdgeStyle;rounded=0;orthogonalLoop=1;jettySize=auto;html=1;entryX=0.5;entryY=1;entryDx=0;entryDy=0;entryPerimeter=0;startArrow=block;startFill=1;" edge="1" parent="1" source="RKVwzYxyCM7aZtSniW9r-265" target="RKVwzYxyCM7aZtSniW9r-266">
          <mxGeometry relative="1" as="geometry" />
        </mxCell>
        <mxCell id="RKVwzYxyCM7aZtSniW9r-265" value="Ordem de Recebimento" style="rounded=0;whiteSpace=wrap;html=1;" vertex="1" parent="1">
          <mxGeometry x="2009.4" y="361.27" width="167.5" height="60" as="geometry" />
        </mxCell>
        <mxCell id="RKVwzYxyCM7aZtSniW9r-266" value="OR" style="shape=cylinder3;whiteSpace=wrap;html=1;boundedLbl=1;backgroundOutline=1;size=15;align=center;spacingTop=0;" vertex="1" parent="1">
          <mxGeometry x="2056.4399999999996" y="190" width="73.43" height="85" as="geometry" />
        </mxCell>
        <mxCell id="RKVwzYxyCM7aZtSniW9r-267" value="" style="shape=note;whiteSpace=wrap;html=1;backgroundOutline=1;darkOpacity=0.05;size=17;fillColor=#e1d5e7;strokeColor=#9673a6;fontStyle=1;fontSize=14;" vertex="1" parent="1">
          <mxGeometry x="416" y="427" width="36" height="40" as="geometry" />
        </mxCell>
        <mxCell id="RKVwzYxyCM7aZtSniW9r-268" value="Q2" style="text;html=1;align=center;verticalAlign=middle;resizable=0;points=[];autosize=1;fontColor=#050505;" vertex="1" parent="1">
          <mxGeometry x="457" y="437" width="30" height="20" as="geometry" />
        </mxCell>
        <mxCell id="RKVwzYxyCM7aZtSniW9r-269" style="edgeStyle=orthogonalEdgeStyle;rounded=0;orthogonalLoop=1;jettySize=auto;html=1;entryX=0;entryY=0.5;entryDx=0;entryDy=0;curved=1;exitX=0.5;exitY=0;exitDx=0;exitDy=0;startArrow=classic;startFill=1;" edge="1" parent="1" source="RKVwzYxyCM7aZtSniW9r-271" target="RKVwzYxyCM7aZtSniW9r-282">
          <mxGeometry relative="1" as="geometry" />
        </mxCell>
        <mxCell id="RKVwzYxyCM7aZtSniW9r-270" value="redirect" style="edgeStyle=orthogonalEdgeStyle;curved=1;rounded=0;orthogonalLoop=1;jettySize=auto;html=1;entryX=0;entryY=0.5;entryDx=0;entryDy=0;startArrow=classic;startFill=1;dashed=1;" edge="1" parent="1" source="RKVwzYxyCM7aZtSniW9r-271" target="RKVwzYxyCM7aZtSniW9r-274">
          <mxGeometry relative="1" as="geometry" />
        </mxCell>
        <mxCell id="RKVwzYxyCM7aZtSniW9r-271" value="front catalogo" style="rounded=0;whiteSpace=wrap;html=1;" vertex="1" parent="1">
          <mxGeometry x="860" y="3470" width="120" height="60" as="geometry" />
        </mxCell>
        <mxCell id="RKVwzYxyCM7aZtSniW9r-272" value="redirect" style="edgeStyle=orthogonalEdgeStyle;curved=1;rounded=0;orthogonalLoop=1;jettySize=auto;html=1;startArrow=classic;startFill=1;dashed=1;" edge="1" parent="1" source="RKVwzYxyCM7aZtSniW9r-274" target="RKVwzYxyCM7aZtSniW9r-277">
          <mxGeometry relative="1" as="geometry" />
        </mxCell>
        <mxCell id="RKVwzYxyCM7aZtSniW9r-273" style="edgeStyle=orthogonalEdgeStyle;curved=1;rounded=0;orthogonalLoop=1;jettySize=auto;html=1;startArrow=classic;startFill=1;" edge="1" parent="1" source="RKVwzYxyCM7aZtSniW9r-274" target="RKVwzYxyCM7aZtSniW9r-282">
          <mxGeometry relative="1" as="geometry" />
        </mxCell>
        <mxCell id="RKVwzYxyCM7aZtSniW9r-274" value="front carrinho" style="rounded=0;whiteSpace=wrap;html=1;" vertex="1" parent="1">
          <mxGeometry x="1120" y="3470" width="120" height="60" as="geometry" />
        </mxCell>
        <mxCell id="RKVwzYxyCM7aZtSniW9r-275" value="redirect" style="edgeStyle=orthogonalEdgeStyle;curved=1;rounded=0;orthogonalLoop=1;jettySize=auto;html=1;entryX=0;entryY=0.5;entryDx=0;entryDy=0;startArrow=classic;startFill=1;dashed=1;" edge="1" parent="1" source="RKVwzYxyCM7aZtSniW9r-277" target="RKVwzYxyCM7aZtSniW9r-280">
          <mxGeometry relative="1" as="geometry" />
        </mxCell>
        <mxCell id="RKVwzYxyCM7aZtSniW9r-276" style="edgeStyle=orthogonalEdgeStyle;curved=1;rounded=0;orthogonalLoop=1;jettySize=auto;html=1;entryX=0.5;entryY=1;entryDx=0;entryDy=0;startArrow=classic;startFill=1;" edge="1" parent="1" source="RKVwzYxyCM7aZtSniW9r-277" target="RKVwzYxyCM7aZtSniW9r-290">
          <mxGeometry relative="1" as="geometry" />
        </mxCell>
        <mxCell id="RKVwzYxyCM7aZtSniW9r-277" value="front&amp;nbsp;negociacao" style="rounded=0;whiteSpace=wrap;html=1;" vertex="1" parent="1">
          <mxGeometry x="1505" y="3470" width="120" height="60" as="geometry" />
        </mxCell>
        <mxCell id="RKVwzYxyCM7aZtSniW9r-278" style="edgeStyle=orthogonalEdgeStyle;curved=1;rounded=0;orthogonalLoop=1;jettySize=auto;html=1;entryX=0.5;entryY=1;entryDx=0;entryDy=0;startArrow=classic;startFill=1;" edge="1" parent="1" source="RKVwzYxyCM7aZtSniW9r-280" target="RKVwzYxyCM7aZtSniW9r-286">
          <mxGeometry relative="1" as="geometry" />
        </mxCell>
        <mxCell id="RKVwzYxyCM7aZtSniW9r-279" style="edgeStyle=orthogonalEdgeStyle;curved=1;rounded=0;orthogonalLoop=1;jettySize=auto;html=1;entryX=0;entryY=0.5;entryDx=0;entryDy=0;startArrow=none;startFill=0;" edge="1" parent="1" source="RKVwzYxyCM7aZtSniW9r-280" target="RKVwzYxyCM7aZtSniW9r-296">
          <mxGeometry relative="1" as="geometry" />
        </mxCell>
        <mxCell id="RKVwzYxyCM7aZtSniW9r-280" value="front&amp;nbsp;checkout" style="rounded=0;whiteSpace=wrap;html=1;" vertex="1" parent="1">
          <mxGeometry x="1860" y="3470" width="120" height="60" as="geometry" />
        </mxCell>
        <mxCell id="RKVwzYxyCM7aZtSniW9r-281" style="edgeStyle=orthogonalEdgeStyle;curved=1;rounded=0;orthogonalLoop=1;jettySize=auto;html=1;startArrow=classic;startFill=1;" edge="1" parent="1" source="RKVwzYxyCM7aZtSniW9r-282" target="RKVwzYxyCM7aZtSniW9r-291">
          <mxGeometry relative="1" as="geometry" />
        </mxCell>
        <mxCell id="RKVwzYxyCM7aZtSniW9r-282" value="api carrinho" style="rounded=0;whiteSpace=wrap;html=1;fillColor=#dae8fc;strokeColor=#6c8ebf;" vertex="1" parent="1">
          <mxGeometry x="1120" y="3270" width="120" height="60" as="geometry" />
        </mxCell>
        <mxCell id="RKVwzYxyCM7aZtSniW9r-283" style="edgeStyle=orthogonalEdgeStyle;curved=1;rounded=0;orthogonalLoop=1;jettySize=auto;html=1;entryX=0.5;entryY=1;entryDx=0;entryDy=0;entryPerimeter=0;startArrow=classic;startFill=1;" edge="1" parent="1" source="RKVwzYxyCM7aZtSniW9r-284" target="RKVwzYxyCM7aZtSniW9r-292">
          <mxGeometry relative="1" as="geometry" />
        </mxCell>
        <mxCell id="RKVwzYxyCM7aZtSniW9r-284" value="api negociacao" style="rounded=0;whiteSpace=wrap;html=1;" vertex="1" parent="1">
          <mxGeometry x="1505" y="3110" width="120" height="60" as="geometry" />
        </mxCell>
        <mxCell id="RKVwzYxyCM7aZtSniW9r-285" style="edgeStyle=orthogonalEdgeStyle;curved=1;rounded=0;orthogonalLoop=1;jettySize=auto;html=1;entryX=0.5;entryY=1;entryDx=0;entryDy=0;entryPerimeter=0;startArrow=classic;startFill=1;" edge="1" parent="1" source="RKVwzYxyCM7aZtSniW9r-286" target="RKVwzYxyCM7aZtSniW9r-293">
          <mxGeometry relative="1" as="geometry" />
        </mxCell>
        <mxCell id="RKVwzYxyCM7aZtSniW9r-286" value="api checkout" style="rounded=0;whiteSpace=wrap;html=1;fillColor=#dae8fc;strokeColor=#6c8ebf;" vertex="1" parent="1">
          <mxGeometry x="1860" y="3270" width="120" height="60" as="geometry" />
        </mxCell>
        <mxCell id="RKVwzYxyCM7aZtSniW9r-287" style="edgeStyle=orthogonalEdgeStyle;curved=1;rounded=0;orthogonalLoop=1;jettySize=auto;html=1;entryX=0.5;entryY=1;entryDx=0;entryDy=0;startArrow=classic;startFill=1;" edge="1" parent="1" source="RKVwzYxyCM7aZtSniW9r-290" target="RKVwzYxyCM7aZtSniW9r-284">
          <mxGeometry relative="1" as="geometry" />
        </mxCell>
        <mxCell id="RKVwzYxyCM7aZtSniW9r-288" style="edgeStyle=orthogonalEdgeStyle;curved=1;rounded=0;orthogonalLoop=1;jettySize=auto;html=1;entryX=1;entryY=0.5;entryDx=0;entryDy=0;startArrow=classic;startFill=1;" edge="1" parent="1" source="RKVwzYxyCM7aZtSniW9r-290" target="RKVwzYxyCM7aZtSniW9r-282">
          <mxGeometry relative="1" as="geometry" />
        </mxCell>
        <mxCell id="RKVwzYxyCM7aZtSniW9r-289" style="edgeStyle=orthogonalEdgeStyle;curved=1;rounded=0;orthogonalLoop=1;jettySize=auto;html=1;entryX=0;entryY=0.5;entryDx=0;entryDy=0;startArrow=classic;startFill=1;" edge="1" parent="1" source="RKVwzYxyCM7aZtSniW9r-290" target="RKVwzYxyCM7aZtSniW9r-286">
          <mxGeometry relative="1" as="geometry" />
        </mxCell>
        <mxCell id="RKVwzYxyCM7aZtSniW9r-290" value="bff negociacao&lt;br&gt;&lt;br&gt;(este bff não deve ter regra de negócio)" style="rounded=0;whiteSpace=wrap;html=1;fillColor=#dae8fc;strokeColor=#6c8ebf;" vertex="1" parent="1">
          <mxGeometry x="1500" y="3260" width="130" height="80" as="geometry" />
        </mxCell>
        <mxCell id="RKVwzYxyCM7aZtSniW9r-291" value="carrinho" style="shape=cylinder3;whiteSpace=wrap;html=1;boundedLbl=1;backgroundOutline=1;size=15;" vertex="1" parent="1">
          <mxGeometry x="1150" y="3090" width="60" height="80" as="geometry" />
        </mxCell>
        <mxCell id="RKVwzYxyCM7aZtSniW9r-292" value="negociacao" style="shape=cylinder3;whiteSpace=wrap;html=1;boundedLbl=1;backgroundOutline=1;size=15;" vertex="1" parent="1">
          <mxGeometry x="1527.5" y="2950" width="75" height="80" as="geometry" />
        </mxCell>
        <mxCell id="RKVwzYxyCM7aZtSniW9r-293" value="checkout" style="shape=cylinder3;whiteSpace=wrap;html=1;boundedLbl=1;backgroundOutline=1;size=15;" vertex="1" parent="1">
          <mxGeometry x="1890" y="3090" width="60" height="80" as="geometry" />
        </mxCell>
        <mxCell id="RKVwzYxyCM7aZtSniW9r-294" style="edgeStyle=orthogonalEdgeStyle;curved=1;rounded=0;orthogonalLoop=1;jettySize=auto;html=1;entryX=0;entryY=0.5;entryDx=0;entryDy=0;startArrow=none;startFill=0;exitX=1;exitY=0.5;exitDx=0;exitDy=0;" edge="1" parent="1" source="RKVwzYxyCM7aZtSniW9r-295" target="RKVwzYxyCM7aZtSniW9r-271">
          <mxGeometry relative="1" as="geometry">
            <mxPoint x="800" y="3500" as="sourcePoint" />
          </mxGeometry>
        </mxCell>
        <mxCell id="RKVwzYxyCM7aZtSniW9r-295" value="" style="ellipse;whiteSpace=wrap;html=1;" vertex="1" parent="1">
          <mxGeometry x="770" y="3485" width="30" height="30" as="geometry" />
        </mxCell>
        <mxCell id="RKVwzYxyCM7aZtSniW9r-296" value="" style="ellipse;whiteSpace=wrap;html=1;fillColor=#000000;" vertex="1" parent="1">
          <mxGeometry x="2050" y="3485" width="30" height="30" as="geometry" />
        </mxCell>
        <mxCell id="RKVwzYxyCM7aZtSniW9r-297" value="Criar carrinho/&lt;br&gt;Incluir item" style="text;html=1;strokeColor=none;fillColor=none;align=left;verticalAlign=middle;whiteSpace=wrap;rounded=0;" vertex="1" parent="1">
          <mxGeometry x="890" y="3310" width="90" height="40" as="geometry" />
        </mxCell>
        <mxCell id="RKVwzYxyCM7aZtSniW9r-298" value="Consultar carrinho&lt;br&gt;Persistir dados" style="text;html=1;strokeColor=none;fillColor=none;align=left;verticalAlign=middle;whiteSpace=wrap;rounded=0;" vertex="1" parent="1">
          <mxGeometry x="1190" y="3390" width="110" height="60" as="geometry" />
        </mxCell>
        <mxCell id="RKVwzYxyCM7aZtSniW9r-299" value="Consultar negociação&lt;br&gt;Persistir dados" style="text;html=1;strokeColor=none;fillColor=none;align=left;verticalAlign=middle;whiteSpace=wrap;rounded=0;" vertex="1" parent="1">
          <mxGeometry x="1575" y="3390" width="140" height="60" as="geometry" />
        </mxCell>
        <mxCell id="RKVwzYxyCM7aZtSniW9r-300" value="Consultar carrinho&lt;br&gt;Gravar negociacao no carrinho" style="text;html=1;strokeColor=none;fillColor=none;align=left;verticalAlign=middle;whiteSpace=wrap;rounded=0;" vertex="1" parent="1">
          <mxGeometry x="1280" y="3250" width="180" height="60" as="geometry" />
        </mxCell>
        <mxCell id="RKVwzYxyCM7aZtSniW9r-301" value="Persistir/Consultar dados" style="text;html=1;strokeColor=none;fillColor=none;align=left;verticalAlign=middle;whiteSpace=wrap;rounded=0;" vertex="1" parent="1">
          <mxGeometry x="1570" y="3200" width="150" height="30" as="geometry" />
        </mxCell>
        <mxCell id="RKVwzYxyCM7aZtSniW9r-302" value="Consultar checkout&lt;br&gt;Persistir dados&lt;br&gt;Finalizar venda" style="text;html=1;strokeColor=none;fillColor=none;align=left;verticalAlign=middle;whiteSpace=wrap;rounded=0;" vertex="1" parent="1">
          <mxGeometry x="1930" y="3390" width="110" height="60" as="geometry" />
        </mxCell>
        <mxCell id="RKVwzYxyCM7aZtSniW9r-303" value="Toda vez que tiver alteração no contrato do carrinho, vou precisar mudar o bff pra enviar pro checkout ?" style="shape=note;whiteSpace=wrap;html=1;backgroundOutline=1;darkOpacity=0.05;fillColor=#fff2cc;align=center;strokeColor=#d6b656;size=10;spacing=10;fontStyle=1" vertex="1" parent="1">
          <mxGeometry x="1100" y="3835" width="173" height="90" as="geometry" />
        </mxCell>
        <mxCell id="RKVwzYxyCM7aZtSniW9r-304" value="Enviar carrinho p/ checkout" style="text;html=1;strokeColor=none;fillColor=none;align=left;verticalAlign=middle;whiteSpace=wrap;rounded=0;" vertex="1" parent="1">
          <mxGeometry x="1670" y="3270" width="150" height="30" as="geometry" />
        </mxCell>
        <mxCell id="RKVwzYxyCM7aZtSniW9r-305" value="Essa decisão de arquitetura foi tomada em conjunto com as 3 squads.&lt;br&gt;&lt;br&gt;+&lt;br&gt;- Isolamento das bases e domínio de dados&lt;br&gt;- Cada squad terá a sua própria independência e estrutura de dados&lt;br&gt;&amp;nbsp;&lt;br&gt;-&lt;br&gt;- Atualização do bff sempre que mudar contrato entre" style="text;html=1;strokeColor=none;fillColor=none;align=center;verticalAlign=middle;whiteSpace=wrap;rounded=0;" vertex="1" parent="1">
          <mxGeometry x="1300" y="3810" width="450" height="140" as="geometry" />
        </mxCell>
        <mxCell id="RKVwzYxyCM7aZtSniW9r-306" value="Nova Jornada Via+ v2 - final" style="text;html=1;strokeColor=none;fillColor=none;align=center;verticalAlign=middle;whiteSpace=wrap;rounded=0;fontSize=20;fontStyle=1" vertex="1" parent="1">
          <mxGeometry x="670" y="2940" width="370" height="60" as="geometry" />
        </mxCell>
      </root>
    </mxGraphModel>
  </diagram>
</mxfile>
